<svg id="background_pattern" data-name="background pattern" xmlns="http://www.w3.org/2000/svg" viewBox="0 0 2920 9800"><defs><style>.cls-1,.cls-5{opacity:0.05;}.cls-2,.cls-4,.cls-5{fill:none;stroke:#838383;stroke-width:5px;}.cls-2,.cls-5{stroke-miterlimit:10;}.cls-3{fill:#838383;}.cls-4{stroke-linejoin:bevel;}</style></defs><g class="cls-1"><path class="cls-2" d="M417.33,6812.53c130.83,130.82,342.93,130.82,473.76,0s130.82-342.94,0-473.77-342.94-130.82-473.76,0S286.5,6681.7,417.33,6812.53Z"/><polygon class="cls-2" points="568.49 6433.66 568.49 6725.53 810.56 6577.27 568.49 6433.66"/><line class="cls-2" x1="808.47" y1="6577.4" x2="656.42" y2="6577.39"/><path class="cls-2" d="M568.49,6433.66c.89,1.76,88.38,145.5,88.38,145.5l-88.45,146.23"/></g><g class="cls-1"><circle class="cls-2" cx="1330.46" cy="6756.85" r="335" transform="translate(-4388.13 2919.81) rotate(-45)"/><polygon class="cls-2" points="1330.46 6517.84 1502.34 6853.57 1330.47 6998.28 1158.59 6853.57 1330.46 6517.84"/><line class="cls-2" x1="1158.89" y1="6855.05" x2="1501.89" y2="6855.05"/><line class="cls-2" x1="1330.46" y1="6997.67" x2="1330.46" y2="6854.9"/><path class="cls-3" d="M1319.54,6777.9l9-19.74h.12l9.09,19.74Zm-29,28.7h13.16a4.47,4.47,0,0,0,4.31-2.87l4.3-9.57h32.55l4.3,9.45c1.08,2.27,2,3,4.19,3h13.28a2.12,2.12,0,0,0,2-3.11L1331.27,6723a2.42,2.42,0,0,0-2-1.31H1328a2.43,2.43,0,0,0-2,1.31l-37.44,80.51a2.11,2.11,0,0,0,2,3.11Z"/></g><g class="cls-1"><path class="cls-2" d="M1769.49,7174.84c130.83,130.82,342.93,130.82,473.76,0s130.82-342.94,0-473.77-342.94-130.82-473.76,0S1638.66,7044,1769.49,7174.84Z"/><polygon class="cls-2" points="1920.65 6795.97 1920.65 7087.84 2162.72 6939.58 1920.65 6795.97"/><line class="cls-2" x1="2160.63" y1="6939.71" x2="2008.58" y2="6939.7"/><path class="cls-2" d="M1920.65,6796c.89,1.76,88.39,145.5,88.39,145.5l-88.46,146.23"/></g><g class="cls-1"><circle class="cls-2" cx="2682.62" cy="7119.16" r="335"/><rect class="cls-2" x="2526.24" y="6999.62" width="315" height="28"/><polyline class="cls-2" points="2818.24 7027.62 2818.24 7221.62 2549.24 7221.62 2549.24 7027.62"/><line class="cls-2" x1="2683.74" y1="6999.62" x2="2683.74" y2="6987.62"/><line class="cls-2" x1="2683.74" y1="7244.62" x2="2683.74" y2="7221.62"/><circle class="cls-2" cx="2683.74" cy="7261.62" r="17"/></g><g class="cls-1"><circle class="cls-2" cx="522.66" cy="8417.82" r="335"/><line class="cls-2" x1="380.12" y1="8236.62" x2="380.12" y2="8599.01"/><path class="cls-2" d="M380.12,8571.51a67,67,0,1,0-67.07-67A67,67,0,0,0,380.12,8571.51Z"/><line class="cls-2" x1="522.66" y1="8236.62" x2="522.66" y2="8599.01"/><path class="cls-2" d="M522.66,8420.33a67,67,0,1,0-67.08-67A67,67,0,0,0,522.66,8420.33Z"/><line class="cls-2" x1="665.19" y1="8236.62" x2="665.19" y2="8599.01"/><path class="cls-2" d="M665.19,8510.38a67,67,0,1,0-67.08-67A67,67,0,0,0,665.19,8510.38Z"/></g><g class="cls-1"><circle class="cls-2" cx="1874.82" cy="8780.13" r="335"/><line class="cls-2" x1="1732.29" y1="8598.93" x2="1732.29" y2="8961.32"/><path class="cls-2" d="M1732.29,8933.82a67,67,0,1,0-67.08-67A67,67,0,0,0,1732.29,8933.82Z"/><line class="cls-2" x1="1874.82" y1="8598.93" x2="1874.82" y2="8961.32"/><path class="cls-2" d="M1874.82,8782.64a67,67,0,1,0-67.08-66.95A67,67,0,0,0,1874.82,8782.64Z"/><line class="cls-2" x1="2017.35" y1="8598.93" x2="2017.35" y2="8961.32"/><path class="cls-2" d="M2017.35,8872.69a67,67,0,1,0-67.08-67A67,67,0,0,0,2017.35,8872.69Z"/></g><g class="cls-1"><polyline class="cls-2" points="2411.75 8867.1 2496.51 8867.1 2496.51 8782.34"/><path class="cls-2" d="M2313.53,9198c130.83,130.82,342.94,130.82,473.77,0s130.82-342.94,0-473.77-342.94-130.82-473.77,0-130.82,342.94,0,473.77"/><polygon class="cls-2" points="2411.97 8867.23 2411.97 9140.44 2688.85 9140.44 2688.85 8781.88 2496.99 8781.88 2411.97 8867.23"/></g><g class="cls-1"><circle class="cls-2" cx="1198.26" cy="8598.85" r="335"/><rect class="cls-2" x="1041.87" y="8479.3" width="315" height="28"/><polyline class="cls-2" points="1333.87 8507.3 1333.87 8701.3 1064.87 8701.3 1064.87 8507.3"/><line class="cls-2" x1="1199.37" y1="8479.3" x2="1199.37" y2="8467.3"/><line class="cls-2" x1="1199.37" y1="8724.3" x2="1199.37" y2="8701.3"/><circle class="cls-2" cx="1199.37" cy="8741.3" r="17"/></g><g class="cls-1"><path class="cls-2" d="M1120,119c130.83,130.83,342.93,130.82,473.76,0s130.82-342.94,0-473.77-342.94-130.82-473.76,0S989.13-11.87,1120,119Z"/><polygon class="cls-2" points="1271.12 -259.91 1271.12 31.95 1513.19 -116.31 1271.12 -259.91"/><path class="cls-2" d="M1271.12-259.91c.89,1.76,88.38,145.5,88.38,145.5L1271.05,31.82"/></g><g class="cls-1"><circle class="cls-2" cx="1538.35" cy="555.73" r="335" transform="translate(57.61 1250.55) rotate(-45)"/><polygon class="cls-2" points="1538.35 316.73 1710.22 652.45 1538.35 797.16 1366.48 652.45 1538.35 316.73"/><line class="cls-2" x1="1366.78" y1="653.94" x2="1709.78" y2="653.94"/><line class="cls-2" x1="1538.35" y1="796.56" x2="1538.35" y2="653.78"/><path class="cls-3" d="M1527.43,576.79l9-19.75h.12l9.1,19.75Zm-29,28.69h13.16a4.43,4.43,0,0,0,4.3-2.87l4.31-9.57h32.55l4.3,9.45c1.08,2.28,2,3,4.19,3h13.28a2.11,2.11,0,0,0,2-3.11l-37.44-80.5a2.44,2.44,0,0,0-2-1.32h-1.2a2.43,2.43,0,0,0-2,1.32l-37.45,80.5a2.11,2.11,0,0,0,2,3.11Z"/></g><g class="cls-1"><path class="cls-2" d="M1977.38,973.72c130.82,130.83,342.93,130.82,473.75,0s130.83-342.94,0-473.77-342.94-130.82-473.77,0S1846.55,842.9,1977.38,973.72Z"/><polygon class="cls-2" points="2128.54 594.86 2128.54 886.72 2370.61 738.47 2128.54 594.86"/><line class="cls-2" x1="2368.51" y1="738.6" x2="2216.46" y2="738.59"/><path class="cls-2" d="M2128.54,594.86c.88,1.76,88.38,145.5,88.38,145.5l-88.46,146.23"/></g><g class="cls-1"><circle class="cls-2" cx="2890.51" cy="918.05" r="335" transform="translate(197.45 2312.79) rotate(-45)"/><polygon class="cls-2" points="2890.51 679.04 3062.38 1014.76 2890.51 1159.47 2718.64 1014.76 2890.51 679.04"/><line class="cls-2" x1="2718.94" y1="1016.25" x2="3061.94" y2="1016.25"/><line class="cls-2" x1="2890.51" y1="1158.87" x2="2890.51" y2="1016.09"/><path class="cls-3" d="M2879.59,939.1l9-19.75h.12l9.1,19.75Zm-29,28.69h13.16a4.43,4.43,0,0,0,4.3-2.87l4.31-9.57H2905l4.3,9.45c1.08,2.28,2,3,4.19,3h13.28a2.11,2.11,0,0,0,2-3.11l-37.44-80.5a2.44,2.44,0,0,0-2-1.32h-1.19a2.44,2.44,0,0,0-2,1.32l-37.45,80.5a2.11,2.11,0,0,0,2,3.11Z"/></g><g class="cls-1"><path class="cls-2" d="M312.7,1777.72c130.83,130.83,342.94,130.82,473.76,0s130.82-342.94,0-473.77-342.94-130.82-473.77,0S181.88,1646.9,312.7,1777.72Z"/><polygon class="cls-2" points="463.87 1398.86 463.87 1690.72 705.93 1542.46 463.87 1398.86"/><line class="cls-2" x1="703.84" y1="1542.59" x2="551.79" y2="1542.59"/><path class="cls-2" d="M463.87,1398.85c.88,1.77,88.38,145.51,88.38,145.51l-88.46,146.23"/></g><g class="cls-1"><circle class="cls-2" cx="1225.84" cy="1722.04" r="335" transform="translate(-858.63 1371.17) rotate(-45)"/><polygon class="cls-2" points="1225.84 1483.04 1397.71 1818.76 1225.84 1963.47 1053.97 1818.76 1225.84 1483.04"/><line class="cls-2" x1="1054.27" y1="1820.24" x2="1397.27" y2="1820.24"/><line class="cls-2" x1="1225.84" y1="1962.87" x2="1225.84" y2="1820.09"/><path class="cls-3" d="M1214.92,1743.09l9-19.74h.12l9.1,19.74Zm-29,28.7h13.16a4.44,4.44,0,0,0,4.3-2.87l4.31-9.57h32.54l4.31,9.45c1.08,2.27,2,3,4.19,3h13.28a2.11,2.11,0,0,0,2-3.11l-37.45-80.5a2.42,2.42,0,0,0-2-1.32h-1.2a2.43,2.43,0,0,0-2,1.32l-37.45,80.5a2.11,2.11,0,0,0,2,3.11Z"/></g><g class="cls-1"><path class="cls-2" d="M1664.86,2140c130.83,130.83,342.94,130.82,473.76,0s130.82-342.94,0-473.77-342.94-130.82-473.77,0S1534,2009.21,1664.86,2140Z"/><polygon class="cls-2" points="1816.03 1761.16 1816.03 2053.03 2058.09 1904.77 1816.03 1761.16"/><line class="cls-2" x1="2056" y1="1904.9" x2="1903.95" y2="1904.9"/><path class="cls-2" d="M1816,1761.16c.88,1.77,88.38,145.51,88.38,145.51L1816,2052.9"/></g><g class="cls-1"><circle class="cls-2" cx="1044.3" cy="1048.38" r="335"/><line class="cls-2" x1="901.76" y1="867.18" x2="901.76" y2="1229.57"/><path class="cls-2" d="M901.76,1202.07a67,67,0,1,0-67.07-67A67,67,0,0,0,901.76,1202.07Z"/><line class="cls-2" x1="1044.3" y1="867.18" x2="1044.3" y2="1229.57"/><path class="cls-2" d="M1044.3,1050.89a67,67,0,1,0-67.08-67A67,67,0,0,0,1044.3,1050.89Z"/><line class="cls-2" x1="1186.83" y1="867.18" x2="1186.83" y2="1229.57"/><path class="cls-2" d="M1186.83,1140.94a67,67,0,1,0-67.08-67A67,67,0,0,0,1186.83,1140.94Z"/></g><g class="cls-1"><circle class="cls-2" cx="2758.96" cy="2760.19" r="335"/><line class="cls-2" x1="2616.43" y1="2578.99" x2="2616.43" y2="2941.38"/><path class="cls-2" d="M2616.43,2913.88a67,67,0,1,0-67.08-67A67,67,0,0,0,2616.43,2913.88Z"/><line class="cls-2" x1="2758.96" y1="2578.99" x2="2758.96" y2="2941.38"/><path class="cls-2" d="M2759,2762.7a67,67,0,1,0-67.08-67A67,67,0,0,0,2759,2762.7Z"/><line class="cls-2" x1="2901.49" y1="2578.99" x2="2901.49" y2="2941.38"/><path class="cls-2" d="M2901.49,2852.74a67,67,0,1,0-67.08-66.95A67,67,0,0,0,2901.49,2852.74Z"/></g><g class="cls-1"><circle class="cls-2" cx="185.84" cy="193.33" r="335"/><line class="cls-2" x1="43.31" y1="12.13" x2="43.31" y2="374.53"/><path class="cls-2" d="M43.31,347a67,67,0,1,0-67.08-67A67,67,0,0,0,43.31,347Z"/><line class="cls-2" x1="185.84" y1="12.13" x2="185.84" y2="374.53"/><path class="cls-2" d="M185.84,195.84a67,67,0,1,0-67.08-67A67,67,0,0,0,185.84,195.84Z"/><line class="cls-2" x1="328.37" y1="12.13" x2="328.37" y2="374.53"/><path class="cls-2" d="M328.37,285.89a67,67,0,1,0-67.08-67A67,67,0,0,0,328.37,285.89Z"/></g><g class="cls-1"><polyline class="cls-2" points="1581.23 1135.34 1665.99 1135.34 1665.99 1050.59"/><path class="cls-2" d="M1483,1466.28c130.83,130.83,342.94,130.83,473.76,0s130.83-342.93,0-473.76-342.93-130.83-473.76,0-130.83,342.93,0,473.76"/><polygon class="cls-2" points="1581.45 1135.48 1581.45 1408.69 1858.33 1408.69 1858.33 1050.13 1666.47 1050.13 1581.45 1135.48"/></g><g class="cls-1"><circle class="cls-2" cx="2396.46" cy="1410.69" r="335"/><line class="cls-2" x1="2253.92" y1="1229.49" x2="2253.92" y2="1591.88"/><path class="cls-2" d="M2253.92,1564.38a67,67,0,1,0-67.07-67A67,67,0,0,0,2253.92,1564.38Z"/><line class="cls-2" x1="2396.46" y1="1229.49" x2="2396.46" y2="1591.88"/><path class="cls-2" d="M2396.46,1413.2a67,67,0,1,0-67.08-67A67,67,0,0,0,2396.46,1413.2Z"/><line class="cls-2" x1="2538.99" y1="1229.49" x2="2538.99" y2="1591.88"/><path class="cls-2" d="M2539,1503.25a67,67,0,1,0-67.08-67A67,67,0,0,0,2539,1503.25Z"/></g><g class="cls-1"><circle class="cls-2" cx="862.09" cy="374.53" r="335"/><rect class="cls-2" x="705.7" y="254.99" width="315" height="28"/><polyline class="cls-2" points="997.7 282.99 997.7 476.99 728.7 476.99 728.7 282.99"/><line class="cls-2" x1="863.2" y1="254.99" x2="863.2" y2="242.99"/><line class="cls-2" x1="863.2" y1="499.99" x2="863.2" y2="476.99"/><circle class="cls-2" cx="863.2" cy="516.99" r="17"/></g><g class="cls-1"><circle class="cls-2" cx="2032.41" cy="63.07" r="335" transform="translate(550.68 1455.6) rotate(-45)"/><polygon class="cls-2" points="1957.59 -69.84 2111 -69.84 2188.26 60.52 2111 194.42 1955.81 194.42 1879.99 61.19 1957.59 -69.84"/><polygon class="cls-4" points="1957.59 -69.84 1955.81 194.42 2188.26 60.52 1957.59 -69.84"/><polyline class="cls-2" points="2111 -69.84 2034.13 62.29 2111 194.42"/><line class="cls-2" x1="1880" y1="61.19" x2="2034.13" y2="62.29"/></g><g class="cls-1"><circle class="cls-2" cx="2708.99" cy="244.39" r="335"/><rect class="cls-2" x="2552.61" y="124.84" width="315" height="28"/><polyline class="cls-2" points="2844.61 152.84 2844.61 346.84 2575.61 346.84 2575.61 152.84"/><line class="cls-2" x1="2710.11" y1="124.84" x2="2710.11" y2="112.84"/><line class="cls-2" x1="2710.11" y1="369.84" x2="2710.11" y2="346.84"/><circle class="cls-2" cx="2710.11" cy="386.84" r="17"/></g><g class="cls-1"><path class="cls-2" d="M-.4,2946.22c130.83,130.83,342.94,130.82,473.76,0s130.82-342.94,0-473.77-342.94-130.82-473.77,0S-131.22,2815.39-.4,2946.22Z"/><polygon class="cls-2" points="150.77 2567.35 150.77 2859.22 392.83 2710.96 150.77 2567.35"/><line class="cls-2" x1="390.74" y1="2711.09" x2="238.69" y2="2711.09"/><path class="cls-2" d="M150.77,2567.35c.88,1.77,88.38,145.51,88.38,145.51l-88.46,146.23"/></g><g class="cls-1"><circle class="cls-2" cx="912.74" cy="2890.54" r="335" transform="translate(-1776.59 1492.02) rotate(-45)"/><polygon class="cls-2" points="912.74 2651.54 1084.61 2987.26 912.74 3131.97 740.87 2987.26 912.74 2651.54"/><line class="cls-2" x1="741.17" y1="2988.74" x2="1084.17" y2="2988.74"/><line class="cls-2" x1="912.74" y1="3131.37" x2="912.74" y2="2988.59"/><path class="cls-3" d="M901.82,2911.59l9-19.74h.12l9.1,19.74Zm-29,28.7H886a4.43,4.43,0,0,0,4.3-2.87l4.31-9.57h32.55l4.3,9.45c1.08,2.27,2,3,4.19,3H949a2.11,2.11,0,0,0,2-3.11l-37.44-80.5a2.44,2.44,0,0,0-2-1.32h-1.2a2.43,2.43,0,0,0-2,1.32l-37.45,80.5a2.11,2.11,0,0,0,2,3.11Z"/></g><g class="cls-1"><path class="cls-2" d="M1351.77,3308.53c130.82,130.83,342.93,130.82,473.75,0s130.83-342.94,0-473.77-342.94-130.82-473.77,0S1220.94,3177.71,1351.77,3308.53Z"/><polygon class="cls-2" points="1502.93 2929.66 1502.93 3221.53 1744.99 3073.27 1502.93 2929.66"/><line class="cls-2" x1="1742.9" y1="3073.4" x2="1590.85" y2="3073.4"/><path class="cls-2" d="M1502.93,2929.66c.88,1.77,88.38,145.51,88.38,145.51l-88.46,146.23"/></g><g class="cls-1"><circle class="cls-2" cx="2264.9" cy="3252.85" r="335" transform="translate(-1636.74 2554.26) rotate(-45)"/><polygon class="cls-2" points="2264.9 3013.85 2436.77 3349.57 2264.9 3494.28 2093.03 3349.57 2264.9 3013.85"/><line class="cls-2" x1="2093.33" y1="3351.05" x2="2436.33" y2="3351.05"/><line class="cls-2" x1="2264.9" y1="3493.68" x2="2264.9" y2="3350.9"/><path class="cls-3" d="M2254,3273.9l9-19.74h.12l9.1,19.74ZM2225,3302.6h13.16a4.43,4.43,0,0,0,4.3-2.87l4.31-9.57h32.55l4.3,9.45c1.08,2.27,2,3,4.19,3h13.28a2.11,2.11,0,0,0,2-3.11l-37.44-80.5a2.44,2.44,0,0,0-2-1.32h-1.19a2.44,2.44,0,0,0-2,1.32l-37.45,80.5a2.11,2.11,0,0,0,2,3.11Z"/></g><g class="cls-1"><path class="cls-2" d="M2704.27,3670.93c130.83,130.83,342.94,130.83,473.76,0s130.82-342.94,0-473.77-342.94-130.82-473.77,0S2573.45,3540.11,2704.27,3670.93Z"/><polygon class="cls-2" points="2855.44 3292.07 2855.44 3583.93 3097.5 3435.68 2855.44 3292.07"/><path class="cls-2" d="M2855.44,3292.07c.88,1.76,88.38,145.5,88.38,145.5l-88.46,146.23"/></g><g class="cls-1"><circle class="cls-2" cx="600.23" cy="4056.85" r="335" transform="translate(-2692.82 1612.65) rotate(-45)"/><polygon class="cls-2" points="600.23 3817.84 772.1 4153.57 600.23 4298.28 428.36 4153.57 600.23 3817.84"/><line class="cls-2" x1="428.66" y1="4155.05" x2="771.66" y2="4155.05"/><line class="cls-2" x1="600.23" y1="4297.67" x2="600.23" y2="4154.9"/><path class="cls-3" d="M589.31,4077.9l9-19.74h.12l9.1,19.74Zm-28.95,28.7h13.16a4.46,4.46,0,0,0,4.3-2.87l4.31-9.57h32.54l4.31,9.45c1.08,2.27,2,3,4.19,3h13.28a2.11,2.11,0,0,0,2-3.11L601,4023a2.42,2.42,0,0,0-2-1.32h-1.2a2.43,2.43,0,0,0-2,1.32l-37.45,80.5a2.11,2.11,0,0,0,2,3.11Z"/></g><g class="cls-1"><path class="cls-2" d="M1039.25,4474.84c130.83,130.83,342.94,130.82,473.76,0s130.82-342.93,0-473.76-342.94-130.82-473.77,0S908.43,4344,1039.25,4474.84Z"/><polygon class="cls-2" points="1190.42 4095.97 1190.42 4387.84 1432.48 4239.58 1190.42 4095.97"/><line class="cls-2" x1="1430.39" y1="4239.71" x2="1278.34" y2="4239.7"/><path class="cls-2" d="M1190.42,4096c.88,1.76,88.38,145.51,88.38,145.51l-88.46,146.22"/></g><g class="cls-1"><circle class="cls-2" cx="1952.39" cy="4419.16" r="335" transform="translate(-2552.98 2674.89) rotate(-45)"/><polygon class="cls-2" points="1952.39 4180.15 2124.26 4515.88 1952.39 4660.59 1780.52 4515.88 1952.39 4180.15"/><line class="cls-2" x1="1780.82" y1="4517.36" x2="2123.82" y2="4517.36"/><line class="cls-2" x1="1952.39" y1="4659.98" x2="1952.39" y2="4517.21"/><path class="cls-3" d="M1941.47,4440.21l9-19.74h.12l9.1,19.74Zm-29,28.7h13.16a4.46,4.46,0,0,0,4.3-2.87l4.31-9.57h32.54l4.31,9.45c1.08,2.27,2,3,4.19,3h13.28a2.11,2.11,0,0,0,2-3.11l-37.45-80.5a2.42,2.42,0,0,0-2-1.32H1950a2.43,2.43,0,0,0-2,1.32l-37.45,80.5a2.11,2.11,0,0,0,2,3.11Z"/></g><g class="cls-1"><circle class="cls-2" cx="418.69" cy="3383.19" r="335"/><line class="cls-2" x1="276.15" y1="3201.99" x2="276.15" y2="3564.38"/><path class="cls-2" d="M276.15,3536.88a67,67,0,1,0-67.07-67A67,67,0,0,0,276.15,3536.88Z"/><line class="cls-2" x1="418.69" y1="3201.99" x2="418.69" y2="3564.38"/><path class="cls-2" d="M418.69,3385.7a67,67,0,1,0-67.08-67A67,67,0,0,0,418.69,3385.7Z"/><line class="cls-2" x1="561.22" y1="3201.99" x2="561.22" y2="3564.38"/><path class="cls-2" d="M561.22,3475.74a67,67,0,1,0-67.08-66.95A67,67,0,0,0,561.22,3475.74Z"/></g><g class="cls-1"><circle class="cls-2" cx="105.12" cy="4553.43" r="335"/><path class="cls-2" d="M-37.41,4707.12a67,67,0,0,0,67.08-67,67,67,0,0,0-67.08-67,67,67,0,0,0-67.08,67A67,67,0,0,0-37.41,4707.12Z"/><line class="cls-2" x1="105.12" y1="4372.23" x2="105.12" y2="4734.62"/><path class="cls-2" d="M105.12,4555.94A67,67,0,1,0,38,4489,67,67,0,0,0,105.12,4555.94Z"/><line class="cls-2" x1="247.65" y1="4372.23" x2="247.65" y2="4734.62"/><path class="cls-2" d="M247.65,4646A67,67,0,1,0,180.57,4579,67,67,0,0,0,247.65,4646Z"/></g><g class="cls-1"><circle class="cls-2" cx="2628.64" cy="4600.36" r="335"/><line class="cls-2" x1="2486.11" y1="4419.17" x2="2486.11" y2="4781.56"/><path class="cls-2" d="M2486.11,4754.06a67,67,0,1,0-67.08-67A67,67,0,0,0,2486.11,4754.06Z"/><line class="cls-2" x1="2628.64" y1="4419.17" x2="2628.64" y2="4781.56"/><path class="cls-2" d="M2628.64,4602.88a67,67,0,1,0-67.07-67A67,67,0,0,0,2628.64,4602.88Z"/><line class="cls-2" x1="2771.18" y1="4419.17" x2="2771.18" y2="4781.56"/><path class="cls-2" d="M2771.18,4692.92A67,67,0,1,0,2704.1,4626,67,67,0,0,0,2771.18,4692.92Z"/></g><g class="cls-1"><polyline class="cls-2" points="1944.72 2485.14 2029.48 2485.14 2029.48 2400.38"/><path class="cls-2" d="M1846.51,2816.08c130.82,130.83,342.93,130.83,473.76,0s130.83-342.94,0-473.76-342.94-130.83-473.76,0-130.83,342.93,0,473.76"/><polygon class="cls-2" points="1944.94 2485.27 1944.94 2758.49 2221.82 2758.49 2221.82 2399.92 2029.96 2399.92 1944.94 2485.27"/></g><g class="cls-1"><circle class="cls-2" cx="1770.85" cy="3745.5" r="335"/><line class="cls-2" x1="1628.31" y1="3564.3" x2="1628.31" y2="3926.69"/><path class="cls-2" d="M1628.31,3899.19a67,67,0,1,0-67.07-67A67,67,0,0,0,1628.31,3899.19Z"/><line class="cls-2" x1="1770.85" y1="3564.3" x2="1770.85" y2="3926.69"/><path class="cls-2" d="M1770.85,3748a67,67,0,1,0-67.08-67A67,67,0,0,0,1770.85,3748Z"/><line class="cls-2" x1="1913.38" y1="3564.3" x2="1913.38" y2="3926.69"/><path class="cls-2" d="M1913.38,3838.05a67,67,0,1,0-67.08-67A67,67,0,0,0,1913.38,3838.05Z"/></g><g class="cls-1"><polyline class="cls-2" points="2307.78 3832.46 2392.54 3832.46 2392.54 3747.71"/><path class="cls-2" d="M2209.56,4163.4c130.83,130.83,342.94,130.83,473.76,0s130.83-342.93,0-473.76-342.93-130.83-473.76,0-130.82,342.93,0,473.76"/><polygon class="cls-2" points="2308 3832.6 2308 4105.81 2584.88 4105.81 2584.88 3747.25 2393.02 3747.25 2308 3832.6"/></g><circle class="cls-5" cx="731.22" cy="2216.88" r="335"/><rect class="cls-5" x="574.84" y="2097.34" width="315" height="28"/><polyline class="cls-5" points="866.84 2125.34 866.84 2319.34 597.84 2319.34 597.84 2125.34"/><line class="cls-5" x1="732.34" y1="2097.34" x2="732.34" y2="2085.34"/><line class="cls-5" x1="732.34" y1="2342.34" x2="732.34" y2="2319.34"/><circle class="cls-5" cx="732.34" cy="2359.34" r="17"/><g class="cls-1"><circle class="cls-2" cx="2578" cy="2084.35" r="335"/><rect class="cls-2" x="2421.61" y="1964.81" width="315" height="28"/><polyline class="cls-2" points="2713.61 1992.81 2713.61 2186.81 2444.61 2186.81 2444.61 1992.81"/><line class="cls-2" x1="2579.11" y1="1964.81" x2="2579.11" y2="1952.81"/><line class="cls-2" x1="2579.11" y1="2209.81" x2="2579.11" y2="2186.81"/><circle class="cls-2" cx="2579.11" cy="2226.81" r="17"/></g><g class="cls-1"><circle class="cls-2" cx="1406.8" cy="2397.88" r="335" transform="translate(-1283.51 1697.08) rotate(-45)"/><polygon class="cls-2" points="1331.98 2264.97 1485.39 2264.97 1562.65 2395.33 1485.39 2529.23 1330.2 2529.23 1254.38 2395.99 1331.98 2264.97"/><polygon class="cls-4" points="1331.98 2264.97 1330.2 2529.23 1562.65 2395.33 1331.98 2264.97"/><polyline class="cls-2" points="1485.39 2264.97 1408.52 2397.1 1485.39 2529.23"/><line class="cls-2" x1="1254.39" y1="2395.99" x2="1408.52" y2="2397.1"/></g><g class="cls-1"><circle class="cls-2" cx="368.04" cy="867.18" r="335" transform="translate(-505.39 514.23) rotate(-45)"/><polygon class="cls-2" points="293.22 734.27 446.63 734.27 523.89 864.63 446.63 998.53 291.44 998.53 215.62 865.29 293.22 734.27"/><polygon class="cls-4" points="293.22 734.27 291.44 998.53 523.89 864.63 293.22 734.27"/><polyline class="cls-2" points="446.63 734.27 369.76 866.4 446.63 998.53"/><line class="cls-2" x1="215.62" y1="865.29" x2="369.76" y2="866.4"/></g><g class="cls-1"><circle class="cls-2" cx="1094.28" cy="3564.21" r="335"/><rect class="cls-2" x="937.9" y="3444.67" width="315" height="28"/><polyline class="cls-2" points="1229.9 3472.67 1229.9 3666.67 960.9 3666.67 960.9 3472.67"/><line class="cls-2" x1="1095.4" y1="3444.67" x2="1095.4" y2="3432.67"/><line class="cls-2" x1="1095.4" y1="3689.67" x2="1095.4" y2="3666.67"/><circle class="cls-2" cx="1095.4" cy="3706.67" r="17"/></g><g class="cls-1"><path class="cls-2" d="M548.33,4972.56c130.83,130.83,342.94,130.82,473.76,0s130.82-342.93,0-473.76-342.94-130.82-473.76,0S417.5,4841.73,548.33,4972.56Z"/><polygon class="cls-2" points="699.5 4593.69 699.5 4885.56 941.56 4737.3 699.5 4593.69"/><line class="cls-2" x1="939.47" y1="4737.43" x2="787.42" y2="4737.42"/><path class="cls-2" d="M699.5,4593.69c.88,1.76,88.38,145.51,88.38,145.51l-88.46,146.22"/></g><g class="cls-1"><circle class="cls-2" cx="966.72" cy="5409.34" r="335" transform="translate(-3541.84 2267.93) rotate(-45)"/><polygon class="cls-2" points="966.72 5170.33 1138.59 5506.06 966.73 5650.77 794.85 5506.06 966.72 5170.33"/><line class="cls-2" x1="795.15" y1="5507.54" x2="1138.15" y2="5507.54"/><line class="cls-2" x1="966.72" y1="5650.16" x2="966.72" y2="5507.39"/><path class="cls-3" d="M955.8,5430.39l9-19.74h.13l9.09,19.74Zm-28.95,28.7H940a4.47,4.47,0,0,0,4.31-2.87l4.3-9.57h32.55l4.3,9.45c1.08,2.27,2,3,4.19,3h13.28a2.11,2.11,0,0,0,2-3.11l-37.44-80.5a2.44,2.44,0,0,0-2-1.32H964.3a2.44,2.44,0,0,0-2,1.32L924.82,5456a2.11,2.11,0,0,0,2,3.11Z"/></g><g class="cls-1"><path class="cls-2" d="M1405.75,5827.33c130.83,130.83,342.93,130.82,473.76,0s130.82-342.93,0-473.76-342.94-130.82-473.76,0S1274.92,5696.5,1405.75,5827.33Z"/><polygon class="cls-2" points="1556.91 5448.46 1556.91 5740.33 1798.98 5592.07 1556.91 5448.46"/><line class="cls-2" x1="1796.88" y1="5592.2" x2="1644.84" y2="5592.19"/><path class="cls-2" d="M1556.91,5448.46c.89,1.76,88.38,145.51,88.38,145.51l-88.45,146.22"/></g><g class="cls-1"><circle class="cls-2" cx="2318.88" cy="5771.65" r="335" transform="translate(-3401.99 3330.17) rotate(-45)"/><polygon class="cls-2" points="2318.88 5532.64 2490.75 5868.37 2318.89 6013.08 2147.01 5868.37 2318.88 5532.64"/><line class="cls-2" x1="2147.31" y1="5869.85" x2="2490.31" y2="5869.85"/><line class="cls-2" x1="2318.88" y1="6012.47" x2="2318.88" y2="5869.7"/><path class="cls-3" d="M2308,5792.7l9-19.74h.12l9.09,19.74ZM2279,5821.4h13.16a4.47,4.47,0,0,0,4.31-2.87l4.3-9.57h32.55l4.3,9.45c1.08,2.27,2,3,4.19,3h13.28a2.11,2.11,0,0,0,2-3.11l-37.45-80.5a2.44,2.44,0,0,0-2-1.32h-1.19a2.44,2.44,0,0,0-2,1.32l-37.44,80.5a2.11,2.11,0,0,0,2,3.11Z"/></g><g class="cls-1"><circle class="cls-2" cx="472.67" cy="5901.98" r="335"/><line class="cls-2" x1="330.14" y1="5720.79" x2="330.14" y2="6083.18"/><path class="cls-2" d="M330.14,6055.68a67,67,0,1,0-67.08-67A67,67,0,0,0,330.14,6055.68Z"/><line class="cls-2" x1="472.67" y1="5720.79" x2="472.67" y2="6083.18"/><path class="cls-2" d="M472.67,5904.5a67,67,0,1,0-67.08-67A67,67,0,0,0,472.67,5904.5Z"/><line class="cls-2" x1="615.2" y1="5720.79" x2="615.2" y2="6083.18"/><path class="cls-2" d="M615.2,5994.54a67,67,0,1,0-67.08-66.95A67,67,0,0,0,615.2,5994.54Z"/></g><g class="cls-1"><circle class="cls-2" cx="2187.33" cy="7613.79" r="335"/><line class="cls-2" x1="2044.8" y1="7432.6" x2="2044.8" y2="7794.99"/><path class="cls-2" d="M2044.8,7767.48a67,67,0,1,0-67.08-66.95A67,67,0,0,0,2044.8,7767.48Z"/><line class="cls-2" x1="2187.33" y1="7432.6" x2="2187.33" y2="7794.99"/><path class="cls-2" d="M2187.33,7616.31a67,67,0,1,0-67.08-67A67,67,0,0,0,2187.33,7616.31Z"/><line class="cls-2" x1="2329.86" y1="7432.6" x2="2329.86" y2="7794.99"/><path class="cls-2" d="M2329.86,7706.35a67,67,0,1,0-67.07-67A67,67,0,0,0,2329.86,7706.35Z"/></g><g class="cls-1"><polyline class="cls-2" points="1009.6 5988.95 1094.36 5988.95 1094.36 5904.19"/><path class="cls-2" d="M911.38,6319.89c130.83,130.83,342.94,130.83,473.77,0s130.82-342.93,0-473.76-342.94-130.83-473.77,0-130.82,342.93,0,473.76"/><polygon class="cls-2" points="1009.82 5989.09 1009.82 6262.3 1286.7 6262.3 1286.7 5903.74 1094.85 5903.74 1009.82 5989.09"/></g><g class="cls-1"><circle class="cls-2" cx="1824.83" cy="6264.29" r="335"/><line class="cls-2" x1="1682.3" y1="6083.1" x2="1682.3" y2="6445.49"/><path class="cls-2" d="M1682.3,6418a67,67,0,1,0-67.08-67A67,67,0,0,0,1682.3,6418Z"/><line class="cls-2" x1="1824.83" y1="6083.1" x2="1824.83" y2="6445.49"/><path class="cls-2" d="M1824.83,6266.81a67,67,0,1,0-67.08-67A67,67,0,0,0,1824.83,6266.81Z"/><line class="cls-2" x1="1967.36" y1="6083.1" x2="1967.36" y2="6445.49"/><path class="cls-2" d="M1967.36,6356.85a67,67,0,1,0-67.08-67A67,67,0,0,0,1967.36,6356.85Z"/></g><g class="cls-1"><circle class="cls-2" cx="290.46" cy="5228.14" r="335"/><rect class="cls-2" x="134.08" y="5108.6" width="315" height="28"/><polyline class="cls-2" points="426.07 5136.6 426.07 5330.6 157.07 5330.6 157.07 5136.6"/><line class="cls-2" x1="291.58" y1="5108.6" x2="291.58" y2="5096.6"/><line class="cls-2" x1="291.58" y1="5353.6" x2="291.58" y2="5330.6"/><circle class="cls-2" cx="291.58" cy="5370.6" r="17"/></g><g class="cls-1"><circle class="cls-2" cx="1460.78" cy="4916.67" r="335" transform="translate(-3048.76 2472.99) rotate(-45)"/><polygon class="cls-2" points="1385.96 4783.77 1539.37 4783.77 1616.63 4914.13 1539.37 5048.03 1384.19 5048.03 1308.37 4914.79 1385.96 4783.77"/><polygon class="cls-2" points="1385.96 4783.77 1384.19 5048.03 1616.63 4914.13 1385.96 4783.77"/><polyline class="cls-2" points="1539.37 4783.77 1462.5 4915.9 1539.37 5048.03"/><line class="cls-2" x1="1308.37" y1="4914.79" x2="1462.5" y2="4915.9"/></g><g class="cls-1"><circle class="cls-2" cx="2137.37" cy="5097.99" r="335"/><rect class="cls-2" x="1980.98" y="4978.45" width="315" height="28"/><polyline class="cls-2" points="2272.98 5006.45 2272.98 5200.45 2003.98 5200.45 2003.98 5006.45"/><line class="cls-2" x1="2138.48" y1="4978.45" x2="2138.48" y2="4966.45"/><line class="cls-2" x1="2138.48" y1="5223.45" x2="2138.48" y2="5200.45"/><circle class="cls-2" cx="2138.48" cy="5240.45" r="17"/></g><g class="cls-1"><circle class="cls-2" cx="341.11" cy="7744.15" r="335" transform="translate(-5376.03 2509.41) rotate(-45)"/><polygon class="cls-2" points="341.11 7505.14 512.98 7840.87 341.12 7985.58 169.24 7840.87 341.11 7505.14"/><line class="cls-2" x1="169.54" y1="7842.35" x2="512.54" y2="7842.35"/><line class="cls-2" x1="341.11" y1="7984.97" x2="341.11" y2="7842.2"/><path class="cls-3" d="M330.19,7765.2l9-19.74h.13l9.09,19.74Zm-28.95,28.7H314.4a4.47,4.47,0,0,0,4.31-2.87l4.3-9.57h32.55l4.3,9.45c1.08,2.27,2,3,4.19,3h13.28a2.12,2.12,0,0,0,2-3.11l-37.45-80.51a2.45,2.45,0,0,0-2-1.31h-1.19a2.45,2.45,0,0,0-2,1.31l-37.44,80.51a2.11,2.11,0,0,0,2,3.11Z"/></g><g class="cls-1"><path class="cls-2" d="M780.14,8162.14C911,8293,1123.07,8293,1253.9,8162.14s130.82-342.93,0-473.77-342.94-130.82-473.76,0S649.31,8031.31,780.14,8162.14Z"/><polygon class="cls-2" points="931.3 7783.27 931.3 8075.14 1173.37 7926.88 931.3 7783.27"/><line class="cls-2" x1="1171.27" y1="7927.01" x2="1019.23" y2="7927"/><path class="cls-2" d="M931.3,7783.27c.89,1.76,88.38,145.5,88.38,145.5L931.23,8075"/></g><g class="cls-1"><circle class="cls-2" cx="1693.27" cy="8106.46" r="335" transform="translate(-5236.18 3571.65) rotate(-45)"/><polygon class="cls-2" points="1693.27 7867.45 1865.14 8203.18 1693.28 8347.89 1521.4 8203.18 1693.27 7867.45"/><line class="cls-2" x1="1521.7" y1="8204.66" x2="1864.7" y2="8204.66"/><line class="cls-2" x1="1693.27" y1="8347.28" x2="1693.27" y2="8204.51"/><path class="cls-3" d="M1682.35,8127.51l9-19.74h.12l9.09,19.74Zm-28.95,28.7h13.16a4.47,4.47,0,0,0,4.31-2.87l4.3-9.57h32.55l4.3,9.45c1.08,2.27,2,3,4.19,3h13.28a2.12,2.12,0,0,0,2-3.11l-37.45-80.51a2.45,2.45,0,0,0-2-1.31h-1.19a2.45,2.45,0,0,0-2,1.31l-37.44,80.51a2.11,2.11,0,0,0,2,3.11Z"/></g><g class="cls-1"><path class="cls-2" d="M2132.65,8524.54c130.82,130.83,342.93,130.82,473.76,0s130.82-342.94,0-473.77-342.94-130.82-473.77,0S2001.82,8393.72,2132.65,8524.54Z"/><polygon class="cls-2" points="2283.81 8145.68 2283.81 8437.54 2525.88 8289.28 2283.81 8145.68"/><line class="cls-2" x1="2523.78" y1="8289.41" x2="2371.74" y2="8289.41"/><path class="cls-2" d="M2283.81,8145.67c.88,1.77,88.38,145.51,88.38,145.51l-88.45,146.23"/></g><g class="cls-1"><circle class="cls-2" cx="28.6" cy="8910.46" r="335" transform="translate(-6292.27 2630.04) rotate(-45)"/><polygon class="cls-2" points="28.6 8671.45 200.47 9007.17 28.61 9151.89 -143.27 9007.17 28.6 8671.45"/><line class="cls-2" x1="-142.97" y1="9008.66" x2="200.03" y2="9008.66"/><line class="cls-2" x1="28.6" y1="9151.28" x2="28.6" y2="9008.5"/><path class="cls-3" d="M17.68,8931.51l9-19.74h.12l9.1,19.74Zm-28.95,28.7H1.89a4.45,4.45,0,0,0,4.3-2.87l4.31-9.58H43.05l4.3,9.45c1.08,2.28,2,3,4.19,3H64.82a2.11,2.11,0,0,0,2-3.11l-37.44-80.51a2.43,2.43,0,0,0-2-1.31H26.18a2.43,2.43,0,0,0-2,1.31l-37.45,80.51a2.12,2.12,0,0,0,2,3.11Z"/></g><g class="cls-1"><path class="cls-2" d="M467.63,9328.44c130.82,130.83,342.93,130.83,473.76,0s130.82-342.94,0-473.77-342.94-130.82-473.77,0S336.8,9197.62,467.63,9328.44Z"/><polygon class="cls-2" points="618.79 8949.58 618.79 9241.44 860.86 9093.19 618.79 8949.58"/><line class="cls-2" x1="858.76" y1="9093.32" x2="706.72" y2="9093.31"/><path class="cls-2" d="M618.79,8949.58c.88,1.76,88.38,145.5,88.38,145.5l-88.45,146.23"/></g><g class="cls-1"><circle class="cls-2" cx="1380.76" cy="9272.77" r="335" transform="translate(-6152.42 3692.28) rotate(-45)"/><polygon class="cls-2" points="1380.76 9033.76 1552.63 9369.49 1380.77 9514.2 1208.89 9369.49 1380.76 9033.76"/><line class="cls-2" x1="1209.19" y1="9370.97" x2="1552.19" y2="9370.97"/><line class="cls-2" x1="1380.76" y1="9513.59" x2="1380.76" y2="9370.82"/><path class="cls-3" d="M1369.84,9293.82l9-19.74h.12l9.1,19.74Zm-28.95,28.7h13.16a4.47,4.47,0,0,0,4.31-2.87l4.3-9.58h32.55l4.3,9.45c1.08,2.28,2,3,4.19,3H1417a2.11,2.11,0,0,0,2-3.11l-37.44-80.51a2.43,2.43,0,0,0-2-1.31h-1.19a2.43,2.43,0,0,0-2,1.31l-37.44,80.51a2.11,2.11,0,0,0,2,3.11Z"/></g><g class="cls-1"><polyline class="cls-2" points="1373.1 7338.74 1457.85 7338.74 1457.85 7253.99"/><path class="cls-2" d="M1274.88,7669.68c130.83,130.83,342.93,130.83,473.76,0s130.83-342.93,0-473.76-342.93-130.83-473.76,0-130.83,342.93,0,473.76"/><polygon class="cls-2" points="1373.32 7338.88 1373.32 7612.09 1650.2 7612.09 1650.2 7253.53 1458.34 7253.53 1373.32 7338.88"/></g><g class="cls-1"><circle class="cls-2" cx="159.6" cy="7070.49" r="335"/><rect class="cls-2" x="3.21" y="6950.95" width="315" height="28"/><polyline class="cls-2" points="295.21 6978.95 295.21 7172.95 26.21 7172.95 26.21 6978.95"/><line class="cls-2" x1="160.71" y1="6950.95" x2="160.71" y2="6938.95"/><line class="cls-2" x1="160.71" y1="7195.95" x2="160.71" y2="7172.95"/><circle class="cls-2" cx="160.71" cy="7212.95" r="17"/></g><g class="cls-1"><circle class="cls-2" cx="835.17" cy="7251.48" r="335" transform="translate(-4882.96 2714.47) rotate(-45)"/><polygon class="cls-2" points="760.35 7118.58 913.76 7118.58 991.02 7248.93 913.76 7382.84 758.58 7382.84 682.76 7249.6 760.35 7118.58"/><polygon class="cls-4" points="760.35 7118.58 758.58 7382.84 991.02 7248.93 760.35 7118.58"/><polyline class="cls-2" points="913.76 7118.58 836.89 7250.71 913.76 7382.84"/><line class="cls-2" x1="682.76" y1="7249.6" x2="836.89" y2="7250.71"/></g></svg>