<svg id="Layer_1" data-name="Layer 1" xmlns="http://www.w3.org/2000/svg" xmlns:xlink="http://www.w3.org/1999/xlink" viewBox="0 0 171 158"><defs><style>.cls-1,.cls-30,.cls-31,.cls-33{fill:none;}.cls-2{clip-path:url(#clip-path);}.cls-3{fill:#5e5e5e;}.cls-19,.cls-20,.cls-21,.cls-22,.cls-23,.cls-24,.cls-25,.cls-4{fill:#fff;}.cls-5{clip-path:url(#clip-path-2);}.cls-10,.cls-11,.cls-13,.cls-14,.cls-15,.cls-16,.cls-17,.cls-19,.cls-20,.cls-21,.cls-22,.cls-23,.cls-24,.cls-25,.cls-6,.cls-7,.cls-8,.cls-9{isolation:isolate;}.cls-10,.cls-7,.cls-8,.cls-9{font-size:13.91px;fill:#373535;}.cls-10,.cls-19,.cls-20,.cls-21,.cls-22,.cls-23,.cls-24,.cls-25,.cls-7,.cls-8,.cls-9{font-family:BrandonGrotesque-Black, Brandon Grotesque;font-weight:800;}.cls-7{letter-spacing:0.03em;}.cls-8{letter-spacing:0.04em;}.cls-9{letter-spacing:0.02em;}.cls-10{letter-spacing:0.04em;}.cls-11,.cls-13,.cls-14,.cls-15,.cls-16,.cls-17{font-size:4.04px;fill:#666769;font-family:BrandonGrotesque-MediumItalic, Brandon Grotesque;font-weight:500;font-style:italic;}.cls-11{letter-spacing:0em;}.cls-12,.cls-13{letter-spacing:0.01em;}.cls-14{letter-spacing:0.01em;}.cls-15{letter-spacing:0.02em;}.cls-16{letter-spacing:0.02em;}.cls-18{fill:#d47775;}.cls-19,.cls-20,.cls-21,.cls-22,.cls-23,.cls-24,.cls-25{font-size:3.59px;}.cls-19{letter-spacing:0.06em;}.cls-20{letter-spacing:0.07em;}.cls-21{letter-spacing:0.05em;}.cls-22{letter-spacing:0.05em;}.cls-23{letter-spacing:0.06em;}.cls-24{letter-spacing:0.08em;}.cls-26{clip-path:url(#clip-path-4);}.cls-27{clip-path:url(#clip-path-5);}.cls-28{clip-path:url(#clip-path-6);}.cls-29{fill:url(#linear-gradient);}.cls-30{stroke:#e9b65b;stroke-width:0.88px;}.cls-31{stroke:#bab1b9;stroke-width:0.75px;}.cls-32{clip-path:url(#clip-path-7);}.cls-33{stroke:#221f20;}</style><clipPath id="clip-path"><circle class="cls-1" cx="93.6" cy="82.11" r="70"/></clipPath><clipPath id="clip-path-2"><rect class="cls-1" x="62.03" y="32.67" width="266" height="355.32"/></clipPath><clipPath id="clip-path-4"><rect class="cls-1" x="93.32" y="57.79" width="150.15" height="17.51"/></clipPath><clipPath id="clip-path-5"><rect class="cls-1" x="-14180.27" y="-14312.37" width="28484.17" height="29401.15"/></clipPath><clipPath id="clip-path-6"><path class="cls-1" d="M138.85,63.9a.47.47,0,0,1,.46.46h0a.45.45,0,0,1-.43.47h0a.45.45,0,0,1-.45-.45v0a.49.49,0,0,1,.45-.47m-.43-1a.45.45,0,0,1,.43-.47h0a.47.47,0,1,1-.46.47M131,58a5.59,5.59,0,0,1,4.32,1.85l-1.76,1.68A3.78,3.78,0,0,0,131,60.48a3.21,3.21,0,0,0,.05,6.42c1.8,0,2.69-1,2.75-2.06h-2.93V62.6h5.69v1c0,3.14-1.78,5.78-5.53,5.78A5.69,5.69,0,0,1,131,58m-10,8-1.2-2.68h0L118.62,66Zm-1.41-8h.45l5.06,11h-2.72l-.52-1.1h-4.07l-.5,1.1h-2.71Zm-18,.35h2.65l2.08,5L107.61,60,107,58.37h2.6l2.08,5,1.89-5h2.62l-4.29,11h-.35L109,63.23l-2.47,6.16h-.32ZM96,65.9A1.11,1.11,0,0,0,97.07,67a.94.94,0,0,0,1-.88v0c0-.81-1-1-1.87-1.35-1.73-.62-2.71-1.45-2.71-3.29A3.51,3.51,0,0,1,97,58c2.27,0,3.36,1.49,3.51,3.47H98.2a1,1,0,0,0-.89-1.1h-.17a1,1,0,0,0-1.08.92v.08c0,.8,1,.94,1.82,1.21,1.84.56,2.71,1.63,2.71,3.31a3.47,3.47,0,0,1-3.49,3.45h0a3.33,3.33,0,0,1-3.54-3.11c0-.12,0-.24,0-.36Zm138.46-1h1v1.63H237V64.89h1v4.19h-1V67.42h-1.58v1.66h-1Zm-2.38.89h-.92V64.9H234v.89h-.91v3.3h-1Zm-6.82-.89h1l.82,2,.5-1.3-.26-.67h1l.8,2,.74-2h1l-1.67,4.32h-.13l-1-2.42-1,2.42h-.13Zm-2.6,3.36a1.17,1.17,0,0,0,1.17-1.17V67a1.17,1.17,0,1,0-1.26,1.26Zm0-3.5a2.24,2.24,0,1,1-2.17,2.31V67a2.16,2.16,0,0,1,2-2.27h0Zm-4,1.95a.46.46,0,0,0,.36-.54v0a.46.46,0,0,0-.39-.38h-.75v1Zm-1.8-1.81h1.69A1.3,1.3,0,0,1,220,66a1,1,0,0,1,0,.17,1.2,1.2,0,0,1-1,1.3l1.09,1.54h-1.24l-1-1.56v1.56h-1ZM214,64.73a2.23,2.23,0,0,1,1.69.74l-.7.65a1.51,1.51,0,0,0-1-.42,1.17,1.17,0,0,0-1.2,1.14V67a1.19,1.19,0,0,0,1.11,1.26h.1a1,1,0,0,0,1.08-.81H214v-.9h2.24v.41a2.07,2.07,0,0,1-1.84,2.28,2.67,2.67,0,0,1-.4,0,2.18,2.18,0,0,1-2.37-2v0a2.22,2.22,0,0,1,2-2.44h0a2.54,2.54,0,0,1,.39,0m-6.71,3.39a1.16,1.16,0,0,0,0-2.31h-.39v2.31Zm-1.39-3.25h1.41a2.1,2.1,0,0,1,.11,4.19h-1.52Zm-4.25,0h1l1.57,2.48V64.89h1v4.19h-1l-1.54-2.49v2.49h-1Zm-2,3-.45-1h0l-.48,1Zm-.58-3.16h.18l2,4.33h-1.06l-.2-.43h-1.6l-.2.43h-1.06Zm-5.92,3.09a.42.42,0,0,0,.39.45h0A.38.38,0,0,0,194,68v-.07c0-.31-.39-.4-.74-.51-.67-.25-1.06-.59-1.06-1.3a1.36,1.36,0,0,1,1.37-1.35h0a1.3,1.3,0,0,1,1.4,1.19v.2h-1a.44.44,0,0,0-.49-.36.42.42,0,0,0-.36.36c0,.31.37.38.72.47a1.28,1.28,0,0,1,1.06,1.3,1.34,1.34,0,0,1-1.36,1.34h0A1.29,1.29,0,0,1,192.18,68v-.18Zm-3.41,0a.43.43,0,0,0,.41.45h0a.35.35,0,0,0,.39-.31h0c0-.31-.39-.4-.74-.51-.67-.25-1.06-.58-1.06-1.3a1.34,1.34,0,0,1,1.36-1.34h0A1.29,1.29,0,0,1,191.52,66v.14h-.93a.42.42,0,0,0-.42-.42h0a.44.44,0,0,0-.42.4c0,.31.37.38.72.47a1.28,1.28,0,0,1,1.06,1.3,1.34,1.34,0,0,1-1.36,1.34h0a1.3,1.3,0,0,1-1.39-1.21V67.9Zm-4.18-3h2.69v.89h-1.69v.77h1.56v.89h-1.56v.76h1.75V69h-2.75Zm-4.23,0h1L184,67.37V64.89h1v4.19h-1l-1.59-2.49v2.49h-1V64.89Zm-3.23,0h1v3.29h1.76V69h-2.75Zm-3.24,0h1v3.29h1.76V69h-2.76Zm-3.23,0h2.67v.89h-1.69v.77h1.56v.89h-1.56v.76h1.76V69h-2.74Zm-6.09,0h1l.82,2,.5-1.3-.26-.67h1l.8,2,.74-2h1l-1.69,4.32h-.13l-1-2.42-1,2.42h-.13Zm-4.71,0h1v3.29h1.75V69h-2.75Zm-2,3-.46-1h0l-.47,1Zm-.6-3.09h.17l2,4.33h-1.06l-.19-.43h-1.61l-.19.43H156.3Zm-5.6.14h1v2.62c0,.56.26.76.6.76s.61-.2.61-.76v-2.6h1v2.78a1.5,1.5,0,0,1-1.46,1.54h-.15a1.46,1.46,0,0,1-1.58-1.33v-.21Zm-3,2-1.3-2h1.15l.76,1.25.72-1.25h1.15L150.83,67l1.34,2.11H151l-.8-1.33-.8,1.33h-1.13Zm-4.4-2h2.67v.89h-1.69v.77h1.56v.89h-1.56v.76H148v.88h-2.75Zm-2.45,3a.42.42,0,0,0,.39.45h0a.34.34,0,0,0,.39-.29v0h0c0-.31-.39-.4-.73-.51-.68-.25-1.07-.58-1.07-1.3a1.36,1.36,0,0,1,1.38-1.34h0a1.29,1.29,0,0,1,1.37,1.21v.15h-.93a.44.44,0,0,0-.49-.36.42.42,0,0,0-.36.36c0,.31.37.38.72.47a1.28,1.28,0,0,1,1.06,1.3,1.34,1.34,0,0,1-1.36,1.34h0a1.3,1.3,0,0,1-1.39-1.21V68Zm26.59-9.31a.1.1,0,0,1,.09-.11h.17l2.59,3.28V58.6a.1.1,0,0,1,.09-.11h.21a.1.1,0,0,1,.11.09v4a.11.11,0,0,1-.1.12h-.12l-2.64-3.41v3.23a.11.11,0,0,1-.11.11h-.22a.11.11,0,0,1-.11-.11h0Zm-1.54.07a.1.1,0,0,1,.09-.11h.26a.1.1,0,0,1,.11.09v4a.1.1,0,0,1-.09.11H168a.11.11,0,0,1-.11-.11h0Zm-4.94,3.42a.43.43,0,0,0,.08-.11s.11-.13.2,0a1.51,1.51,0,0,0,1,.44.73.73,0,0,0,.78-.65c0-.4-.35-.64-1-.94s-1-.56-1-1.23a1.11,1.11,0,0,1,1.21-1h0a1.63,1.63,0,0,1,1,.31.13.13,0,0,1,0,.18h0l-.06.11a.12.12,0,0,1-.14.08l0,0h0a1.62,1.62,0,0,0-.76-.27.71.71,0,0,0-.8.61v0c0,.41.31.63.78.83.78.34,1.28.63,1.28,1.32a1.16,1.16,0,0,1-1.29,1h0a1.9,1.9,0,0,1-1.22-.47.14.14,0,0,1-.06-.18v0m-4.12-3.49a.1.1,0,0,1,.09-.11H159l2.6,3.33V58.6a.1.1,0,0,1,.09-.11h.21a.1.1,0,0,1,.11.09v4a.11.11,0,0,1-.1.12h-.11l-2.65-3.41v3.23a.1.1,0,0,1-.09.11h-.21a.1.1,0,0,1-.11-.09v-4Zm-2.89,3.76a1.73,1.73,0,1,0-1.67-1.79v.07a1.71,1.71,0,0,0,1.67,1.72m0-3.85a2.14,2.14,0,1,1-2.08,2.15,2.1,2.1,0,0,1,2.05-2.15h0m-5,3.58a.39.39,0,0,0,.09-.11.1.1,0,0,1,.19,0,1.51,1.51,0,0,0,1,.44.73.73,0,0,0,.78-.65c0-.4-.35-.64-1-.94s-1-.56-1-1.23a1.11,1.11,0,0,1,1.21-1h0a1.77,1.77,0,0,1,1,.31.13.13,0,0,1,0,.18h0l-.07.11a.12.12,0,0,1-.14.08l0,0h0a1.74,1.74,0,0,0-.76-.27.7.7,0,0,0-.8.6.09.09,0,0,0,0,0c0,.41.31.63.79.83.78.34,1.28.63,1.28,1.32a1.17,1.17,0,0,1-1.27,1,1.9,1.9,0,0,1-1.22-.47.16.16,0,0,1-.06-.18v0m-3,0a.43.43,0,0,0,.08-.11c0-.05.11-.13.2,0a1.51,1.51,0,0,0,1,.44.73.73,0,0,0,.78-.65c0-.4-.35-.64-1-.94s-1-.56-1-1.23a1.11,1.11,0,0,1,1.21-1h0a1.63,1.63,0,0,1,1,.31.13.13,0,0,1,0,.18h0l-.06.11a.11.11,0,0,1-.15.07h0a1.62,1.62,0,0,0-.76-.27.71.71,0,0,0-.8.61v0c0,.41.3.63.78.83.78.34,1.28.63,1.28,1.32a1.15,1.15,0,0,1-1.27,1,1.9,1.9,0,0,1-1.22-.47.17.17,0,0,1,0-.23h0m-3.08-3.42a.1.1,0,0,1,.09-.11h2.29a.1.1,0,0,1,.11.09v.2a.1.1,0,0,1-.09.11h-2v1.45h1.65a.11.11,0,0,1,.11.11h0v.17a.11.11,0,0,1-.1.12h-1.66v1.52h1.93a.1.1,0,0,1,.11.09v.2a.1.1,0,0,1-.09.11H145a.1.1,0,0,1-.11-.09v-4Zm-2.74,0a.1.1,0,0,1,.09-.11h.24a.1.1,0,0,1,.11.09v3.67h1.65a.09.09,0,0,1,.1.1h0v.18a.1.1,0,0,1-.09.11h-2a.11.11,0,0,1-.11-.11h0Z"/></clipPath><linearGradient id="linear-gradient" x1="2096.71" y1="1225.56" x2="2097.15" y2="1225.56" gradientTransform="matrix(121.04, -57.76, -57.76, -121.04, -182899.42, 269548.84)" gradientUnits="userSpaceOnUse"><stop offset="0" stop-color="#e9b65b"/><stop offset="0.37" stop-color="#e9b65b"/><stop offset="0.53" stop-color="#b6b16f"/><stop offset="0.9" stop-color="#52a9af"/><stop offset="1" stop-color="#48a7c3"/></linearGradient><clipPath id="clip-path-7"><rect class="cls-1" x="3" y="42.84" width="78.83" height="67.22"/></clipPath></defs><g id="Layer_2" data-name="Layer 2"><g id="Everything_Else" data-name="Everything Else"><g class="cls-2"><rect class="cls-3" x="53.73" y="38.12" width="46.57" height="143.96"/><rect class="cls-4" x="62.33" y="32.8" width="218.94" height="292.9"/><g class="cls-5"><g class="cls-5"><g class="cls-6"><text class="cls-7" transform="translate(93.42 135.9) scale(0.97 1)">S</text><text class="cls-8" transform="translate(100.46 135.9) scale(0.97 1)">U</text><text class="cls-9" transform="translate(109.66 135.9) scale(0.97 1)">P</text><text class="cls-10" transform="translate(117.17 135.9) scale(0.97 1)">P</text><text class="cls-7" transform="translate(124.84 135.9) scale(0.97 1)">O</text><text class="cls-7" transform="translate(134.58 135.9) scale(0.97 1)">R</text><text class="cls-9" transform="translate(142.2 135.9) scale(0.97 1)">T</text><text class="cls-7" transform="translate(149.19 135.9) scale(0.97 1)">I</text><text class="cls-7" transform="translate(152.84 135.9) scale(0.97 1)">NG</text></g><g class="cls-6"><text class="cls-10" transform="translate(93.42 154.74) scale(0.97 1)">E</text><text class="cls-9" transform="translate(100.64 154.74) scale(0.97 1)">X</text><text class="cls-9" transform="translate(108.65 154.74) scale(0.97 1)">P</text><text class="cls-10" transform="translate(116.15 154.74) scale(0.97 1)">E</text><text class="cls-7" transform="translate(123.32 154.74) scale(0.97 1)">RI</text><text class="cls-10" transform="translate(134.68 154.74) scale(0.97 1)">E</text><text class="cls-7" transform="translate(141.85 154.74) scale(0.97 1)">N</text><text class="cls-7" transform="translate(151.17 154.74) scale(0.97 1)">C</text><text class="cls-7" transform="translate(159.36 154.74) scale(0.97 1)">I</text><text class="cls-7" transform="translate(163.02 154.74) scale(0.97 1)">NG</text></g><g class="cls-6"><text class="cls-11" transform="translate(125.17 103.72) scale(0.97 1)">T<tspan class="cls-12" x="1.82" y="0">h</tspan></text><text class="cls-13" transform="translate(128.77 103.72) scale(0.97 1)">i</text><text class="cls-13" transform="translate(129.62 103.72) scale(0.97 1)">s </text><text class="cls-13" transform="translate(131.85 103.72) scale(0.97 1)">l</text><text class="cls-14" transform="translate(132.71 103.72) scale(0.97 1)">es</text><text class="cls-13" transform="translate(135.72 103.72) scale(0.97 1)">so</text><text class="cls-14" transform="translate(138.88 103.72) scale(0.97 1)">n </text><text class="cls-13" transform="translate(141.6 103.72) scale(0.97 1)">i</text><text class="cls-13" transform="translate(142.45 103.72) scale(0.97 1)">s </text><text class="cls-13" transform="translate(144.69 103.72) scale(0.97 1)">d</text><text class="cls-14" transform="translate(146.49 103.72) scale(0.97 1)">e</text><text class="cls-13" transform="translate(148.13 103.72) scale(0.97 1)">s</text><text class="cls-13" transform="translate(149.48 103.72) scale(0.97 1)">ign</text><text class="cls-15" transform="translate(153.98 103.72) scale(0.97 1)">e</text><text class="cls-13" transform="translate(155.62 103.72) scale(0.97 1)">d </text><text class="cls-13" transform="translate(158.31 103.72) scale(0.97 1)">s</text><text class="cls-16" transform="translate(159.65 103.72) scale(0.97 1)">pe</text><text class="cls-14" transform="translate(163.13 103.72) scale(0.97 1)">c</text><text class="cls-17" transform="translate(164.76 103.72) scale(0.97 1)">i</text><text class="cls-17" transform="translate(165.58 103.72) scale(0.97 1)">ﬁ</text><text class="cls-14" transform="translate(167.51 103.72) scale(0.97 1)">c</text><text class="cls-16" transform="translate(169.14 103.72) scale(0.97 1)">a</text><text class="cls-13" transform="translate(170.93 103.72) scale(0.97 1)">l</text></g><rect class="cls-18" x="93.18" y="99.25" width="28.62" height="6.87"/><g class="cls-6"><text class="cls-19" transform="translate(96.2 103.94) scale(0.97 1)">C</text><text class="cls-20" transform="translate(98.76 103.94) scale(0.97 1)">E</text><text class="cls-21" transform="translate(101.04 103.94) scale(0.97 1)">C</text><text class="cls-22" transform="translate(103.56 103.94) scale(0.97 1)"> </text><text class="cls-23" transform="translate(104.49 103.94) scale(0.97 1)">L</text><text class="cls-24" transform="translate(106.49 103.94) scale(0.97 1)">E</text><text class="cls-20" transform="translate(108.8 103.94) scale(0.97 1)">SSO</text><text class="cls-25" transform="translate(116.09 103.94) scale(0.97 1)">N</text></g><g class="cls-26"><g class="cls-27"><g class="cls-28"><polygon class="cls-29" points="120.34 127.37 242.35 67.28 211.25 0 89.24 60.09 120.34 127.37"/></g></g></g><line class="cls-30" x1="93.62" y1="77.08" x2="136.51" y2="77.08"/></g></g></g><circle class="cls-31" cx="93.6" cy="82.11" r="70"/><g class="cls-32"><path class="cls-33" d="M3.93,42.84c0,32.89,34.26,59.58,76.53,59.58"/><polyline class="cls-33" points="72.98 95.47 80.46 102.43 72.98 109.38"/></g><circle cx="3.5" cy="40.61" r="3.5"/></g></g></svg>