<svg xmlns="http://www.w3.org/2000/svg" viewBox="0 0 124.07 82.5"><defs><style>.cls-1{fill:#f16268;stroke:#e8e8e8;stroke-miterlimit:10;stroke-width:0.5px;}</style></defs><g id="Layer_2" data-name="Layer 2"><g id="Everything_Else" data-name="Everything Else"><path class="cls-1" d="M123.71,12.23l-.47-1.14a1.51,1.51,0,0,0-1-.9,1.52,1.52,0,0,0-.91-.91L120.21,6a1.59,1.59,0,0,0-.73-.86l-1-.56a1.58,1.58,0,0,0-.73-.18,1.5,1.5,0,0,0-1,.34,1.54,1.54,0,0,0-.9,0l-.52.14a1.56,1.56,0,0,0-1.08,1l-.59,2a1,1,0,0,0-.06.35l-.17,3-.29.8-.56.34a1.56,1.56,0,0,0-.71,1l-4.8,1.35-2,.09a1.56,1.56,0,0,0-1.07.5L102.43,17a1.58,1.58,0,0,0-.41,1l-.46.51a1.52,1.52,0,0,0-.36,1.34l.11.57-1.17.65-1.61,0c-.53,0-.61.06-1.9,1A1.54,1.54,0,0,0,96.15,24l.17.39-1.46,1.7-1.38.72c-.2.09-.23.11-1.37,1.13a1.57,1.57,0,0,0-1,.33l-.08,0,.06-.23.66-.86a1.52,1.52,0,0,0,.32-.87l.06-1.47a1.61,1.61,0,0,0-.08-.57l-.81-2.39a1.56,1.56,0,0,0-.95-1l-.35-.12a1.57,1.57,0,0,0-.3-1.28,1.56,1.56,0,0,0-.2-1.15l-.55-.86a1.56,1.56,0,0,0-.89-.66l-.91-.25-.31-.29a1.61,1.61,0,0,0-1.08-.43,1.5,1.5,0,0,0-1.2-.87l-.73-.09a1.51,1.51,0,0,0-.67-.53l-.74-.31a1.51,1.51,0,0,0-.59-.11,1.54,1.54,0,0,0-.89.28l-.23.16-.44,0-.24-.2a1.54,1.54,0,0,0-.87-2.57l-.5-.09a1.55,1.55,0,0,0-1.24.32l-.81.67a1.55,1.55,0,0,0-1.43-2.14h-.23a1.51,1.51,0,0,0-.85-.27h-.86a1.75,1.75,0,0,0-.89-.26,1.56,1.56,0,0,0-.94.31l-.24-.21a1.52,1.52,0,0,0-1.16-.38,1.59,1.59,0,0,0-1.06-.6l-1.1-.14a1.61,1.61,0,0,0-1,.23l-.42-.13-.08-.62a1.56,1.56,0,0,0-.87-1.2l-.54-.26a1.57,1.57,0,0,0-1.22,0,1.61,1.61,0,0,0-1,1C46.2,8.7,24.57,4.3,12.59.33c-1-.3-2,.22-2,1.76L9,1A1.55,1.55,0,0,0,6.54,2.16c-.13,2.69-.18,3.72-.16,4.2S6.1,8,5.89,9.05l-1.6,4.88L2.11,17.61a1.49,1.49,0,0,0-.21.77l0,2.69-.42,2.28L.5,24.8A1.51,1.51,0,0,0,.3,26l.46,1.84a1.54,1.54,0,0,0-.3.85,6.79,6.79,0,0,0,.06,2.35,6.29,6.29,0,0,0,.72,1.42v.85a1.65,1.65,0,0,0,.14.65,9.11,9.11,0,0,0,.55,1l-.19,1.55A1.58,1.58,0,0,0,2.32,38a1.53,1.53,0,0,0-.14,1.44c.55,1.33,1.38,3.35,1.7,4.14,0,.25-.1.61-.13.81a5.38,5.38,0,0,0-.13.87c0,1.15.66,1.44,3,2.25l.77,1.16a1.57,1.57,0,0,0,.79.6,1.54,1.54,0,0,0,1.42,1.27l.67.93c.08.4.2,1.24.28,1.94A1.55,1.55,0,0,0,12,54.73l4,.39a1.56,1.56,0,0,0,.63.74l8.05,4.92c.32.18.46.27,7.91,1.38A1.54,1.54,0,0,0,34.27,61l1.68.18c1.35,1.57,2.72,3.2,3.22,3.82,0,.35.09,1,.13,1.46A1.51,1.51,0,0,0,40,67.64l3.79,2.59a1.54,1.54,0,0,0,2.16-.42l1-1.43,1.06,0c.56.59,1.11,1.19,1.35,1.46s.45,1.32.56,1.68.24.79,2.22,2.89a3.58,3.58,0,0,0,.13,1c.33.88.71,2,.77,2.17h0c.38,1.45,3,2.09,3,2.1a7,7,0,0,0,1.4.11l.37.3a1.53,1.53,0,0,0,1.5.26L60,80A1.54,1.54,0,0,0,60.92,78l-.59-1.32-.13-1.35a2,2,0,0,0,.41-1.49l1.5-1.46a1.25,1.25,0,0,0,.43-.07l.92-.29a1.68,1.68,0,0,0,.58-.33l2.22-2s.33-.1.47-.16l1.32-.58,4,.37A1.56,1.56,0,0,0,73,69l.83.59a1.06,1.06,0,0,0,.2.12l1.09.55a1.52,1.52,0,0,0,1.64-.16A1.51,1.51,0,0,0,78.07,70l.18.13c.68.67,1.37.5,2.25.12l.17-.07c1.12-.32,1.76-1.79,0-3.1a2.26,2.26,0,0,0,.47-.78h.79a1.49,1.49,0,0,0,1.28.17l2.71-.84,1.2.26,1.27,1.21a1.56,1.56,0,0,0,2.06.06c.06,0,1.21-1,1.29-1.06,2.15,2,2.18,2,2.55,2.11a.87.87,0,0,0,.24.06c-.13,1.52-.13,1.64-.13,1.7A1.5,1.5,0,0,0,95,71.15a1.53,1.53,0,0,0,.13,1.32L96,73.86a1.55,1.55,0,0,0,1,.71l1.15,2a1.55,1.55,0,0,0,1.28.77h0l1.22,1.37a1.52,1.52,0,0,0,1.63.44l1.32-.43a1.56,1.56,0,0,0,.94-.87l.3-.72a1.41,1.41,0,0,0,.11-.61l0-4.35a1.45,1.45,0,0,0-.21-.76l-1.58-2.71L103,67.49a1.51,1.51,0,0,0-.31-.87l-2.15-2.82-1-2.48L100,59l.62-1.53,3-3a1.59,1.59,0,0,0,.42-.85l.12-.86.23-.33.86-.18a1.54,1.54,0,0,0,1.2-1.2c.07-.34.12-.58.15-.76l.67-.84.67-.36a1.54,1.54,0,0,0,.36-.27l.91-.91a1.53,1.53,0,0,0,.38-1.58l.45-.41a1.57,1.57,0,0,0,.47-1.38l-.12-.76a1.55,1.55,0,0,0-.29-.68,1.53,1.53,0,0,0-.3-1.43,10.71,10.71,0,0,0-.53-1.46h0l.91-2.51a1.58,1.58,0,0,0,.09-.42l.13-1.8a1.82,1.82,0,0,0-.11-.69,1.51,1.51,0,0,0,.11-.22L111,33a1.57,1.57,0,0,0,1.29.06,1.52,1.52,0,0,0,1-1.35l.08-1.41a1.4,1.4,0,0,0-.06-.5L116,27.9a1.54,1.54,0,0,0,.65-1.35l1.65-1c.62-.33.74-.78,1-1.94a1.55,1.55,0,0,0-.47-1.52l-.63-.57a1.54,1.54,0,0,0-.11-.79l-.22-.51.27-.95c0-.06,0-.12,0-.17l.1-.64c.42-.31,1-.72,1.19-.87a1.77,1.77,0,0,0,.8-1.27l.42-.5a1.46,1.46,0,0,0,.91-.38L123.3,14A1.55,1.55,0,0,0,123.71,12.23Zm-3.14,2.08-.57,0-1.17,1.36a5.74,5.74,0,0,1-.16.66s-1.83,1.32-1.83,1.32l-.2,1.26-.42,1.47.43,1s-.38.59-.36.59,1.49,1.32,1.49,1.32-.23.93-.26.95l-2,1.19-2,.72-2,1.76-.07.34,2.74-1.8.91.22-3,2.15-1.06.38.83,1-.07,1.41-1.53-1.43-.12-.79-1,.14-.37-.64.42-2-.67-.19-.82-1.22-1.48.1,1.26,1.29V29.4l.67-.19.64.78-.12.41,1.31,1.22-1,2.32-1.41-.81.29.81,1,1.41-.12,1.8-.91,2.51-.28-.46.15-1.67-1.36-1-.22-2.15-.62-.38.25,2.2,1,1.51.2,2.58.89.45.44,1.13-.42.26.77.52-1.08,1,.79.41h.54l.12.76-1.13,1.06-.72.12,1,.86-.92.91-.93.5s-1.14,1.38-1.14,1.46-.2,1-.2,1l-1.48.31-.77,1.15-.17,1.19-3.16,3.25-.79,2L98,61.48l1.21,3.09,2.27,3,.08,1.6,1.78,3,0,4.35-.29.72-1.31.43-1.66-1.87-.67,0L98,73.27l-.72-.21-.84-1.39.49-1.34s-1-.26-1-.4.17-2.23.17-2.23l-.49-.86-.86-.14c-.08,0-2.57-2.33-2.57-2.33L91,64.64l-1.54,1.29-1.58-1.51-2-.43-3.08,1-.57-1.41-.4.33.08.84-1.93,0-.94.48-1.14.21-1-.43-.27,1,.94-.12.44-.26.5.58.91-.81.28.42-1.19,1.58s1.83,1.27,1.75,1.27-.78.34-.89.34h0c0-.08-1.61-1.13-1.61-1.13l-.47.79-.84-.36-.62.6-1.08-.55-2.08-1.48-.49.45,0,.39-4.37-.41L66.1,68l-.79-.65-.55.41.45.67L63,70.5l-.91.29-.52-.07-2.47,2.39,0,1.15-.45.52L58.8,77l.7,1.55-.78.28-.78-.64s-1.44,0-1.61-.08a10.42,10.42,0,0,1-1.89-1c0-.12-.82-2.35-.82-2.35l-.08-1.12s-2.18-2.3-2.18-2.42S50.7,69.2,50.62,69s-2.06-2.23-2.06-2.23l-2.55,0L44.61,69l-3.79-2.59s-.12-1.79-.2-2-3.91-4.66-3.91-4.66L33,59.32l-.21,1.32s-7.16-1.08-7.36-1.2l-8-4.9,0-.83-5.32-.52a21,21,0,0,0-.4-2.47c-.12-.12-1.36-1.87-1.36-1.87L9.72,49v-.92l-1-.28L7.63,46.18a19.34,19.34,0,0,1-2.47-1c0-.11.33-1.79.29-1.9l-1.86-4.5.87-1-1.19-1L3.47,35l.45-.28L3.84,34a4.77,4.77,0,0,1-.57.2,6.34,6.34,0,0,1-.5-.92V32.05A13.63,13.63,0,0,1,2,30.62a13.94,13.94,0,0,1,0-1.84l.45-.55-.65-2.59L2.9,23.93l.49-2.71,0-2.82L5.7,14.58,7.39,9.44S8,6.49,7.92,6.37s.17-4.14.17-4.14l3.25,2.31,0,1-.54.87.41.64L12,5.14l.12-3.34c12.39,4.07,34.36,8.63,51.6,7.46l.45-1.06.54.25L64.91,10l2.08.68.58-.4,1.1.13.85,1,.55-.35.93.82.56-.06.7-.48.51.26H74l.3.27h.8l-1.34.76L70,16h.88l1.71-.88.14.43L72.6,16l1.19.22,2.61-1.61L78.31,13l.49.08L77.23,15l.06.4,1-.6,1.32,1.07,1.47.13.69-.49.75.31.33.54,1.45.18.36.83,1.06.07.58.55,1.28.35.55.86-.31.28.6,1-.15,1L87.3,22.7l0,.91.48.24,1.27-1.71.66.23.81,2.39-.07,1.47-.85,1.1-.51,2,1,.19,1.17.7.76-.7h.67s1.42-1.27,1.47-1.29l1.67-.87,2.28-2.67-.56-1.28s1-.71,1-.71l2,0,2.48-1.4-.33-1.67.81-.89,0-.62,1.55-1.69,2.19-.1,5.89-1.66.18-.91,1-.62.56-1.52.18-3.22.6-2,.51-.15.27.78,1.2-1,1,.56,1.38,4,.65.17.45,1,.59,0,.46,1.14Zm-38,3.6c-.07,0-1.48.54-1.48.54l-.8.2-1.41,2.92v.62l1.71-2.52-.2,1.24-.93,4s.26,2.62.27,2.67.79,2.61.79,2.61l.46.32S83.07,29,83.05,29s-.31-3-.33-3-.83-2.31-.83-2.45.64-3,.64-3l.9-.46.78-2.11-.83.29A8.55,8.55,0,0,0,82.56,17.91ZM28.88,77.71l-1.08-.65-2.27-2.89a1.54,1.54,0,0,0-1.81-.47l-.66.27-.51-.52a1.47,1.47,0,0,0-.7-.41h0V63.15a1.55,1.55,0,0,0-.78-1.34l-1-.56a1.52,1.52,0,0,0-1-.18l-.59.07-2.23-.65-1.48-.86a1.55,1.55,0,0,0-.78-.21H12.08a1.48,1.48,0,0,0-.91.3L9.31,61.09h-1a1.55,1.55,0,0,0-1.13,2.6l.18.19-.86.21a1.56,1.56,0,0,0-1.15,1.23,9.75,9.75,0,0,0-.23,1.55A1.54,1.54,0,0,0,6,68.32a15.69,15.69,0,0,0-1.54,1.19c-.77.74-.57,1.56.13,3.83a1.57,1.57,0,0,0,.93,1l.12,0a1.67,1.67,0,0,0,0,.19,1.59,1.59,0,0,0,1.31,1.55L4,77.09a1.55,1.55,0,0,0,.7,3l3.38-.48a1.5,1.5,0,0,0,.55-.19l3.46-2,.15-.1.82-.6a1.55,1.55,0,0,0,.27-.24,1.59,1.59,0,0,0,.43.06c.12,0,1.87-.37,2.07-.41a1.6,1.6,0,0,0,1-.52l.11-.14.61.51a1.53,1.53,0,0,0,1.22.34l.64-.09.26.11c.07,0,1,.25,1,.25l1.67,1.1c.4,1.19.76,1.44,1,1.6l.36.35c.21.21.37.36.52.49a1.5,1.5,0,0,0,.39.64l1,1a1.57,1.57,0,0,0,1.08.43c.15,0,1.86-.51,1.86-.51a1.55,1.55,0,0,0,1.08-1.47V79A1.52,1.52,0,0,0,28.88,77.71Zm-.8,2.56-1.4.44-1-1s-.21-.56-.33-.6-.91-.88-1.14-1a4.77,4.77,0,0,1-.55-1.32L21.28,75.2l-1-.24-.66-.28-1.07.16-1.2-1-1.69-.12s.12.92,0,.92-1.89.4-1.89.4l1.15-1.68-.41-.48-2.85,2.4.5.23-.83.6-3.46,2-3.38.48,3.38-1.12,1.48-1,.13-.56.66-.71-1.61.43-.58-1a6.77,6.77,0,0,1-.78,0c0-.12.16-1.2.16-1.2l-1.27-.48a12.58,12.58,0,0,1-.54-2.27c.12-.12,1.73-1.32,1.73-1.32l.87.24,1.56-.64-.08-1.51-1,.48a15.33,15.33,0,0,1-2-1c0-.12.21-1.28.21-1.28l1.77-.44,0,.88s.79.12.91.12S10,65,10,65s-.74-.32-.78-.44S9,63.43,9,63.43l-.75-.8H9.82L12.09,61H14l1.65,1,2.72.8.91-.12,1,.56V74.2l1.15.32,1.24,1.27,1.64-.68,2.44,3.12,1.32.79v1.25Zm19.84-2.86a1.54,1.54,0,0,0-.78-1c-1.09-.58-1.64-.86-2-1a1.5,1.5,0,0,0-.82-1.53l-1.49-.75A1.33,1.33,0,0,0,42,73l-1.2-.42a1.37,1.37,0,0,0-.89,0l-.49-.65a1.56,1.56,0,0,0-1.23-.61h-.58A1.54,1.54,0,0,0,36,72.85v.52a1.54,1.54,0,0,0,1.23,1.51l1.15.24a.81.81,0,0,0,.42,0,1.53,1.53,0,0,0,1,.86,1.58,1.58,0,0,0,1,1.08,1.42,1.42,0,0,0,1-.06,1.07,1.07,0,0,0,.72.27,1.61,1.61,0,0,0-.26.6,1.55,1.55,0,0,0,.34,1.28l-.14.91a1.54,1.54,0,0,0,.82,1.61l.79.4a1.54,1.54,0,0,0,2.08-.69l.14-.28a2.8,2.8,0,0,0,1.14-.44l.74-.61C49.09,79.43,49.19,78.22,47.92,77.41Zm-4.79-1.83a0,0,0,0,0,0,0,1.57,1.57,0,0,0-.07-.57l.59.3Zm-5.57-2.21v-.52h.58l.58.76Zm9,6.1-1.24.32-.45.92-.78-.4.24-1.58-.45-.57.78-.48-.33-.92c.17,0,2.06,1,2.06,1v.48l.91.59Zm-12.78-9.8H33a1.55,1.55,0,0,0-1.55,1.55v.55A1.56,1.56,0,0,0,33,73.32h.78a1.56,1.56,0,0,0,1.55-1.55v-.55A1.55,1.55,0,0,0,33.81,69.67Zm0,2.1H33v-.55h.78Z"/></g></g></svg>