<svg id="Everything_Else" data-name="Everything Else" xmlns="http://www.w3.org/2000/svg" viewBox="0 0 400 368"><defs><style>.cls-1{fill:#f6d449;}.cls-2{fill:none;}.cls-3,.cls-4{fill:#fff;}.cls-4{stroke:#221f20;}</style></defs><path class="cls-1" d="M37.88,186.07c0,98.8,80.14,178.89,179,178.89s179-80.09,179-178.89Z"/><path class="cls-2" d="M38.12,186.07c0,98.88,80.21,179,179.16,179s179.15-80.16,179.15-179Z"/><path class="cls-3" d="M395.88,183c0-98.8-80.15-178.89-179-178.89S37.88,84.2,37.88,183Z"/><path class="cls-4" d="M10,126.82H7.26a.54.54,0,0,1-.52-.55v-1.82a.88.88,0,0,1,.17-.44l4.23-3.3h2.67a.54.54,0,0,1,.52.55v18.6a.55.55,0,0,1-.52.55H10.59a.55.55,0,0,1-.55-.55Z"/><path class="cls-1" d="M5.68,237.28c1.68-2.2,6-8,7.68-10.63a4.32,4.32,0,0,0,.75-2.2c0-1.1-.93-2.09-2.55-2.09a4.13,4.13,0,0,0-2.81,1.45.56.56,0,0,1-.81,0L6.17,222a.53.53,0,0,1,0-.75,8.31,8.31,0,0,1,5.79-2.84c4.14,0,6.57,2.64,6.57,5.85A7.28,7.28,0,0,1,17.38,228c-.92,1.65-3.3,4.75-4.66,6.66h5.1a.57.57,0,0,1,.55.55v2.61a.58.58,0,0,1-.55.55H6.23a.55.55,0,0,1-.55-.55Z"/></svg>