<svg xmlns="http://www.w3.org/2000/svg" viewBox="0 0 17.15 14"><defs><style>.cls-1{fill:none;stroke:#f16268;stroke-miterlimit:10;}.cls-2{fill:#f16268;}</style></defs><g id="Layer_2" data-name="Layer 2"><g id="Everything_Else" data-name="Everything Else"><path class="cls-1" d="M10.8,3.72l-.42-2.16a1.35,1.35,0,0,0-1.55-1A1.34,1.34,0,0,0,7.78,2,7.62,7.62,0,0,1,2.86,4.8l-1.28.25a1.34,1.34,0,0,0-1,1.58L1,8.92A1.32,1.32,0,0,0,2.55,10L3,9.88,4.28,13a.75.75,0,0,0,.83.45l1.43-.29a.72.72,0,0,0,.54-1L6,9.53a7.36,7.36,0,0,1,3.47,1,1.31,1.31,0,0,0,1.52.94,1.34,1.34,0,0,0,1-1.55l-.43-2.15a2.05,2.05,0,0,0,1.19-2.32A2.05,2.05,0,0,0,10.8,3.72Z"/><path class="cls-2" d="M16.71,4.24l-2.47.49a.38.38,0,0,0-.29.43.37.37,0,0,0,.44.29L16.86,5a.37.37,0,0,0-.15-.73Z"/><path class="cls-2" d="M16.78,7.87l-2.43-.6a.37.37,0,1,0-.18.72l2.43.59a.45.45,0,0,0,.16,0,.38.38,0,0,0,.29-.27A.35.35,0,0,0,16.78,7.87Z"/><path class="cls-2" d="M13.38,3.16a.51.51,0,0,0,.15-.07l2-1.47a.37.37,0,0,0-.44-.6l-2,1.48a.37.37,0,0,0,.29.66Z"/><line class="cls-1" x1="10.69" y1="3.17" x2="11.76" y2="8.59"/></g></g></svg>