<svg xmlns="http://www.w3.org/2000/svg" viewBox="0 0 112 78.67"><defs><style>.cls-1{fill:none;stroke:#231f20;stroke-miterlimit:10;}</style></defs><g id="Layer_2" data-name="Layer 2"><g id="Everything_Else" data-name="Everything Else"><path class="cls-1" d="M109.85,7.43h-5.77V2.15A1.69,1.69,0,0,0,103.59,1,1.65,1.65,0,0,0,102.42.5H63.14a8.31,8.31,0,0,0-7.14,4A8.3,8.3,0,0,0,48.94.52H9.58A1.66,1.66,0,0,0,7.92,2.18V7.43H2.15A1.66,1.66,0,0,0,.5,9.09V76.51a1.65,1.65,0,0,0,1.65,1.66h107.7a1.69,1.69,0,0,0,1.17-.49,1.65,1.65,0,0,0,.48-1.17V9.12A1.6,1.6,0,0,0,111,7.93a1.63,1.63,0,0,0-1.17-.5ZM63.08,2.94h38.55V68.6H63.1a8.29,8.29,0,0,0-5.87,2.46V8.81A5.85,5.85,0,0,1,63.08,3Zm-52.78,0H49a5.82,5.82,0,0,1,5.81,5.85v.07h0V71.07a8.28,8.28,0,0,0-5.87-2.45H10.37Zm-7.36,7h5V69.41a1.66,1.66,0,0,0,1.66,1.66H48.85a5.87,5.87,0,0,1,5.73,4.64H2.94ZM109.06,75.72H57.36a5.88,5.88,0,0,1,5.72-4.64h39.28A1.66,1.66,0,0,0,104,69.43V9.89h5Z"/></g></g></svg>