<svg xmlns="http://www.w3.org/2000/svg" viewBox="0 0 23.87 23.87"><defs><style>.cls-1{fill:#fff;}</style></defs><g id="Layer_2" data-name="Layer 2"><g id="Header"><path class="cls-1" d="M11.93,0a11.14,11.14,0,0,0-1.74.13.52.52,0,0,0-.44.39l-.7,2.4a9.22,9.22,0,0,0-1.45.6L5.41,2.31a.55.55,0,0,0-.59,0A11.42,11.42,0,0,0,2.35,4.82a.55.55,0,0,0,0,.59L3.52,7.6a9.22,9.22,0,0,0-.6,1.45l-2.4.7a.52.52,0,0,0-.39.44,11.78,11.78,0,0,0,0,3.49.54.54,0,0,0,.39.44l2.4.69a8.84,8.84,0,0,0,.6,1.45l-1.21,2.2a.53.53,0,0,0,0,.58,11,11,0,0,0,1.14,1.33,13,13,0,0,0,1.33,1.15.55.55,0,0,0,.59,0l2.19-1.2a9.18,9.18,0,0,0,1.45.59l.7,2.41a.54.54,0,0,0,.44.39,11.78,11.78,0,0,0,3.49,0,.55.55,0,0,0,.44-.39l.69-2.41a8.81,8.81,0,0,0,1.45-.59l2.2,1.2a.53.53,0,0,0,.58,0A12.14,12.14,0,0,0,21.52,19a.53.53,0,0,0,0-.58l-1.2-2.2a8.81,8.81,0,0,0,.59-1.45l2.41-.69a.55.55,0,0,0,.39-.44,11.78,11.78,0,0,0,0-3.49.54.54,0,0,0-.39-.44l-2.41-.7a9.18,9.18,0,0,0-.59-1.45l1.2-2.19a.55.55,0,0,0,0-.59,13,13,0,0,0-1.15-1.33A11,11,0,0,0,19,2.35a.53.53,0,0,0-.58,0l-2.2,1.21a8.84,8.84,0,0,0-1.45-.6L14.12.52a.54.54,0,0,0-.44-.39A11.18,11.18,0,0,0,11.93,0Zm0,1.08a10.53,10.53,0,0,1,1.26.1l.67,2.29a.53.53,0,0,0,.37.37,8.65,8.65,0,0,1,1.8.75.55.55,0,0,0,.53,0l2.09-1.15a10.53,10.53,0,0,1,1,.82,10.32,10.32,0,0,1,.82,1l-1.15,2.1a.53.53,0,0,0,0,.52A8.25,8.25,0,0,1,20,9.64a.53.53,0,0,0,.37.37l2.29.67a10.36,10.36,0,0,1,.09,1.25,10.52,10.52,0,0,1-.09,1.26l-2.29.67a.53.53,0,0,0-.37.37,8.18,8.18,0,0,1-.76,1.8.55.55,0,0,0,0,.53l1.15,2.09a8.57,8.57,0,0,1-1.77,1.77l-2.09-1.15a.55.55,0,0,0-.53,0,8.18,8.18,0,0,1-1.8.76.53.53,0,0,0-.37.37l-.67,2.29a10.52,10.52,0,0,1-1.26.09,10.36,10.36,0,0,1-1.25-.09L10,20.4A.53.53,0,0,0,9.64,20a8.25,8.25,0,0,1-1.81-.76.53.53,0,0,0-.52,0l-2.1,1.15a10.32,10.32,0,0,1-1-.82,10.53,10.53,0,0,1-.82-1l1.15-2.09a.55.55,0,0,0,0-.53,8.65,8.65,0,0,1-.75-1.8.53.53,0,0,0-.37-.37l-2.29-.67a10.53,10.53,0,0,1-.1-1.26,10.36,10.36,0,0,1,.1-1.25L3.47,10a.53.53,0,0,0,.37-.37,8.74,8.74,0,0,1,.75-1.81.53.53,0,0,0,0-.52L3.44,5.21a12.12,12.12,0,0,1,.82-1,12.12,12.12,0,0,1,1-.82l2.1,1.15a.53.53,0,0,0,.52,0,8.74,8.74,0,0,1,1.81-.75A.53.53,0,0,0,10,3.47l.67-2.29A10.36,10.36,0,0,1,11.93,1.08Zm0,5.43a5.43,5.43,0,1,0,5.43,5.42A5.42,5.42,0,0,0,11.93,6.51Zm0,1.08a4.34,4.34,0,1,1-4.34,4.34A4.33,4.33,0,0,1,11.93,7.59Z"/></g></g></svg>