<svg xmlns="http://www.w3.org/2000/svg" viewBox="0 0 13.39 12"><defs><style>.cls-1{fill:#f16268;}</style></defs><g id="Layer_2" data-name="Layer 2"><g id="Everything_Else" data-name="Everything Else"><path class="cls-1" d="M3.56,1a2.46,2.46,0,0,1,1.79.79l1,1A.55.55,0,0,0,6.7,3a.52.52,0,0,0,.37-.16l1-1a2.42,2.42,0,0,1,3.57,0,2.78,2.78,0,0,1,0,3.8L6.69,10.73,1.78,5.59a2.77,2.77,0,0,1,0-3.79A2.43,2.43,0,0,1,3.56,1Zm0-1A3.47,3.47,0,0,0,1,1.08,3.8,3.8,0,0,0,1,6.3l5.28,5.54a.52.52,0,0,0,.37.16.51.51,0,0,0,.37-.16C8.83,10,10.59,8.15,12.35,6.31a3.79,3.79,0,0,0,0-5.22,3.48,3.48,0,0,0-5,0l-.61.63-.6-.64A3.49,3.49,0,0,0,3.56,0Z"/></g></g></svg>