<svg id="Everything_Else" data-name="Everything Else" xmlns="http://www.w3.org/2000/svg" viewBox="0 0 155 120"><defs><style>.cls-1,.cls-2{fill:none;}.cls-2{stroke:#f06268;stroke-miterlimit:10;}</style></defs><path class="cls-1" d="M91.85,35A14.61,14.61,0,0,0,77.23,20.36h0A14.62,14.62,0,1,0,91.85,35Z"/><path class="cls-2" d="M86.79,51.28A19,19,0,0,0,96.11,35v-.08A19,19,0,1,0,67.51,51.32M62.61,35A14.62,14.62,0,0,1,77.23,20.36h0A14.62,14.62,0,1,1,62.61,35Z"/><path class="cls-2" d="M67.51,51.32A31,31,0,0,0,46.23,80.57v4.78h4.38V80.57a26.62,26.62,0,0,1,49.56-13.3L104,65.09A31,31,0,0,0,86.79,51.28"/><polygon class="cls-2" points="130.23 77.32 111.96 77.32 111.96 59.08 107.58 59.08 107.58 77.32 89.33 77.32 89.33 81.7 107.58 81.7 107.58 99.97 111.96 99.97 111.96 81.7 130.23 81.7 130.23 77.32"/></svg>