<svg xmlns="http://www.w3.org/2000/svg" viewBox="0 0 86.58 92.66"><defs><style>.cls-1{fill:#55a486;}</style></defs><g id="Layer_2" data-name="Layer 2"><g id="Everything_Else" data-name="Everything Else"><path class="cls-1" d="M49.44,30.46a.72.72,0,0,1-.29-.2.65.65,0,0,1,.09-.9L85.55.14a.63.63,0,0,1,.89.1.65.65,0,0,1,.14.44L86,38.74a.64.64,0,0,1-.64.63h-.14l-12.6-2.54L65,45.21a.64.64,0,0,1-.34.21.63.63,0,0,1-.77-.46L61.29,34.38,49.44,30.46ZM66.57,46a.63.63,0,0,0-.87.29.65.65,0,0,0,.28.84l.21.11.2.11.2.11.2.12.19.11.19.12.18.12.18.12.18.12.17.12.17.13a.64.64,0,0,0,1-.33.65.65,0,0,0-.23-.69l-.19-.14-.19-.13L68.25,47l-.2-.13-.2-.13-.2-.13-.21-.13-.21-.12L67,46.28l-.22-.12L66.57,46ZM.57,91.39a.64.64,0,0,0-.48,1,.67.67,0,0,0,.62.31h0l.18,0,.19,0,.18,0,.18,0,.18,0,.18,0,.18,0,.17,0,.18,0,.17,0,.17,0,.17,0,.17,0,.17,0h.06A.64.64,0,0,0,3,91H3l-.16,0-.16,0-.17,0-.16,0-.17,0L2,91.2l-.17,0-.17,0-.17,0-.17,0-.18,0-.18,0-.17,0-.18,0Zm6.06-1.32a.64.64,0,0,0,.44,1.2l.07,0,.14,0,.13,0,.13,0,.13,0L7.8,91l.13-.06.13-.05.12,0,.13-.06.12,0,.12-.06.12,0,.12-.06.12-.06L9,90.43l.11-.05.12-.06.11-.06.11-.06a.64.64,0,1,0-.6-1.12l-.11,0-.1.06-.11,0-.1.05-.11.06-.11.05-.11,0L8,89.51l-.12,0-.11,0-.12,0-.11,0-.12.05-.12,0-.12,0-.12.05L7,90l-.13,0-.12,0-.08,0Zm5.13-3.15a.64.64,0,0,0,.93.88l0,0,.07-.07.08-.08.07-.08.07-.08.07-.08.07-.08.06-.08.07-.09.07-.08.06-.08.06-.08.07-.08.06-.09.06-.08.06-.08.06-.09.05-.08.06-.09L14,86.2l0-.09.06-.08,0-.09.05-.09.05-.08,0-.09,0-.05A.64.64,0,1,0,13.19,85l0,0,0,.08,0,.07,0,.08,0,.07-.05.08,0,.07-.05.08-.05.07,0,.08-.06.07,0,.08-.05.07-.05.07-.06.08-.06.07-.05.07-.06.07-.06.07-.06.08-.06.07-.06.07-.06.07-.07.07-.06.07-.07.07,0,0Zm2.56-5.3a.64.64,0,0,0,.79.71.62.62,0,0,0,.47-.53v-.15l0-.09V79.15a.64.64,0,1,0-1.27.07v2.4Zm-.51-6a.64.64,0,0,0,1,.33.65.65,0,0,0,.23-.69l0-.07,0-.09L15,75l0-.08,0-.09,0-.09,0-.08,0-.09,0-.09,0-.08,0-.09,0-.08,0-.09,0-.08,0-.09,0-.08,0-.09,0-.08-.09-.22,0-.14-.05-.14,0-.14-.05-.14,0-.13a.64.64,0,1,0-1.21.42l.05.14,0,.14.05.14.06.15,0,.14.08.22,0,.08,0,.08,0,.08,0,.08,0,.08,0,.08,0,.08,0,.08,0,.08,0,.08,0,.08,0,.08,0,.09,0,.08,0,.08,0,.08,0,.08,0,.08ZM12,69.45a.64.64,0,0,0,1.25-.26v0l0-.12,0-.12,0-.12,0-.13,0-.12,0-.12,0-.12,0-.12,0-.12,0-.12,0-.12V67.7l0-.12,0-.12v-.23l0-.12v-.36a.64.64,0,0,0-.95-.5.63.63,0,0,0-.32.61V67l0,.12v.25l0,.12v.12l0,.13,0,.12V68l0,.12,0,.13,0,.12,0,.13,0,.13,0,.13,0,.12,0,.13,0,.13,0,.13,0,.13v0ZM11.6,62.9a.64.64,0,0,0,.83.69.61.61,0,0,0,.43-.52l0-.09v-.19l0-.1V62.6l0-.1v-.09l0-.1,0-.09v-.09L13,62l0-.1,0-.09,0-.09,0-.09,0-.09,0-.09,0-.09,0-.08,0-.09,0-.09,0-.09,0-.08,0-.09,0-.08,0-.11a.64.64,0,0,0-.68-.83.62.62,0,0,0-.53.44l0,.12,0,.1,0,.09,0,.1,0,.09,0,.1L12,61l0,.1,0,.1,0,.1,0,.1,0,.09,0,.1,0,.1,0,.1v.1l0,.11,0,.1,0,.1,0,.1v.11l0,.1,0,.1v.21l0,.09ZM14,56.72a.64.64,0,0,0,.35,1,.63.63,0,0,0,.68-.24l0,0,.05-.06,0-.07,0-.06.05-.06,0-.07.05-.06,0-.06.05-.06.05-.06,0-.06.05-.06.06-.06.05-.06.05-.06.06-.06.05,0,.05-.06.06-.06.05-.05.06-.06.05-.06.06-.05.06,0,.05-.06.06,0,.06-.05.06-.06.05-.05.06,0,.05,0a.64.64,0,1,0-.83-1l-.06,0-.06.06-.07.06-.06.06-.07.05-.06.07-.06.06-.07.06-.06.06-.06.06-.06.06-.07.07-.06.06-.06.06-.06.07-.06.06-.06.07-.06.06-.06.07,0,.07-.06.06-.06.07-.06.07,0,.07-.06.07,0,.07-.06.07-.05.07,0,.07-.06.07,0,0Zm5.25-4.07a.64.64,0,0,0-.25,1,.65.65,0,0,0,.72.17l.08,0,.07,0,.08,0,.07,0,.08,0,.07,0,.08,0,.07,0,.08,0,.07,0,.08,0,.07,0,.08,0,.08,0,.07,0,.08,0,.08,0,.07,0,.08,0,.08,0,.08,0,.12,0,.12,0,.12,0,.12,0,.11,0,.15,0a.65.65,0,0,0,.5-.69.65.65,0,0,0-.77-.56l-.16,0-.12,0-.13,0-.13,0-.13,0-.12,0-.09,0-.09,0-.08,0-.09,0-.08,0-.08,0-.09,0-.08,0-.09,0-.08,0-.08,0-.09,0-.08,0-.08,0-.09,0-.08,0-.08,0-.08,0-.08,0-.09,0-.07,0Zm6.47-1.2a.63.63,0,0,0-.59.88.62.62,0,0,0,.57.39H27.3l.1,0h.1l.1,0h.1l.1,0,.09,0H28l.1,0a.64.64,0,0,0,.74-.76.63.63,0,0,0-.5-.49l-.11,0-.11,0-.1,0-.11,0h-.11l-.11,0h-.1l-.11,0h-.11l-.11,0H25.68ZM32.1,53a.64.64,0,0,0-.92.56.62.62,0,0,0,.35.58l.1.05.08,0,.09,0,.08,0,.09.05.08,0,.08,0,.09.05.08,0,.08,0,.08.05.09,0,.08,0,.08.05.08,0,.08.05.08,0L33,55l.08.06.08.05.08,0,.08.06.08,0,.08.06.08,0,0,0a.65.65,0,0,0,1-.31.63.63,0,0,0-.23-.72l0,0-.08-.06-.09-.06-.08-.06L34,54.09,33.9,54,33.82,54l-.09,0-.09-.06-.08-.06-.09,0-.09-.06-.09,0-.09-.06-.09,0L33,53.48l-.09,0-.09,0-.1-.06-.09,0-.09-.05-.09,0-.09,0-.09-.05-.1,0L32.1,53Zm5.21,4a.64.64,0,0,0-.93.87l.07.08.07.07.07.08.07.07.06.08.07.07.07.08.06.08.07.07.07.08.06.08.07.08.06.08.07.07.07.08.06.08.07.08.06.08.06.08.07.09.06.08.06.08.07.08.08.11A.64.64,0,0,0,39,59.68a.62.62,0,0,0,0-.7l-.08-.12-.07-.08-.07-.09-.06-.08-.07-.09-.07-.08-.06-.09-.07-.08-.07-.08-.07-.09L38.23,58l-.07-.08-.07-.08L38,57.77,38,57.69l-.07-.08-.07-.08-.07-.08-.07-.08-.07-.08-.07-.08-.07-.08-.07-.07L37.31,57Zm3.85,5.24a.64.64,0,0,0-1.06-.06.65.65,0,0,0,0,.71c.43.72.83,1.45,1.22,2.2a.63.63,0,0,0,1,.11.62.62,0,0,0,.08-.7C42,63.71,41.6,63,41.16,62.21Zm3.1,5.49a.65.65,0,0,0-.78-.21.64.64,0,0,0-.25,1,20.11,20.11,0,0,0,1.67,2,.64.64,0,1,0,.93-.87A19.08,19.08,0,0,1,44.26,67.7ZM48.62,72A.64.64,0,1,0,48,73l.13.08.19.11.19.11.19.11.19.1.19.1.19.1.19.09.19.09.2.08.19.08.2.08.15,0a.64.64,0,0,0,.86-.63.65.65,0,0,0-.42-.56l-.13,0-.18-.07-.17-.08-.18-.07L50,72.68l-.17-.08-.18-.09-.17-.09-.17-.09-.17-.1-.17-.1-.17-.1L48.62,72Zm5.7,1.78a.62.62,0,0,0-.65.54.64.64,0,0,0,.6.74H56l.2,0,.2,0,.2,0,.2,0,.17,0a.64.64,0,0,0,.43-1,.63.63,0,0,0-.62-.26l-.16,0-.18,0-.18,0-.18,0-.18,0H54.32Zm5.94-1.14a.64.64,0,0,0-.19,1.06.63.63,0,0,0,.68.12l.09,0,.19-.08.19-.08.19-.09.19-.09.18-.09.19-.09.18-.09.18-.1.19-.09.18-.1.18-.1.18-.11,0,0a.63.63,0,1,0-.65-1.09l0,0-.17.1-.17.09-.17.09-.17.1-.17.08-.17.09-.18.09-.17.08-.17.08-.18.08-.18.08-.17.07-.09,0Zm5.21-3.24a.64.64,0,0,0,.84,1l.15-.13.15-.13.16-.14.16-.15.15-.14.15-.14.15-.15.15-.15.15-.15.15-.14.15-.16.14-.15.08-.08a.64.64,0,0,0-.94-.87l-.07.08-.14.14-.13.14-.14.15-.14.14-.14.14-.15.13-.14.14-.15.14-.14.13-.15.13-.15.13-.15.13Zm4.07-4.64a.64.64,0,0,0,.41,1,.66.66,0,0,0,.67-.28l.06-.09.11-.18.1-.17.11-.18.11-.18.1-.17.1-.18.1-.18.09-.18.1-.18.09-.18.09-.18.09-.18,0-.07a.64.64,0,1,0-1.15-.54l0,.06-.08.17-.09.17-.08.17-.09.16-.09.17-.09.17-.1.16L70,64l-.1.17-.1.16-.1.16-.11.17-.06.09Zm2.4-5.61a.64.64,0,0,0,.74.75.63.63,0,0,0,.51-.5l0-.09,0-.19,0-.19,0-.19,0-.18,0-.19,0-.19,0-.19,0-.19v-.19l0-.19V56.7a.64.64,0,1,0-1.27,0v.94l0,.17,0,.17,0,.17,0,.17,0,.18,0,.17,0,.17L72,59l0,.09Zm-.29-5.93a.64.64,0,0,0,1,.25.62.62,0,0,0,.17-.7l-.06-.16-.07-.18-.07-.18L72.56,52l-.08-.18-.08-.17-.08-.18-.09-.17-.1-.17L72,51l-.1-.17-.11-.16-.11-.17-.1-.16a.64.64,0,0,0-1.06.72l.1.14.1.15.09.14.09.15.08.15.09.15.08.15.07.16.08.15.07.15.06.16.07.15.06.16.06.17Zm6.87-36,.72.35-.35.72-.72-.35Zm2.79-5.73.72.35-.35.72L81,12.14Zm-1.4,2.86.72.35-.35.72L79.57,15ZM71.19,36.52l-1.81-.36-2.42,5ZM68.5,35.09,76.85,20a.63.63,0,0,1,1.11.61L70,35l14.76,3,.52-34.79L62.51,34l2.17,8.91,3.78-7.78a.25.25,0,0,1,0-.07Zm15-31.69L51,29.62l10.64,3.52Z"/></g></g></svg>