<svg id="Layer_1" data-name="Layer 1" xmlns="http://www.w3.org/2000/svg" xmlns:xlink="http://www.w3.org/1999/xlink" viewBox="0 0 155 120"><defs><style>.cls-1,.cls-5,.cls-6{fill:none;}.cls-2{fill:#231f20;}.cls-3{opacity:0.35;}.cls-4{clip-path:url(#clip-path);}.cls-5,.cls-6{stroke:#848484;opacity:0.12;isolation:isolate;}.cls-5{stroke-miterlimit:10;stroke-width:5px;}.cls-6,.cls-8{stroke-miterlimit:10;}.cls-6{stroke-width:5px;}.cls-7,.cls-8{fill:#1c1717;}.cls-8{stroke:#69c9d9;stroke-width:1.25px;}</style><clipPath id="clip-path"><rect class="cls-1" x="-838.24" y="-491.35" width="1440" height="1959"/></clipPath></defs><g id="background_fill" data-name="background fill"><rect class="cls-2" x="-838.24" y="-491.35" width="1440" height="3491.56"/></g><g id="background_pattern" data-name="background pattern"><g class="cls-3"><g class="cls-4"><circle class="cls-5" cx="-264.3" cy="238.89" r="335"/><circle class="cls-5" cx="222.73" cy="-247.39" r="335"/><path class="cls-6" d="M168.11,645.84c130.83,130.83,342.94,130.83,473.76,0s130.82-342.94,0-473.77-342.93-130.82-473.76,0S37.29,515,168.11,645.84Z"/></g></g></g><g id="Everything_Else" data-name="Everything Else"><rect class="cls-7" x="-463.24" y="-85.35" width="690" height="320"/><path class="cls-8" d="M74.26,22a36.29,36.29,0,0,0-5.31.39,1.66,1.66,0,0,0-1.35,1.18L65.49,30.9a28.18,28.18,0,0,0-4.41,1.81L54.39,29a1.66,1.66,0,0,0-1.78.11,35.37,35.37,0,0,0-7.53,7.53A1.65,1.65,0,0,0,45,38.46l3.67,6.69a28.18,28.18,0,0,0-1.81,4.41L39.5,51.67A1.65,1.65,0,0,0,38.32,53a36.41,36.41,0,0,0,0,10.63A1.66,1.66,0,0,0,39.5,65l7.33,2.11a28.29,28.29,0,0,0,1.81,4.42L45,78.2a1.66,1.66,0,0,0,.08,1.8,35.75,35.75,0,0,0,3.48,4,36.89,36.89,0,0,0,4,3.49,1.64,1.64,0,0,0,1.78.1L61.08,84a28.18,28.18,0,0,0,4.41,1.81l2.11,7.33A1.66,1.66,0,0,0,69,94.28a37.12,37.12,0,0,0,10.63,0A1.67,1.67,0,0,0,81,93.09l2-7.33A28.4,28.4,0,0,0,87.45,84l6.68,3.67a1.64,1.64,0,0,0,1.78-.1A36.57,36.57,0,0,0,100,84a35.75,35.75,0,0,0,3.48-4,1.66,1.66,0,0,0,.11-1.78l-3.67-6.68a28.29,28.29,0,0,0,1.81-4.42L109,65a1.67,1.67,0,0,0,1.19-1.34,37.12,37.12,0,0,0,0-10.63A1.67,1.67,0,0,0,109,51.67l-7.33-2.11a28.18,28.18,0,0,0-1.81-4.41l3.67-6.69a1.66,1.66,0,0,0-.11-1.78,35.37,35.37,0,0,0-7.53-7.53A1.67,1.67,0,0,0,94.13,29l-6.68,3.67A28.44,28.44,0,0,0,83,30.9l-2.11-7.33a1.66,1.66,0,0,0-1.34-1.18A36,36,0,0,0,74.26,22Zm0,3.3a32.57,32.57,0,0,1,3.82.29l2,7a1.64,1.64,0,0,0,1.13,1.14,25.5,25.5,0,0,1,5.5,2.3,1.68,1.68,0,0,0,1.6,0l6.37-3.51A28.87,28.87,0,0,1,97.61,35a34.41,34.41,0,0,1,2.51,2.89l-3.51,6.37a1.63,1.63,0,0,0,0,1.6,25,25,0,0,1,2.29,5.5,1.65,1.65,0,0,0,1.1,1.11l7,2a34.87,34.87,0,0,1,.28,3.82,34.87,34.87,0,0,1-.28,3.82l-7,2a1.66,1.66,0,0,0-1.14,1.13,25,25,0,0,1-2.29,5.5,1.63,1.63,0,0,0,0,1.6l3.51,6.37a27.62,27.62,0,0,1-5.4,5.4L88.31,80.6a1.63,1.63,0,0,0-1.6,0A25.31,25.31,0,0,1,81.25,83a1.64,1.64,0,0,0-1.13,1.14l-2,7a34.87,34.87,0,0,1-3.82.28,34.87,34.87,0,0,1-3.82-.28l-2-7A1.64,1.64,0,0,0,67.27,83a25,25,0,0,1-5.5-2.29,1.63,1.63,0,0,0-1.6,0L53.8,84.19a34.41,34.41,0,0,1-2.89-2.51,29.94,29.94,0,0,1-2.5-2.89l3.5-6.37a1.63,1.63,0,0,0,0-1.6,25,25,0,0,1-2.29-5.5,1.66,1.66,0,0,0-1.14-1.13l-7-2a32.57,32.57,0,0,1-.29-3.82,32.57,32.57,0,0,1,.29-3.82l7-2a1.64,1.64,0,0,0,1.14-1.13,25,25,0,0,1,2.29-5.5,1.63,1.63,0,0,0,0-1.6L48.41,38a31.94,31.94,0,0,1,2.5-3,32.78,32.78,0,0,1,2.89-2.5L60.17,36a1.68,1.68,0,0,0,1.6,0,25.5,25.5,0,0,1,5.5-2.3,1.64,1.64,0,0,0,1.13-1.14l2-7A33.21,33.21,0,0,1,74.26,25.3Zm0,16.52A16.52,16.52,0,1,0,90.78,58.34h0A16.53,16.53,0,0,0,74.26,41.82Zm0,3.3A13.21,13.21,0,1,1,61.05,58.33,13.2,13.2,0,0,1,74.26,45.12Z"/></g></svg>