<svg id="Everything_Else" data-name="Everything Else" xmlns="http://www.w3.org/2000/svg" viewBox="0 0 155 120"><defs><style>.cls-1{fill:none;stroke:#f06268;stroke-miterlimit:10;}</style></defs><path class="cls-1" d="M129.32,26.93h-5.76V21.65a1.69,1.69,0,0,0-.49-1.17A1.65,1.65,0,0,0,121.9,20H82.62a8.31,8.31,0,0,0-7.14,4A8.3,8.3,0,0,0,68.42,20H29.06a1.66,1.66,0,0,0-1.66,1.66v5.25H21.63A1.66,1.66,0,0,0,20,28.59V96a1.65,1.65,0,0,0,1.65,1.66H129.32a1.66,1.66,0,0,0,1.17-.49A1.62,1.62,0,0,0,131,96V28.62a1.6,1.6,0,0,0-.48-1.19,1.63,1.63,0,0,0-1.18-.5ZM82.56,22.44h38.55V88.1H82.57a8.27,8.27,0,0,0-5.86,2.46V28.31a5.85,5.85,0,0,1,5.85-5.85Zm-52.78,0H68.43a5.82,5.82,0,0,1,5.82,5.85v.07h0V90.57a8.28,8.28,0,0,0-5.87-2.45H29.84Zm-7.36,7h5V88.91a1.66,1.66,0,0,0,1.66,1.66H68.32a5.86,5.86,0,0,1,5.73,4.64H22.42ZM128.54,95.22H76.84a5.88,5.88,0,0,1,5.72-4.64h39.27a1.66,1.66,0,0,0,1.66-1.65V29.39h5Z"/></svg>