<svg xmlns="http://www.w3.org/2000/svg" viewBox="0 0 12.83 13.82"><defs><style>.cls-1{fill:none;stroke:#f16268;}.cls-2{fill:#fff;}</style></defs><g id="Layer_2" data-name="Layer 2"><g id="Everything_Else" data-name="Everything Else"><polyline class="cls-1" points="10.11 2.59 2.66 6.85 10.11 11.24"/><path class="cls-2" d="M10.25,4.67A2.09,2.09,0,1,0,8.16,2.59a2.08,2.08,0,0,0,2.09,2.08"/><circle class="cls-1" cx="10.25" cy="2.59" r="2.09"/><path class="cls-2" d="M2.59,9.11A2.09,2.09,0,1,0,.5,7,2.09,2.09,0,0,0,2.59,9.11"/><circle class="cls-1" cx="2.59" cy="7.02" r="2.09"/><path class="cls-2" d="M10.25,13.5a2.09,2.09,0,1,0-2.09-2.09,2.08,2.08,0,0,0,2.09,2.09"/><circle class="cls-1" cx="10.25" cy="11.24" r="2.09"/></g></g></svg>