<svg xmlns="http://www.w3.org/2000/svg" xmlns:xlink="http://www.w3.org/1999/xlink" viewBox="0 0 155 120"><defs><style>.cls-1,.cls-5,.cls-6{fill:none;}.cls-2{opacity:0.3;}.cls-3{opacity:0.35;}.cls-4{clip-path:url(#clip-path);}.cls-5{stroke:#838383;stroke-width:5px;opacity:0.12;}.cls-5,.cls-6{stroke-miterlimit:10;}.cls-6{stroke:#69c8d8;}</style><clipPath id="clip-path"><rect class="cls-1" x="-310.38" y="-4689.83" width="1440" height="3183.33"/></clipPath></defs><g id="background_pattern" data-name="background pattern"><g class="cls-3"><g class="cls-4"><circle class="cls-5" cx="177.45" cy="382.8" r="335"/><circle class="cls-5" cx="3.1" cy="-294.16" r="335"/></g></g></g><g id="Everything_Else" data-name="Everything Else"><path class="cls-6" d="M60.44,32.83a13.48,13.48,0,0,1,9.73,4.29l5.31,5.58a2.79,2.79,0,0,0,2,.88,2.76,2.76,0,0,0,2-.88l5.29-5.54a13.16,13.16,0,0,1,19.44,0,15.1,15.1,0,0,1,0,20.68l-26.77,28-26.76-28a15.13,15.13,0,0,1,0-20.7A13.4,13.4,0,0,1,60.44,32.83Zm.69-4.2a18.17,18.17,0,0,0-13.2,5.66,19.86,19.86,0,0,0,0,27.29l27.6,29a2.71,2.71,0,0,0,2,.83,2.68,2.68,0,0,0,1.94-.83l27.65-28.93a19.88,19.88,0,0,0,0-27.29,18.2,18.2,0,0,0-26.41,0L77.5,37.6l-3.17-3.31A18.2,18.2,0,0,0,61.13,28.63Z"/></g></svg>