<svg xmlns="http://www.w3.org/2000/svg" xmlns:xlink="http://www.w3.org/1999/xlink" viewBox="0 0 155 120"><defs><style>.cls-1,.cls-4,.cls-5{fill:none;}.cls-2{opacity:0.35;}.cls-3{clip-path:url(#clip-path);}.cls-4{stroke:#838383;stroke-width:5px;opacity:0.12;}.cls-4,.cls-5{stroke-miterlimit:10;}.cls-5{stroke:#69c8d8;}</style><clipPath id="clip-path"><rect class="cls-1" x="-550.74" y="-4689.83" width="1440" height="3183.33"/></clipPath></defs><g id="background_pattern" data-name="background pattern"><g class="cls-2"><g class="cls-3"><circle class="cls-4" cx="429.13" cy="-113.23" r="335" transform="translate(205.75 270.27) rotate(-45)"/><circle class="cls-4" cx="-62.9" cy="382.8" r="335"/><circle class="cls-4" cx="-237.25" cy="-294.16" r="335"/></g></g></g><g id="Everything_Else" data-name="Everything Else"><path class="cls-5" d="M88.43,41.84l-2.35-12a7.27,7.27,0,0,0-14.36,2.24c-7.36,9-15.15,13.31-27.29,15.7l-7.07,1.4a7.38,7.38,0,0,0-5.83,8.69L34,70.64a7.4,7.4,0,0,0,8.7,5.83L45.31,76l7,17.48a4.06,4.06,0,0,0,4.56,2.48l7.93-1.56a4.31,4.31,0,0,0,2.78-2,4.11,4.11,0,0,0,.22-3.42L61.8,74A40.59,40.59,0,0,1,81,79.35a7.24,7.24,0,0,0,8.37,5.2A7.37,7.37,0,0,0,95.16,76L92.8,64a11.61,11.61,0,0,0-4.37-22.18Zm-50.38,28L35.54,57.13a3.24,3.24,0,0,1,2.53-3.77L45.15,52c11.85-2.33,20-6.63,27.49-14.65L79.92,74.2c-9.85-4.61-19.06-5.48-31-3.12l-7.07,1.39A3.25,3.25,0,0,1,38.05,69.85ZM63.94,90.36,56.21,92,49.44,75.25l.38-.08a59.64,59.64,0,0,1,7.55-1ZM91.05,76.78a3.14,3.14,0,0,1-2.46,3.66A3.21,3.21,0,0,1,84.93,78L75.85,31.91a3.14,3.14,0,0,1,2.46-3.66A3.21,3.21,0,0,1,82,30.7Zm.93-17L89.26,46.05A7.34,7.34,0,0,1,95.4,52,7.47,7.47,0,0,1,92,59.81Z"/><path class="cls-5" d="M121.18,44.72l-13.67,2.7a2,2,0,1,0,.79,4L122,48.74a2.07,2.07,0,0,0,1.61-2.41A2.12,2.12,0,0,0,121.18,44.72Z"/><path class="cls-5" d="M121.56,64.8,108.1,61.5a2,2,0,1,0-1,4l13.46,3.31a3.42,3.42,0,0,0,.9,0A2,2,0,0,0,123,67.29,1.94,1.94,0,0,0,121.56,64.8Z"/><path class="cls-5" d="M102.72,38.73a3.11,3.11,0,0,0,.82-.36l11.2-8.17a2,2,0,1,0-2.44-3.29l-11.2,8.16a2,2,0,0,0-.43,2.87A2.08,2.08,0,0,0,102.72,38.73Z"/></g></svg>