<svg xmlns="http://www.w3.org/2000/svg" viewBox="0 0 25 21.44"><defs><style>.cls-1{fill:#fff;}</style></defs><g id="Layer_2" data-name="Layer 2"><g id="Header"><path class="cls-1" d="M12.81,18a9,9,0,1,1,9-9A9,9,0,0,1,12.81,18Zm0-16.83A7.81,7.81,0,1,0,20.62,9,7.83,7.83,0,0,0,12.81,1.2Z"/><path class="cls-1" d="M18.53,14.7a.81.81,0,0,1,1.14,0l5.09,5.1a.8.8,0,0,1,0,1.14.81.81,0,0,1-1.14,0l-5.09-5.1a.8.8,0,0,1,0-1.13Z"/><path class="cls-1" d="M.6,15.43H3.79a.6.6,0,1,1,0,1.2H.6A.6.6,0,0,1,0,16,.58.58,0,0,1,.6,15.43Z"/><path class="cls-1" d="M.6,17.83h6a.61.61,0,0,1,0,1.21H.6a.6.6,0,0,1-.6-.6A.59.59,0,0,1,.6,17.83Z"/><path class="cls-1" d="M.6,20.24H9a.6.6,0,1,1,0,1.2H.6a.6.6,0,0,1-.6-.6A.58.58,0,0,1,.6,20.24Z"/></g></g></svg>