<svg xmlns="http://www.w3.org/2000/svg" xmlns:xlink="http://www.w3.org/1999/xlink" viewBox="0 0 155 120"><defs><style>.cls-1,.cls-5,.cls-6{fill:none;}.cls-2{opacity:0.3;}.cls-3{opacity:0.35;}.cls-4{clip-path:url(#clip-path);}.cls-5{stroke:#838383;stroke-width:5px;opacity:0.12;}.cls-5,.cls-6{stroke-miterlimit:10;}.cls-6{stroke:#69c8d8;}</style><clipPath id="clip-path"><rect class="cls-1" x="-310.38" y="-4941.9" width="1440" height="3183.33"/></clipPath></defs><g id="background_pattern" data-name="background pattern"><g class="cls-3"><g class="cls-4"><circle class="cls-5" cx="177.45" cy="130.72" r="335"/><line class="cls-5" x1="34.92" y1="-50.48" x2="34.92" y2="311.91"/><path class="cls-5" d="M177.45,133.23a67,67,0,1,0-67.08-66.95A67,67,0,0,0,177.45,133.23Z"/></g></g></g><g id="Everything_Else" data-name="Everything Else"><path class="cls-6" d="M56.73,79.53a30,30,0,1,0-.24-43.36L53,32.58a35,35,0,1,1,.28,50.57Z"/><polygon class="cls-6" points="86.74 57.73 86.76 57.71 75.04 45.99 71.5 49.52 77.21 55.23 42.67 55.23 42.67 60.23 77.21 60.23 71.5 65.94 75.04 69.48 86.76 57.75 86.74 57.73"/></g></svg>