<svg id="Everything_Else" data-name="Everything Else" xmlns="http://www.w3.org/2000/svg" viewBox="0 0 155 120"><defs><style>.cls-1{fill:#f06268;stroke:#333;stroke-miterlimit:10;stroke-width:0.5px;}</style></defs><path class="cls-1" d="M126.35,72.31c0-.28-.07-.55-.11-.82s-.09-.67-.15-1-.15-.7-.23-1-.11-.46-.17-.7c-.12-.4-.24-.79-.37-1.18l-.18-.48c-.16-.43-.33-.86-.52-1.28a2.59,2.59,0,0,1-.14-.29c-.22-.46-.44-.91-.7-1.35,0-.06-.07-.11-.1-.16-.27-.47-.55-.92-.85-1.37s-.7-1-1.09-1.47l-9.56-11.86a16,16,0,0,0-7-5.75l-7.81-9.1-.19-.21a9.09,9.09,0,0,0-7.16-3.46A9.21,9.21,0,0,0,80.86,40a6.51,6.51,0,0,0,0,.77h0L83.05,55.5a17,17,0,0,0-.23,2.15H70.92a17,17,0,0,0-.22-2.16l2.06-14,.08-.74h0c0-.25,0-.5,0-.76a9.21,9.21,0,0,0-9.2-9.2,9.08,9.08,0,0,0-6.89,3.13h0l-8.27,9.64a15.87,15.87,0,0,0-7,5.75l-9.67,12c-.39.48-.75,1-1.09,1.47-.06.08-.1.18-.17.26-.27.43-.54.86-.78,1.3-.14.25-.26.51-.39.76s-.29.58-.43.88-.25.61-.37.92-.2.54-.29.81-.21.64-.3,1-.16.58-.22.86-.15.63-.21.95-.12.71-.16,1.06-.08.52-.11.79c-.06.63-.1,1.27-.1,1.92a20.53,20.53,0,0,0,20.51,20.5c.65,0,1.28,0,1.92-.1.19,0,.38,0,.57-.06.45-.06.9-.13,1.33-.21.2,0,.4-.07.6-.12.46-.1.91-.22,1.36-.35l.43-.12a20.7,20.7,0,0,0,3.52-1.5l.11-.06q.79-.43,1.53-.93l.17-.12c.5-.34,1-.7,1.45-1.08l.06,0a20.42,20.42,0,0,0,2.75-2.75l.08-.1c.34-.42.66-.85,1-1.3.12-.18.24-.35.35-.53s.38-.61.56-.93l.44-.79.3-.64a20.18,20.18,0,0,0,1.39-3.91l0-.18s0,0,0-.06c.08-.36.16-.72.22-1.09s.09-.53.12-.8.06-.32.08-.48c2.85-2.18,7.23-5.07,8.69-5.07s5.86,2.88,8.7,5.07A20.63,20.63,0,0,0,87.42,83l.3.62c.14.27.29.53.44.8s.36.61.56.9a6.49,6.49,0,0,0,.36.55c.29.44.61.86.94,1.27l.12.14A20.05,20.05,0,0,0,92.86,90l.09.07c.46.37.93.73,1.42,1.06l.2.14c.48.32,1,.62,1.5.91l.13.07a20.22,20.22,0,0,0,3.51,1.49l.43.13c.45.13.9.25,1.36.34l.6.13c.44.08.88.15,1.33.2l.57.07c.63.06,1.28.1,1.92.1a20.52,20.52,0,0,0,20.5-20.51,13.56,13.56,0,0,0-.07-1.91ZM83,41.91h0l-.12-.73A6.77,6.77,0,0,1,82.79,40a7.29,7.29,0,0,1,7.28-7.27,7.17,7.17,0,0,1,5.81,2.95l.49.62,0,0,5.35,6.23a16.61,16.61,0,0,0-2.92-.29,16.08,16.08,0,0,0-14.47,9.13Zm.07,17.68,2.37,7c-2.5-.93-6.66-2.37-8.57-2.37s-6.06,1.45-8.57,2.37l2.37-7ZM57.33,36.24l.07,0,.46-.61a7.17,7.17,0,0,1,5.81-2.95A7.28,7.28,0,0,1,70.94,40a6.46,6.46,0,0,1-.12,1.18l-.1.76h0l-1.38,9.4a16.06,16.06,0,0,0-14.47-9.13,15.8,15.8,0,0,0-2.92.3Zm9,39.68c0,.25-.06.49-.09.74s-.07.46-.11.69-.1.59-.17.91l-.08.31,0,.16c-.12.51-.27,1-.43,1.49a18.44,18.44,0,0,1-1.57,3.4c-.17.29-.34.6-.54.88s-.18.27-.28.4c-.24.35-.49.69-.76,1l-.25.3q-.45.52-.93,1l-.22.22c-.36.35-.73.69-1.12,1a1.49,1.49,0,0,0-.14.12,18.5,18.5,0,0,1-4.45,2.7l-.31.13c-.41.17-.84.32-1.26.46A4.91,4.91,0,0,1,53,92c-.37.12-.76.21-1.14.3l-.58.12q-.59.11-1.2.18l-.54.07a17,17,0,0,1-1.76.09A18.6,18.6,0,0,1,29.23,74.23c0-.59,0-1.17.09-1.74,0-.25.06-.5.1-.75s.08-.6.14-.9.13-.65.21-1,.1-.4.16-.59c.1-.38.22-.75.35-1.12l.13-.37c.16-.41.32-.82.5-1.22l.09-.17c.21-.45.42-.88.67-1.31v0c.26-.46.54-.91.84-1.36A18.56,18.56,0,0,1,66.37,74.23c0,.57,0,1.13-.09,1.69ZM47.8,53.72a20.31,20.31,0,0,0-9,2.13l4.35-5.41A14.12,14.12,0,0,1,69,58.26h.09s0,0,0,.06L66.5,65.86A20.52,20.52,0,0,0,47.8,53.72ZM85.45,74c-2.39-1.74-6.49-4.5-8.58-4.5s-6.19,2.76-8.58,4.5a20.92,20.92,0,0,0-.71-5c2.37-.93,7.5-2.79,9.28-2.79s6.93,1.86,9.29,2.79a21.43,21.43,0,0,0-.7,5Zm-.76-15.64s0,0,0-.06h.09a14.12,14.12,0,0,1,25.88-7.82L111,51l.06,0L115,55.85a20.31,20.31,0,0,0-9-2.13,20.54,20.54,0,0,0-18.7,12.13ZM105.94,92.8a17.29,17.29,0,0,1-1.76-.09l-.54-.07c-.4,0-.8-.11-1.19-.18l-.58-.12c-.38-.09-.77-.18-1.14-.3l-.51-.15c-.43-.14-.85-.3-1.26-.46l-.32-.13a18.7,18.7,0,0,1-4.45-2.7L94,88.47c-.38-.32-.75-.65-1.1-1l-.24-.24q-.47-.48-.9-1c-.09-.11-.19-.22-.27-.33-.26-.31-.49-.64-.73-1l-.31-.44c-.17-.25-.33-.53-.49-.79a18.53,18.53,0,0,1-2-5l-.07-.23h0a18.92,18.92,0,0,1-.42-2.54c0-.56-.09-1.12-.09-1.69a18.57,18.57,0,0,1,33.95-10.41l.2.34c.23.35.46.71.66,1.08s.25.48.37.73.26.5.37.75.23.57.34.86.18.47.26.71.19.59.28.89.13.51.2.77.13.57.19.86.1.64.14,1,.08.48.1.72c0,.57.08,1.15.08,1.73A18.6,18.6,0,0,1,105.94,92.8Z"/><path class="cls-1" d="M47.8,59.29A14.94,14.94,0,1,0,62.73,74.23,15,15,0,0,0,47.8,59.29Zm0,27.93a13,13,0,1,1,13-13A13,13,0,0,1,47.8,87.22Z"/><path class="cls-1" d="M105.94,59.29a14.94,14.94,0,1,0,14.94,14.94A15,15,0,0,0,105.94,59.29Zm0,27.93a13,13,0,1,1,13-13A13,13,0,0,1,105.94,87.22Z"/></svg>