<svg xmlns="http://www.w3.org/2000/svg" xmlns:xlink="http://www.w3.org/1999/xlink" viewBox="0 0 155 120"><defs><style>.cls-1,.cls-4,.cls-5{fill:none;}.cls-2{opacity:0.35;}.cls-3{clip-path:url(#clip-path);}.cls-4{stroke:#838383;stroke-width:5px;opacity:0.12;}.cls-4,.cls-5{stroke-miterlimit:10;}.cls-5{stroke:#ef6268;}</style><clipPath id="clip-path"><rect class="cls-1" x="-550.74" y="-4941.9" width="1440" height="3183.33"/></clipPath></defs><g id="background_pattern" data-name="background pattern"><g class="cls-2"><g class="cls-3"><circle class="cls-4" cx="-62.9" cy="130.72" r="335"/><path class="cls-4" d="M-62.9,133.23A67,67,0,0,0,4.18,66.28,67,67,0,0,0-62.9-.68a67,67,0,0,0-67.08,67A67,67,0,0,0-62.9,133.23Z"/><line class="cls-4" x1="79.63" y1="-50.48" x2="79.63" y2="311.91"/><path class="cls-4" d="M79.63,223.28a67,67,0,1,0-67.08-67A67,67,0,0,0,79.63,223.28Z"/></g></g></g><g id="Everything_Else" data-name="Everything Else"><path class="cls-5" d="M81.12,34.73A14.62,14.62,0,0,0,66.5,20.1h0A14.63,14.63,0,1,0,81.12,34.73Z"/><path class="cls-5" d="M76.06,51A19,19,0,0,0,85.38,34.7v-.08A19,19,0,1,0,56.78,51.07m-4.9-16.34A14.63,14.63,0,0,1,66.5,20.1h0A14.63,14.63,0,1,1,51.88,34.73Z"/><path class="cls-5" d="M56.78,51.07A31,31,0,0,0,35.5,80.32V85.1h4.38V80.32A26.62,26.62,0,0,1,89.44,67l3.81-2.18A31,31,0,0,0,76.06,51"/><polygon class="cls-5" points="119.5 77.07 101.23 77.07 101.23 58.82 96.85 58.82 96.85 77.07 78.6 77.07 78.6 81.45 96.85 81.45 96.85 99.72 101.23 99.72 101.23 81.45 119.5 81.45 119.5 77.07"/></g></svg>