<svg xmlns="http://www.w3.org/2000/svg" viewBox="0 0 102.17 84"><defs><style>.cls-1{fill:#df6b6c;}.cls-2,.cls-3{fill:none;stroke-miterlimit:10;}.cls-2{stroke:#f16268;}.cls-3{stroke:#df6b6c;}.cls-4{fill:#f16268;}</style></defs><g id="Layer_2" data-name="Layer 2"><g id="Everything_Else" data-name="Everything Else"><path class="cls-1" d="M18.51,33.36H17a.82.82,0,1,1,0-1.63h1.55c.49,0-.17.36-.17.81S19,33.36,18.51,33.36Z"/><path class="cls-1" d="M18.63,40.27H17a.82.82,0,1,1,0-1.63h1.67c.5,0-.16.37-.16.81S19.13,40.27,18.63,40.27Z"/><path class="cls-1" d="M18.63,61H17a.82.82,0,1,1,0-1.63h1.67c.5,0-.16.37-.16.81S19.13,61,18.63,61Z"/><path class="cls-1" d="M18.63,17.73H17a.82.82,0,1,1,0-1.63h1.67c.5,0-.16.37-.16.82S19.13,17.73,18.63,17.73Z"/><path class="cls-1" d="M9.05,35.78H7.86a.68.68,0,1,1,0-1.36H9.05c.38,0-.13.31-.13.68S9.43,35.78,9.05,35.78Z"/><path class="cls-1" d="M9.15,41.54H7.86a.68.68,0,1,1,0-1.36H9.15c.38,0-.13.31-.13.68S9.53,41.54,9.15,41.54Z"/><path class="cls-1" d="M9.15,59.74H7.86a.68.68,0,1,1,0-1.35H9.15c.38,0-.13.3-.13.67S9.53,59.74,9.15,59.74Z"/><path class="cls-1" d="M9.15,22.75H7.86a.68.68,0,1,1,0-1.36H9.15c.38,0-.13.31-.13.68S9.53,22.75,9.15,22.75Z"/><path class="cls-2" d="M82.73,83.5H19.45a.91.91,0,0,1-.91-.9V1.4a.91.91,0,0,1,.91-.9H82.73a.91.91,0,0,1,.9.9V82.6A.91.91,0,0,1,82.73,83.5ZM20.79,81.14H81.38V2.86H20.79Z"/><path class="cls-2" d="M83.63,7.26h8.12a.9.9,0,0,1,.9.91V75.83a.9.9,0,0,1-.9.9H83.63m.51-2.47h6.15V9.58H84.14"/><path class="cls-3" d="M92.65,14h8.12a.9.9,0,0,1,.9.9V69.06a.9.9,0,0,1-.9.91H92.65m.52-2.47h6.16V16.23H93.17"/><path class="cls-3" d="M18.54,76.73H10.42a.9.9,0,0,1-.9-.9V8.17a.91.91,0,0,1,.9-.91h8.12m.32,2.32H11.75V74.42h7.11"/><path class="cls-3" d="M9.52,70H1.4a.91.91,0,0,1-.9-.91V14.93a.91.91,0,0,1,.9-.9H9.52m.3,2.2H2.6V67.5H9.82"/><path class="cls-4" d="M72,29.75H30A.9.9,0,1,1,30,28H72a.9.9,0,1,1,0,1.8Z"/><path class="cls-4" d="M59.35,37.41H30a.91.91,0,0,1,0-1.81H59.35a.91.91,0,0,1,0,1.81Z"/><path class="cls-4" d="M38.09,61.59H30a.91.91,0,0,1,0-1.81h8.06a.91.91,0,0,1,0,1.81Z"/><path class="cls-4" d="M43.4,12.45H30a.91.91,0,0,1,0-1.81H43.4a.91.91,0,1,1,0,1.81Z"/><path class="cls-4" d="M51.31,61.59H43.25a.91.91,0,0,1,0-1.81h8.06a.91.91,0,0,1,0,1.81Z"/><path class="cls-4" d="M64.53,61.59H56.47a.91.91,0,0,1,0-1.81h8.06a.91.91,0,0,1,0,1.81Z"/></g></g></svg>