<svg xmlns="http://www.w3.org/2000/svg" viewBox="0 0 294.4 65.3"><defs><style>.cls-1{fill:#fdd16e;}.cls-2{fill:#a0d8d0;}.cls-3{fill:#0376a9;}.cls-4{fill:#00abc8;}.cls-5{fill:#006072;}</style></defs><g id="Layer_2" data-name="Layer 2"><g id="Layer_1-2" data-name="Layer 1"><rect class="cls-1" x="91.9" y="1.21" width="3.36" height="15.04"/><path class="cls-1" d="M101.65,9.79v6.45H98.39V4.67h3.23V6a4.48,4.48,0,0,1,3.29-1.48A4.05,4.05,0,0,1,108,5.77a4.8,4.8,0,0,1,1.24,3.44v7H106V9.7c0-1.78-.66-2.66-2-2.66a2.38,2.38,0,0,0-1.69.69,2.78,2.78,0,0,0-.72,2.06"/><path class="cls-1" d="M115.74,7v5.19a1.46,1.46,0,0,0,.35,1,1.06,1.06,0,0,0,.81.38,1.85,1.85,0,0,0,1.53-.82L119.64,15a4.64,4.64,0,0,1-3.18,1.38,3.85,3.85,0,0,1-4-3.73,2.16,2.16,0,0,1,0-.36V7h-1.35V4.67h1.35V1.2h3.25V4.67h2.8V7Z"/><path class="cls-1" d="M128.18,7.7a2.49,2.49,0,0,0-1.63-.56,3.06,3.06,0,0,0-1.75.58,2.21,2.21,0,0,0-.92,1.58H129a2.35,2.35,0,0,0-.77-1.6m3.1,6.87a6.48,6.48,0,0,1-4.6,1.85,6,6,0,0,1-4.35-1.63,5.71,5.71,0,0,1-1.73-4.35,5.63,5.63,0,0,1,1.79-4.35,5.89,5.89,0,0,1,4.14-1.61,6,6,0,0,1,4.06,1.44,5,5,0,0,1,1.66,4v1.72h-8.46a2.31,2.31,0,0,0,1,1.55,3.13,3.13,0,0,0,1.89.6,3.7,3.7,0,0,0,2.8-1.14Z"/><path class="cls-1" d="M140.53,7.51a2.45,2.45,0,0,0-2.15,1,4.61,4.61,0,0,0-.71,2.7v5h-3.23V4.67h3.23V6.2A5.24,5.24,0,0,1,139.23,5a4.18,4.18,0,0,1,1.9-.51v3Z"/><path class="cls-1" d="M145.63,10.48a3.21,3.21,0,0,0,.84,2.29,2.6,2.6,0,0,0,2,.89,2.46,2.46,0,0,0,1.9-.89,3.37,3.37,0,0,0,.78-2.3,3.58,3.58,0,0,0-.78-2.35,2.45,2.45,0,0,0-1.93-.93,2.5,2.5,0,0,0-1.95.94,3.43,3.43,0,0,0-.82,2.35m2,5.94A4.87,4.87,0,0,1,144,14.67a6.09,6.09,0,0,1-1.61-4.32A5.87,5.87,0,0,1,144,6.12a4.93,4.93,0,0,1,3.68-1.64A4.42,4.42,0,0,1,151.08,6V.28h3.23v16h-3.23V14.72a4.21,4.21,0,0,1-3.41,1.7"/><path class="cls-1" d="M160.48,16.24h-3.23V4.67h3.23Zm-3-13a1.83,1.83,0,0,1-.55-1.35A1.88,1.88,0,0,1,158.8,0h0a1.86,1.86,0,0,1,1.93,1.79v.07a1.85,1.85,0,0,1-1.81,1.89h-.08a1.82,1.82,0,0,1-1.34-.54"/><path class="cls-1" d="M172.14,12.64a3.35,3.35,0,0,1-1.26,2.74,4.87,4.87,0,0,1-3.2,1,8.5,8.5,0,0,1-2.69-.47,7.8,7.8,0,0,1-2.52-1.36l1.43-2a6.16,6.16,0,0,0,3.85,1.39,1.75,1.75,0,0,0,1-.24.76.76,0,0,0,.36-.66,1,1,0,0,0-.5-.75,6,6,0,0,0-1.47-.65c-.63-.2-1.12-.37-1.46-.51a8.56,8.56,0,0,1-1.15-.63,2.66,2.66,0,0,1-1.31-2.42,3.16,3.16,0,0,1,1.29-2.61,5.22,5.22,0,0,1,3.33-1,7.23,7.23,0,0,1,4.08,1.39L170.72,8a5.47,5.47,0,0,0-3-1c-1,0-1.49.27-1.49.82a.78.78,0,0,0,.47.71,10,10,0,0,0,1.57.6c.73.23,1.26.41,1.56.53a7.26,7.26,0,0,1,1.11.57,2.66,2.66,0,0,1,1.21,2.44"/><path class="cls-1" d="M180.05,13.56A3.71,3.71,0,0,0,183,11.94l1.91,2.15A6.65,6.65,0,0,1,180,16.42a6.29,6.29,0,0,1-4.4-1.65,5.55,5.55,0,0,1-1.79-4.3,5.59,5.59,0,0,1,1.81-4.33A6.22,6.22,0,0,1,180,4.48,6.84,6.84,0,0,1,182.5,5a6.39,6.39,0,0,1,2.24,1.53l-1.67,2.19a4,4,0,0,0-3-1.39,3.16,3.16,0,0,0-2.19.82,3,3,0,0,0-.91,2.31,2.9,2.9,0,0,0,.91,2.29,3.15,3.15,0,0,0,2.14.82"/><path class="cls-1" d="M190.15,16.24h-3.23V4.67h3.23Zm-3-13a1.83,1.83,0,0,1-.55-1.35A1.88,1.88,0,0,1,188.47,0h0a1.86,1.86,0,0,1,1.9,1.82v0a1.85,1.85,0,0,1-1.81,1.89h-.08a1.82,1.82,0,0,1-1.34-.54"/><path class="cls-1" d="M196.28,10.47a3.37,3.37,0,0,0,.78,2.3,2.46,2.46,0,0,0,1.91.89,2.6,2.6,0,0,0,1.95-.89,3.21,3.21,0,0,0,.84-2.29A3.49,3.49,0,0,0,201,8.13a2.54,2.54,0,0,0-2-.94,2.47,2.47,0,0,0-1.93.93,3.58,3.58,0,0,0-.78,2.35m3.55-6a4.8,4.8,0,0,1,3.6,1.69A5.93,5.93,0,0,1,205,10.4a6.07,6.07,0,0,1-1.58,4.3,4.89,4.89,0,0,1-3.7,1.72,4.07,4.07,0,0,1-3.41-1.7v5.7h-3.19V4.67h3.23V6a4.81,4.81,0,0,1,3.51-1.48"/><rect class="cls-1" x="207.31" y="0.28" width="3.23" height="15.96"/><path class="cls-1" d="M216.72,16.24h-3.23V4.67h3.23Zm-3-13a1.83,1.83,0,0,1-.55-1.35A1.88,1.88,0,0,1,215,0h0A1.88,1.88,0,0,1,217,1.86v0a1.86,1.86,0,0,1-1.83,1.89h-.07a1.82,1.82,0,0,1-1.34-.54"/><path class="cls-1" d="M222.89,9.79v6.45h-3.23V4.67h3.23V6a4.53,4.53,0,0,1,3.29-1.48,4,4,0,0,1,3.07,1.29,4.8,4.8,0,0,1,1.24,3.44v7h-3.23V9.7c0-1.78-.65-2.66-2-2.66a2.38,2.38,0,0,0-1.69.69,2.78,2.78,0,0,0-.72,2.06"/><path class="cls-1" d="M239.89,11.86V11.3h-2c-1.29,0-1.94.41-1.94,1.21a1.12,1.12,0,0,0,.46,1,2.58,2.58,0,0,0,2.84-.2,1.7,1.7,0,0,0,.64-1.45m3.25,4.41h-3V14.86a3.8,3.8,0,0,1-3.08,1.57A4.52,4.52,0,0,1,234,15.36a3.55,3.55,0,0,1-1.25-2.84A3,3,0,0,1,234,9.86,6.24,6.24,0,0,1,237.5,9h2.41V8.92c0-1.24-.65-1.85-2-1.85a5.38,5.38,0,0,0-1.77.33,5.56,5.56,0,0,0-1.58.83l-1.45-2.09a8.7,8.7,0,0,1,5.28-1.66,5.44,5.44,0,0,1,3.44,1,4,4,0,0,1,1.31,3.33Z"/><path class="cls-1" d="M252.07,7.51a2.45,2.45,0,0,0-2.15,1,4.61,4.61,0,0,0-.71,2.7v5H246V4.67h3.23V6.2A5.24,5.24,0,0,1,250.77,5a4.18,4.18,0,0,1,1.9-.51v3Z"/><path class="cls-1" d="M256.71,20.86a4.66,4.66,0,0,1-3.2-1.38L255,17.09a2.42,2.42,0,0,0,1.68.8.94.94,0,0,0,.77-.44,1.54,1.54,0,0,0,.33-.94q0-.5-4.48-11.79h3.44l2.82,7.14,2.86-7.19h3.44l-5.44,13.64a3.88,3.88,0,0,1-1.48,1.84,3.94,3.94,0,0,1-2.23.66"/><path class="cls-1" d="M95.39,28.63a1.3,1.3,0,0,0-.48,1,1.2,1.2,0,0,0,.59,1.05,10.44,10.44,0,0,0,2.73.91,7.72,7.72,0,0,1,3.33,1.58,4,4,0,0,1,1.18,3.08,4.08,4.08,0,0,1-1.52,3.28,6,6,0,0,1-4,1.26,9.2,9.2,0,0,1-6.43-2.65l2-2.45a7.07,7.07,0,0,0,4.5,2.13,2.35,2.35,0,0,0,1.45-.4A1.35,1.35,0,0,0,99,35.53a1.6,1.6,0,0,0-.26-.26,7.88,7.88,0,0,0-2.22-.81,9.4,9.4,0,0,1-3.83-1.6,3.83,3.83,0,0,1-1.22-3.14A3.9,3.9,0,0,1,93,26.42a6.15,6.15,0,0,1,3.84-1.17,9.55,9.55,0,0,1,3,.52,8.09,8.09,0,0,1,2.63,1.46l-1.7,2.46a6.66,6.66,0,0,0-4-1.49,2,2,0,0,0-1.32.4"/><path class="cls-1" d="M112.13,32.13a2.43,2.43,0,0,0-1.63-.56,2.9,2.9,0,0,0-1.75.58,2.23,2.23,0,0,0-.93,1.57h5.08a2.28,2.28,0,0,0-.77-1.59m3.1,6.86a6.48,6.48,0,0,1-4.6,1.85,6,6,0,0,1-4.35-1.62,5.74,5.74,0,0,1-1.73-4.36,5.65,5.65,0,0,1,1.76-4.35,5.91,5.91,0,0,1,4.14-1.65,6,6,0,0,1,4.06,1.44,5,5,0,0,1,1.66,4V36h-8.43a2.31,2.31,0,0,0,1,1.55,3.13,3.13,0,0,0,1.89.6,3.73,3.73,0,0,0,2.8-1.14Z"/><polygon class="cls-1" points="120.89 29.09 122.86 32.19 124.91 29.09 128.7 29.09 124.71 34.75 128.85 40.67 124.99 40.67 122.73 37.48 120.54 40.67 116.82 40.67 120.86 34.77 117.03 29.09 120.89 29.09"/><path class="cls-1" d="M138,35.33V29.09h3.25V40.67H138V39.14a3.67,3.67,0,0,1-3.11,1.7,4.53,4.53,0,0,1-3.19-1.19,4.58,4.58,0,0,1-1.32-3.54v-7h3.25v6.31q0,2.67,2,2.67a2.31,2.31,0,0,0,1.68-.7,2.72,2.72,0,0,0,.71-2"/><path class="cls-1" d="M150.79,36.26V35.7h-2c-1.29,0-1.94.4-1.94,1.2a1.12,1.12,0,0,0,.46,1,2.22,2.22,0,0,0,1.33.33,2.31,2.31,0,0,0,1.51-.52,1.72,1.72,0,0,0,.66-1.41m3.25,4.41h-3v-1.4a3.77,3.77,0,0,1-3.14,1.55,4.65,4.65,0,0,1-3.09-1.06A3.55,3.55,0,0,1,143.58,37a3,3,0,0,1,1.29-2.66,6.16,6.16,0,0,1,3.53-.88h2.41v-.07c0-1.23-.65-1.85-1.95-1.85a5.39,5.39,0,0,0-1.78.33,6.11,6.11,0,0,0-1.58.83l-1.44-2.08a8.6,8.6,0,0,1,5.2-1.66,5.44,5.44,0,0,1,3.45,1A4,4,0,0,1,154,33.26Z"/><rect class="cls-1" x="156.88" y="24.7" width="3.23" height="15.97"/><path class="cls-1" d="M166.28,40.67h-3.22V29.09h3.22Zm-2.95-13a1.83,1.83,0,0,1-.55-1.35,1.89,1.89,0,0,1,3.78,0h0a1.89,1.89,0,0,1-1.91,1.89,1.87,1.87,0,0,1-1.32-.54"/><path class="cls-1" d="M173.08,31.42V36.6a1.46,1.46,0,0,0,.35,1,1,1,0,0,0,.81.38,1.85,1.85,0,0,0,1.53-.82L177,39.42a4.62,4.62,0,0,1-3.18,1.44,3.85,3.85,0,0,1-4-3.73,2.16,2.16,0,0,1,0-.36V31.42h-1.35V29.09h1.35V25.63h3.25v3.46h2.8v2.33Z"/><path class="cls-1" d="M180.59,45.23a4.7,4.7,0,0,1-3.2-1.37l1.46-2.39a2.42,2.42,0,0,0,1.68.8.94.94,0,0,0,.77-.44,1.53,1.53,0,0,0,.32-.94q0-.49-4.47-11.79h3.44l2.8,7.2,2.82-7.21h3.44l-5.36,13.64a3.76,3.76,0,0,1-1.47,1.84,3.94,3.94,0,0,1-2.23.66"/><path class="cls-1" d="M205.23,32.41a2.33,2.33,0,0,0,.62-1.78,1.89,1.89,0,0,0-.64-1.67,4.22,4.22,0,0,0-2.26-.45h-2.56V33h2.45a3.62,3.62,0,0,0,2.35-.56m4-1.79c0,2.41-.95,4-2.86,4.67l3.81,5.38h-4l-3.34-4.81h-2.36v4.8H197v-15h5.7q3.51,0,5,1.18a4.58,4.58,0,0,1,1.49,3.81"/><path class="cls-1" d="M219.21,32.13a2.39,2.39,0,0,0-1.62-.56,3,3,0,0,0-1.76.58,2.26,2.26,0,0,0-.92,1.57H220a2.33,2.33,0,0,0-.78-1.59m3.1,6.86a6.46,6.46,0,0,1-4.59,1.87,6.14,6.14,0,0,1-4.33-1.64,5.7,5.7,0,0,1-1.75-4.36,5.63,5.63,0,0,1,1.75-4.35,6.28,6.28,0,0,1,8.2-.17,5,5,0,0,1,1.67,4v1.72h-8.44a2.31,2.31,0,0,0,1,1.55,3.16,3.16,0,0,0,1.9.6,3.71,3.71,0,0,0,2.79-1.14Z"/><path class="cls-1" d="M234.19,37.06a3.38,3.38,0,0,1-1.26,2.8,4.87,4.87,0,0,1-3.2,1A8.49,8.49,0,0,1,227,40.4,7.88,7.88,0,0,1,224.53,39L226,37a6.15,6.15,0,0,0,3.85,1.4,1.76,1.76,0,0,0,1-.25.76.76,0,0,0,.36-.66,1,1,0,0,0-.5-.75,6,6,0,0,0-1.47-.64c-.63-.21-1.12-.38-1.46-.52a8.5,8.5,0,0,1-1.15-.62,2.7,2.7,0,0,1-1.31-2.43A3.16,3.16,0,0,1,226.56,30a5.28,5.28,0,0,1,3.33-1A7.33,7.33,0,0,1,234,30.33l-1.2,2.15a5.31,5.31,0,0,0-3-1c-1,0-1.5.28-1.5.82a.78.78,0,0,0,.47.71,10.11,10.11,0,0,0,1.58.61c.73.22,1.25.4,1.55.52a7.26,7.26,0,0,1,1.11.57,2.63,2.63,0,0,1,1.21,2.44"/><path class="cls-1" d="M243.48,32.13a2.39,2.39,0,0,0-1.62-.56,3,3,0,0,0-1.76.58,2.22,2.22,0,0,0-.92,1.57h5.08a2.33,2.33,0,0,0-.78-1.59m3.1,6.86A6.46,6.46,0,0,1,242,40.86a6.06,6.06,0,0,1-4.36-1.62,5.7,5.7,0,0,1-1.72-4.38,5.63,5.63,0,0,1,1.75-4.35,6.28,6.28,0,0,1,8.2-.17,5,5,0,0,1,1.67,4v1.72h-8.44a2.31,2.31,0,0,0,1,1.55,3.16,3.16,0,0,0,1.9.6,3.71,3.71,0,0,0,2.79-1.14Z"/><path class="cls-1" d="M256.33,36.26V35.7h-2c-1.29,0-1.94.4-1.94,1.2a1.1,1.1,0,0,0,.46,1,2.28,2.28,0,0,0,1.32.33,2.34,2.34,0,0,0,1.52-.52,1.72,1.72,0,0,0,.66-1.41m3.25,4.41h-3v-1.4a3.77,3.77,0,0,1-3.14,1.55,4.65,4.65,0,0,1-3.07-1.08,3.55,3.55,0,0,1-1.25-2.84,3,3,0,0,1,1.25-2.66,6.16,6.16,0,0,1,3.53-.88h2.47v-.07c0-1.23-.65-1.85-2-1.85a5.38,5.38,0,0,0-1.77.33,6.34,6.34,0,0,0-1.59.83l-1.44-2.08a8.64,8.64,0,0,1,5.21-1.7,5.41,5.41,0,0,1,3.44,1,4,4,0,0,1,1.34,3.34Z"/><path class="cls-1" d="M268.51,31.93a2.47,2.47,0,0,0-2.16,1,4.76,4.76,0,0,0-.71,2.7v5h-3.25V29.09h3.22v1.53a5.74,5.74,0,0,1,1.56-1.21,4.39,4.39,0,0,1,1.91-.51v3Z"/><path class="cls-1" d="M276.7,38a3.71,3.71,0,0,0,2.91-1.62l1.91,2.16a6.62,6.62,0,0,1-4.84,2.34,6.29,6.29,0,0,1-4.4-1.65,6.06,6.06,0,0,1,0-8.57l0-.05a6.15,6.15,0,0,1,4.34-1.73,6.66,6.66,0,0,1,2.53.52,6.25,6.25,0,0,1,2.24,1.56l-1.67,2.2a4,4,0,0,0-3-1.4,3.17,3.17,0,0,0-2.19.83,2.94,2.94,0,0,0-.91,2.3,2.9,2.9,0,0,0,.91,2.29,3.08,3.08,0,0,0,2.14.82"/><path class="cls-1" d="M286.79,34.43v6.24h-3.22v-16h3.22v5.68a4.53,4.53,0,0,1,3.29-1.49,4.1,4.1,0,0,1,3.06,1.29,4.75,4.75,0,0,1,1.25,3.48v7h-3.23V34.34c0-1.78-.65-2.67-2-2.67a2.39,2.39,0,0,0-1.69.7,2.78,2.78,0,0,0-.72,2.06"/><path class="cls-1" d="M98.81,62.12a4.93,4.93,0,0,0,4-2L105,62.33a8.13,8.13,0,0,1-11.46,1l-.3-.27a7.94,7.94,0,0,1,0-11.12,7.69,7.69,0,0,1,5.61-2.24A7.93,7.93,0,0,1,105,52.48l-2,2.38a4.91,4.91,0,0,0-4-2,4.63,4.63,0,0,0-3.24,1.24,4.32,4.32,0,0,0-1.35,3.34,4.55,4.55,0,0,0,1.27,3.36,4.2,4.2,0,0,0,3.08,1.27"/><path class="cls-1" d="M109.39,59.31a3.35,3.35,0,0,0,.81,2.31,2.84,2.84,0,0,0,4,.12l.12-.12a3.73,3.73,0,0,0,0-4.64,2.83,2.83,0,0,0-4-.14l-.14.14a3.33,3.33,0,0,0-.81,2.33m9,0a5.71,5.71,0,0,1-1.75,4.23,6.41,6.41,0,0,1-8.75,0,6,6,0,0,1,0-8.48,6.37,6.37,0,0,1,8.75,0,5.75,5.75,0,0,1,1.75,4.25"/><rect class="cls-1" x="120.63" y="49.13" width="3.23" height="15.96"/><rect class="cls-1" x="126.8" y="49.13" width="3.23" height="15.96"/><path class="cls-1" d="M139.56,60.68v-.56h-2c-1.29,0-1.94.4-1.94,1.21a1.15,1.15,0,0,0,.46,1,2.22,2.22,0,0,0,1.33.33,2.32,2.32,0,0,0,1.51-.53,1.72,1.72,0,0,0,.66-1.41m3.25,4.41h-3v-1.4a3.82,3.82,0,0,1-3.09,1.57,4.56,4.56,0,0,1-3.09-1.06,3.57,3.57,0,0,1-1.26-2.88,3,3,0,0,1,1.29-2.66,6.16,6.16,0,0,1,3.53-.88h2.41v-.06c0-1.24-.65-1.85-2-1.85a5.38,5.38,0,0,0-1.77.33,5.56,5.56,0,0,0-1.58.83L132.83,55a8.66,8.66,0,0,1,5.2-1.66,5.41,5.41,0,0,1,3.45,1.06,4,4,0,0,1,1.33,3.33Z"/><path class="cls-1" d="M148.83,59.32a3.33,3.33,0,0,0,.79,2.3,2.46,2.46,0,0,0,1.9.89,2.6,2.6,0,0,0,2-.89,3.21,3.21,0,0,0,.84-2.29,3.41,3.41,0,0,0-.82-2.35,2.49,2.49,0,0,0-2-1,2.46,2.46,0,0,0-1.93.94,3.52,3.52,0,0,0-.79,2.35m3.49-6A4.91,4.91,0,0,1,156,54.92a5.87,5.87,0,0,1,1.57,4.23A6.09,6.09,0,0,1,156,63.47a4.9,4.9,0,0,1-3.67,1.74,4.17,4.17,0,0,1-3.41-1.69V65h-3.23V49h3.23v5.82a4.43,4.43,0,0,1,3.44-1.49"/><path class="cls-1" d="M162.45,59.31a3.35,3.35,0,0,0,.81,2.31,2.84,2.84,0,0,0,4,.12l.12-.12a3.73,3.73,0,0,0,0-4.64,2.83,2.83,0,0,0-4-.14,1.85,1.85,0,0,0-.14.14,3.33,3.33,0,0,0-.81,2.33m9,0a5.67,5.67,0,0,1-1.75,4.23,6.41,6.41,0,0,1-8.75,0,6,6,0,0,1,0-8.48,6.37,6.37,0,0,1,8.75,0,5.71,5.71,0,0,1,1.75,4.25"/><path class="cls-1" d="M179.82,56.36a2.45,2.45,0,0,0-2.15,1,4.6,4.6,0,0,0-.72,2.7v5h-3.22V53.52H177V55a5.56,5.56,0,0,1,1.56-1.2,4.4,4.4,0,0,1,1.91-.52v3Z"/><path class="cls-1" d="M188.94,60.68v-.56h-2c-1.29,0-1.94.4-1.94,1.21a1.15,1.15,0,0,0,.46,1,2.22,2.22,0,0,0,1.33.33,2.32,2.32,0,0,0,1.51-.53,1.72,1.72,0,0,0,.66-1.41m3.25,4.41h-3v-1.4a3.79,3.79,0,0,1-3.08,1.57A4.56,4.56,0,0,1,183,64.24a3.55,3.55,0,0,1-1.25-2.84,3,3,0,0,1,1.29-2.66,6.16,6.16,0,0,1,3.53-.88H189V57.8c0-1.24-.65-1.85-2-1.85a5.38,5.38,0,0,0-1.77.33,5.56,5.56,0,0,0-1.58.83L182.23,55a8.66,8.66,0,0,1,5.2-1.66,5.41,5.41,0,0,1,3.45,1.06,4,4,0,0,1,1.33,3.33Z"/><path class="cls-1" d="M198.75,55.86v5.19a1.46,1.46,0,0,0,.35,1,1.06,1.06,0,0,0,.81.38,1.85,1.85,0,0,0,1.53-.82l1.21,2.26a4.65,4.65,0,0,1-3.18,1.37,3.84,3.84,0,0,1-4-3.67,2.8,2.8,0,0,1,0-.41v-5.3h-1.35V53.54h1.35V50.07h3.25v3.47h2.8v2.32Z"/><path class="cls-1" d="M207.49,65.09h-3.23V53.52h3.23Zm-3-13a1.81,1.81,0,0,1-.55-1.34,1.88,1.88,0,0,1,1.86-1.9h0a1.88,1.88,0,0,1,1.9,1.86v0a1.87,1.87,0,0,1-1.87,1.89h0a1.83,1.83,0,0,1-1.34-.55"/><polygon class="cls-1" points="218.09 53.5 215.21 60.79 212.33 53.5 208.97 53.5 213.55 65.09 216.87 65.09 221.45 53.5 218.09 53.5"/><path class="cls-1" d="M229.86,56.55a2.44,2.44,0,0,0-1.62-.56,3,3,0,0,0-1.75.58,2.23,2.23,0,0,0-.93,1.57h5.08a2.24,2.24,0,0,0-.78-1.59m3.1,6.86a6.41,6.41,0,0,1-4.57,1.85A6.06,6.06,0,0,1,224,63.64a5.71,5.71,0,0,1-1.72-4.36,5.59,5.59,0,0,1,1.75-4.34,6.26,6.26,0,0,1,8.2-.17,5,5,0,0,1,1.67,4V60.5h-8.44a2.29,2.29,0,0,0,1,1.54,3.1,3.1,0,0,0,1.9.61,3.71,3.71,0,0,0,2.79-1.14Z"/><polygon class="cls-1" points="52.94 3.43 17.7 3.34 44.17 18.62 52.94 3.43"/><polygon class="cls-2" points="0 34 17.7 34.05 17.7 3.33 0 34"/><polygon class="cls-2" points="17.7 64.47 52.94 64.57 44.04 49.27 17.7 64.47"/><polygon class="cls-1" points="17.7 64.47 17.7 34.05 0 34 17.7 64.47"/><polygon class="cls-1" points="44.04 49.27 52.94 64.57 70.64 33.9 44.04 49.27"/><polygon class="cls-2" points="70.64 33.9 52.94 3.44 44.17 18.62 70.64 33.9"/><polygon class="cls-3" points="35.23 34.1 44.17 18.62 17.7 3.34 17.7 34.05 35.23 34.1"/><polygon class="cls-4" points="17.7 64.47 44.04 49.27 35.23 34.1 17.7 34.05 17.7 64.47"/><polygon class="cls-5" points="35.23 34.1 44.04 49.27 70.65 33.9 44.17 18.62 35.23 34.1"/></g></g></svg>