<svg id="Everything_Else" data-name="Everything Else" xmlns="http://www.w3.org/2000/svg" viewBox="0 0 56 56"><defs><style>.cls-1{fill:#231f20;}.cls-2{fill:#333;}.cls-3{fill:#69c8d8;stroke:#69c8d8;stroke-miterlimit:10;}</style></defs><circle class="cls-1" cx="28" cy="28" r="27.5"/><path class="cls-1" d="M25.62,28l6.43-6.42a1.87,1.87,0,0,0-2.64-2.64L22,26.4a1.48,1.48,0,0,0-.31.25,1.93,1.93,0,0,0,0,2.7,1.48,1.48,0,0,0,.31.25l7.5,7.5a1.86,1.86,0,1,0,2.63-2.64Z"/><path class="cls-2" d="M28,.5A27.5,27.5,0,1,0,55.5,28,27.5,27.5,0,0,0,28,.5ZM28,48A20,20,0,1,1,48,28,20,20,0,0,1,28,48Z"/><path class="cls-3" d="M8,28A20,20,0,1,0,28,8,20,20,0,0,0,8,28Zm15.89,6.46L30.38,28,24,21.58a1.87,1.87,0,1,1,2.64-2.64l7.46,7.46a1.48,1.48,0,0,1,.31.25,1.93,1.93,0,0,1,0,2.7,1.48,1.48,0,0,1-.31.25l-7.5,7.5a1.86,1.86,0,1,1-2.63-2.64Z"/></svg>