<svg xmlns="http://www.w3.org/2000/svg" xmlns:xlink="http://www.w3.org/1999/xlink" viewBox="0 0 204 263.93"><defs><style>.cls-1{fill:#fff;}.cls-2{fill:url(#linear-gradient);}.cls-3{fill:none;stroke:#ffb506;stroke-miterlimit:10;stroke-width:0.75px;}</style><linearGradient id="linear-gradient" x1="17.4" y1="16.55" x2="67.64" y2="36.39" gradientUnits="userSpaceOnUse"><stop offset="0" stop-color="#f1b446"/><stop offset="0.22" stop-color="#f1b446"/><stop offset="0.43" stop-color="#a2b070"/><stop offset="0.67" stop-color="#4cac9e"/><stop offset="0.84" stop-color="#15aabb"/><stop offset="0.92" stop-color="#00a9c6"/><stop offset="1" stop-color="#00a9c6"/></linearGradient></defs><g id="Layer_2" data-name="Layer 2"><g id="Everything_Else" data-name="Everything Else"><rect class="cls-1" width="204" height="263.93"/><path class="cls-2" d="M35.31,19.27,32,27.41h-.27l-1.94-4.54-1.88,4.54h-.25l-3.47-8.14h2L27.83,23l1-2.47-.49-1.25h2L31.86,23l1.44-3.7Zm-14.24,1.5a.76.76,0,0,1,.81.81H23.7A2.51,2.51,0,0,0,21,19a2.62,2.62,0,0,0-2.68,2.55c0,1.35.74,2,2.06,2.44.64.22,1.42.39,1.42,1,0,.41-.3.68-.79.68a.81.81,0,0,1-.81-.82H18.34A2.5,2.5,0,0,0,21,27.41a2.62,2.62,0,0,0,2.67-2.55,2.43,2.43,0,0,0-2.06-2.44c-.67-.2-1.4-.3-1.4-.89A.76.76,0,0,1,21.07,20.77Zm26,1.63v1.66h2.24c0,.76-.72,1.53-2.1,1.53a2.38,2.38,0,0,1,0-4.76,2.94,2.94,0,0,1,2,.79l1.34-1.23A4.36,4.36,0,0,0,47.19,19a4.2,4.2,0,1,0,0,8.4,4,4,0,0,0,4.22-4.27V22.4ZM38.87,19l3.86,8.14H40.65l-.39-.82H37.15l-.38.82H34.69L38.52,19ZM39.6,25l-.9-2h0l-.92,2Z"/><line class="cls-3" x1="18.34" y1="31.83" x2="51.41" y2="31.83"/></g></g></svg>