<svg id="Everything_Else" data-name="Everything Else" xmlns="http://www.w3.org/2000/svg" viewBox="0 0 56 56"><defs><style>.cls-1{fill:#231f20;}.cls-2{fill:#69c8d8;stroke:#69c8d8;stroke-miterlimit:10;}</style></defs><circle class="cls-1" cx="28" cy="28" r="27.5"/><path class="cls-1" d="M25.62,28l6.43-6.42a1.87,1.87,0,0,0-2.64-2.64L22,26.4a1.48,1.48,0,0,0-.31.25,1.93,1.93,0,0,0,0,2.7,1.48,1.48,0,0,0,.31.25l7.5,7.5a1.86,1.86,0,1,0,2.63-2.64Z"/><path class="cls-1" d="M28,.5A27.5,27.5,0,1,0,55.5,28,27.5,27.5,0,0,0,28,.5ZM28,48A20,20,0,1,1,48,28,20,20,0,0,1,28,48Z"/><path class="cls-2" d="M28,8A20,20,0,1,0,48,28,20,20,0,0,0,28,8ZM32.08,37.1a1.85,1.85,0,0,1-2.63,0L22,29.6a1.48,1.48,0,0,1-.31-.25,1.93,1.93,0,0,1,0-2.7A1.48,1.48,0,0,1,22,26.4l7.46-7.46a1.87,1.87,0,0,1,2.64,2.64L25.62,28l6.46,6.46A1.86,1.86,0,0,1,32.08,37.1Z"/></svg>