<svg xmlns="http://www.w3.org/2000/svg" xmlns:xlink="http://www.w3.org/1999/xlink" viewBox="0 0 204 264"><defs><style>.cls-1{fill:#fff;}.cls-2{fill:#f16268;}.cls-3{fill:url(#linear-gradient);}</style><linearGradient id="linear-gradient" x1="17.4" y1="16.54" x2="67.64" y2="36.39" gradientUnits="userSpaceOnUse"><stop offset="0" stop-color="#f1b446"/><stop offset="0.22" stop-color="#f1b446"/><stop offset="0.43" stop-color="#a2b070"/><stop offset="0.67" stop-color="#4cac9e"/><stop offset="0.84" stop-color="#15aabb"/><stop offset="0.92" stop-color="#00a9c6"/><stop offset="1" stop-color="#00a9c6"/></linearGradient></defs><g id="Layer_2" data-name="Layer 2"><g id="Everything_Else" data-name="Everything Else"><rect class="cls-1" width="204" height="264"/><rect class="cls-2" x="16.41" y="44.15" width="29" height="12"/><path class="cls-1" d="M25.25,47.15a2.83,2.83,0,0,1,2,.78.15.15,0,0,1,0,.23l-.5.52a.13.13,0,0,1-.21,0,2,2,0,0,0-1.29-.49,1.94,1.94,0,0,0,0,3.87,2,2,0,0,0,1.28-.48.17.17,0,0,1,.21,0l.51.54a.15.15,0,0,1,0,.22,2.84,2.84,0,0,1-2,.81,3,3,0,1,1,0-6Z"/><path class="cls-1" d="M29.2,47.39a.16.16,0,0,1,.16-.16h3.39a.16.16,0,0,1,.16.16v.69a.16.16,0,0,1-.16.15H30.29V49.6h2.05a.16.16,0,0,1,.16.16v.69a.16.16,0,0,1-.16.16H30.29v1.46h2.46a.16.16,0,0,1,.16.16v.68a.16.16,0,0,1-.16.16H29.36a.16.16,0,0,1-.16-.16Z"/><path class="cls-1" d="M37.5,47.15a2.79,2.79,0,0,1,2,.78.15.15,0,0,1,0,.23l-.51.52a.12.12,0,0,1-.2,0,2,2,0,0,0-1.29-.49,1.94,1.94,0,0,0,0,3.87,2,2,0,0,0,1.28-.48.15.15,0,0,1,.2,0l.52.54a.15.15,0,0,1,0,.22,2.84,2.84,0,0,1-2,.81,3,3,0,1,1,0-6Z"/><path class="cls-3" d="M35.31,19.26,32,27.4h-.27l-1.94-4.54L27.94,27.4h-.25l-3.47-8.14h2L27.83,23l1-2.47-.49-1.25h2L31.86,23l1.44-3.7Zm-14.24,1.5a.76.76,0,0,1,.81.81H23.7A2.52,2.52,0,0,0,21,19a2.62,2.62,0,0,0-2.68,2.55c0,1.35.74,2,2.06,2.44.64.22,1.42.39,1.42,1a.7.7,0,0,1-.79.69.82.82,0,0,1-.81-.83H18.34A2.49,2.49,0,0,0,21,27.4a2.61,2.61,0,0,0,2.67-2.55,2.43,2.43,0,0,0-2.06-2.44c-.67-.19-1.4-.3-1.4-.89A.76.76,0,0,1,21.07,20.76Zm26,1.63v1.66h2.24c0,.77-.72,1.53-2.1,1.53a2.38,2.38,0,0,1,0-4.76,2.94,2.94,0,0,1,2,.79l1.34-1.23A4.36,4.36,0,0,0,47.19,19a4.2,4.2,0,1,0,0,8.4,4,4,0,0,0,4.22-4.26v-.75ZM38.87,19l3.86,8.14H40.65l-.39-.81H37.15l-.38.81H34.69L38.52,19ZM39.6,25l-.9-2h0l-.92,2Z"/></g></g></svg>