<svg id="greyys" xmlns="http://www.w3.org/2000/svg" viewBox="0 0 2920 1180"><defs><style>.cls-1{fill:#f7f5f5;}</style></defs><rect class="cls-1" x="865.84" y="337.51" width="170.25" height="221.25" transform="translate(-76.43 225.41) rotate(-13)"/><rect class="cls-1" x="1046.34" y="295.84" width="170.25" height="221.25" transform="translate(-62.43 264.94) rotate(-13)"/><rect class="cls-1" x="504.84" y="420.85" width="170.25" height="221.25" transform="translate(-104.44 146.33) rotate(-13)"/><rect class="cls-1" x="685.34" y="379.18" width="170.25" height="221.25" transform="translate(-90.44 185.87) rotate(-13)"/><rect class="cls-1" x="1226.84" y="254.16" width="170.25" height="221.25" transform="translate(-48.43 304.48) rotate(-13)"/><rect class="cls-1" x="1407.35" y="212.49" width="170.25" height="221.25" transform="translate(-34.43 344.01) rotate(-13)"/><rect class="cls-1" x="1587.85" y="170.82" width="170.25" height="221.25" transform="translate(-20.43 383.55) rotate(-13)"/><rect class="cls-1" x="1768.35" y="129.15" width="170.25" height="221.25" transform="translate(-6.43 423.09) rotate(-13)"/><rect class="cls-1" x="1948.85" y="87.47" width="170.25" height="221.25" transform="translate(7.57 462.62) rotate(-13)"/><rect class="cls-1" x="2129.35" y="45.8" width="170.25" height="221.25" transform="translate(21.57 502.16) rotate(-13)"/><rect class="cls-1" x="812.69" y="107.31" width="170.25" height="221.25" transform="translate(-26.01 207.55) rotate(-13)"/><rect class="cls-1" x="632.19" y="148.98" width="170.25" height="221.25" transform="translate(-40.01 168.02) rotate(-13)"/><rect class="cls-1" x="918.98" y="567.7" width="170.25" height="221.25" transform="translate(-126.86 243.26) rotate(-13)"/><rect class="cls-1" x="1099.49" y="526.03" width="170.25" height="221.25" transform="translate(-112.85 282.8) rotate(-13)"/><rect class="cls-1" x="557.98" y="651.05" width="170.25" height="221.25" transform="translate(-154.86 164.19) rotate(-13)"/><rect class="cls-1" x="738.48" y="609.37" width="170.25" height="221.25" transform="translate(-140.86 203.72) rotate(-13)"/><rect class="cls-1" x="1279.99" y="484.36" width="170.25" height="221.25" transform="translate(-98.85 322.33) rotate(-13)"/><rect class="cls-1" x="1460.49" y="442.69" width="170.25" height="221.25" transform="translate(-84.85 361.87) rotate(-13)"/><rect class="cls-1" x="1640.99" y="401.01" width="170.25" height="221.25" transform="translate(-70.85 401.41) rotate(-13)"/><rect class="cls-1" x="1821.49" y="359.34" width="170.25" height="221.25" transform="translate(-56.85 440.94) rotate(-13)"/><rect class="cls-1" x="2002" y="317.67" width="170.25" height="221.25" transform="translate(-42.85 480.48) rotate(-13)"/><rect class="cls-1" x="2182.5" y="276" width="170.25" height="221.25" transform="translate(-28.85 520.01) rotate(-13)"/><rect class="cls-1" x="2363" y="234.32" width="170.25" height="221.25" transform="translate(-14.85 559.55) rotate(-13)"/><rect class="cls-1" x="972.13" y="797.9" width="170.25" height="221.25" transform="translate(-177.28 261.12) rotate(-13)"/><rect class="cls-1" x="1152.63" y="756.23" width="170.25" height="221.25" transform="translate(-163.28 300.65) rotate(-13)"/><rect class="cls-1" x="611.12" y="881.24" width="170.25" height="221.25" transform="translate(-205.28 182.04) rotate(-13)"/><rect class="cls-1" x="791.63" y="839.57" width="170.25" height="221.25" transform="translate(-191.28 221.58) rotate(-13)"/><rect class="cls-1" x="1333.13" y="714.55" width="170.25" height="221.25" transform="translate(-149.27 340.19) rotate(-13)"/><rect class="cls-1" x="1513.64" y="672.88" width="170.25" height="221.25" transform="translate(-135.27 379.72) rotate(-13)"/><rect class="cls-1" x="1694.14" y="631.21" width="170.25" height="221.25" transform="translate(-121.27 419.26) rotate(-13)"/><rect class="cls-1" x="1874.64" y="589.54" width="170.25" height="221.25" transform="translate(-107.27 458.8) rotate(-13)"/><rect class="cls-1" x="2055.14" y="547.86" width="170.25" height="221.25" transform="translate(-93.27 498.33) rotate(-13)"/><rect class="cls-1" x="2235.64" y="506.19" width="170.25" height="221.25" transform="translate(-79.27 537.87) rotate(-13)"/><rect class="cls-1" x="1025.27" y="1028.09" width="170.25" height="221.25" transform="translate(-227.7 278.97) rotate(-13)"/><rect class="cls-1" x="1205.78" y="986.42" width="170.25" height="221.25" transform="translate(-213.7 318.51) rotate(-13)"/><rect class="cls-1" x="664.27" y="1111.44" width="170.25" height="221.25" transform="translate(-255.7 199.9) rotate(-13)"/><rect class="cls-1" x="844.77" y="1069.76" width="170.25" height="221.25" transform="translate(-241.7 239.43) rotate(-13)"/><rect class="cls-1" x="1386.28" y="944.75" width="170.25" height="221.25" transform="translate(-199.7 358.04) rotate(-13)"/><rect class="cls-1" x="1566.78" y="903.08" width="170.25" height="221.25" transform="translate(-185.69 397.58) rotate(-13)"/><rect class="cls-1" x="1747.28" y="861.4" width="170.25" height="221.25" transform="translate(-171.69 437.11) rotate(-13)"/><rect class="cls-1" x="1927.78" y="819.73" width="170.25" height="221.25" transform="translate(-157.69 476.65) rotate(-13)"/><rect class="cls-1" x="2108.29" y="778.06" width="170.25" height="221.25" transform="translate(-143.69 516.19) rotate(-13)"/><rect class="cls-1" x="2469.29" y="694.71" width="170.25" height="221.25" transform="translate(-115.69 595.26) rotate(-13)"/><rect class="cls-1" x="1439.37" y="1174.7" width="170.25" height="221.25" transform="translate(-250.06 375.88) rotate(-13)"/><rect class="cls-1" x="1619.87" y="1133.03" width="170.25" height="221.25" transform="translate(-236.06 415.41) rotate(-13)"/><rect class="cls-1" x="1800.37" y="1091.35" width="170.25" height="221.25" transform="translate(-222.06 454.95) rotate(-13)"/><rect class="cls-1" x="1980.87" y="1049.68" width="170.25" height="221.25" transform="translate(-208.06 494.49) rotate(-13)"/><rect class="cls-1" x="2161.37" y="1008.01" width="170.25" height="221.25" transform="translate(-194.06 534.02) rotate(-13)"/><rect class="cls-1" x="2341.88" y="966.34" width="170.25" height="221.25" transform="translate(-180.06 573.56) rotate(-13)"/><rect class="cls-1" x="2702.64" y="883.05" width="170.25" height="221.25" transform="translate(-152.08 652.58) rotate(-13)"/><rect class="cls-1" x="377.72" y="692.66" width="170.25" height="221.25" transform="translate(-168.84 124.71) rotate(-13)"/><rect class="cls-1" x="484.01" y="1153.05" width="170.25" height="221.25" transform="translate(-269.68 160.42) rotate(-13)"/><rect class="cls-1" x="993.2" y="65.64" width="170.25" height="221.25" transform="translate(-12.01 247.09) rotate(-13)"/><rect class="cls-1" x="1173.7" y="23.97" width="170.25" height="221.25" transform="translate(1.99 286.62) rotate(-13)"/><polygon class="cls-1" points="1331.5 4.28 1381.27 219.86 1547.15 181.56 1505.24 0 1350.04 0 1331.5 4.28"/><polygon class="cls-1" points="1561.77 178.19 1727.66 139.89 1695.36 0 1520.63 0 1561.77 178.19"/><polygon class="cls-1" points="1742.27 136.51 1908.16 98.22 1885.48 0 1710.76 0 1742.27 136.51"/><polygon class="cls-1" points="1922.77 94.84 2088.66 56.55 2075.61 0 1900.88 0 1922.77 94.84"/><polygon class="cls-1" points="2103.28 53.17 2269.16 14.87 2265.73 0 2091 0 2103.28 53.17"/><polygon class="cls-1" points="2517.18 200.08 2683.07 161.78 2645.72 0 2470.99 0 2517.18 200.08"/><polygon class="cls-1" points="786.67 114.92 952.56 76.63 934.87 0 760.14 0 786.67 114.92"/><polygon class="cls-1" points="967.18 73.25 1133.06 34.95 1124.99 0 950.26 0 967.18 73.25"/><polygon class="cls-1" points="425.67 198.27 591.56 159.97 554.62 0 379.89 0 425.67 198.27"/><polygon class="cls-1" points="606.17 156.6 772.06 118.3 744.75 0 570.02 0 606.17 156.6"/><polygon class="cls-1" points="1147.68 31.58 1284.47 0 1140.39 0 1147.68 31.58"/></svg>