<svg xmlns="http://www.w3.org/2000/svg" xmlns:xlink="http://www.w3.org/1999/xlink" viewBox="0 0 360 27.46"><defs><style>.cls-1{fill:url(#linear-gradient);}</style><linearGradient id="linear-gradient" x1="153.82" y1="3764.64" x2="203.66" y2="3901.6" gradientTransform="translate(0 -3818)" gradientUnits="userSpaceOnUse"><stop offset="0.27" stop-color="#f1b446"/><stop offset="1" stop-color="#00a9c6"/></linearGradient></defs><g id="Layer_2" data-name="Layer 2"><g id="Header"><g id="Text_and_Content" data-name="Text and Content"><path class="cls-1" d="M120.88,1.41a.26.26,0,0,1,.27-.27h.54a.25.25,0,0,1,.27.27v8.81h4.11a.26.26,0,0,1,.27.27v.43a.26.26,0,0,1-.27.27h-5a.26.26,0,0,1-.27-.27Zm6.81,0a.26.26,0,0,1,.27-.27h5.68a.26.26,0,0,1,.27.27v.43a.26.26,0,0,1-.27.27h-4.81V5.63h4.1a.25.25,0,0,1,.27.27v.43a.25.25,0,0,1-.27.27h-4.1v3.67h4.81a.26.26,0,0,1,.27.27h0V11a.25.25,0,0,1-.27.27H128a.25.25,0,0,1-.27-.27V1.41Zm7.67,8.27c.06-.11.17-.16.22-.27s.27-.33.49-.11a3.71,3.71,0,0,0,2.43,1.08,1.79,1.79,0,0,0,1.94-1.57c0-1-.86-1.56-2.48-2.27s-2.54-1.35-2.54-3c0-1,.76-2.54,3.08-2.54a4.29,4.29,0,0,1,2.43.76.29.29,0,0,1,.11.43.05.05,0,0,1-.06,0,2.4,2.4,0,0,1-.16.27.29.29,0,0,1-.43.17s0-.06,0-.06a3.82,3.82,0,0,0-1.9-.65c-1.51,0-2,1-2,1.57,0,1,.75,1.51,1.94,2,2,.81,3.19,1.51,3.19,3.19a2.83,2.83,0,0,1-3.08,2.59,4.79,4.79,0,0,1-3-1.13.43.43,0,0,1-.11-.54Zm7.46,0c.06-.11.16-.16.22-.27s.32-.33.48-.11A3.73,3.73,0,0,0,146,10.38a1.79,1.79,0,0,0,1.94-1.57c0-1-.86-1.56-2.48-2.27s-2.54-1.35-2.54-3c0-1,.75-2.54,3.08-2.54a4.29,4.29,0,0,1,2.43.76.3.3,0,0,1,.11.43.05.05,0,0,1-.06,0c-.05.11-.11.17-.16.27a.29.29,0,0,1-.43.17.06.06,0,0,1-.06-.06A3.82,3.82,0,0,0,145.9,2c-1.51,0-2,1-2,1.57,0,1,.76,1.51,1.95,2,1.94.81,3.19,1.51,3.19,3.19A2.86,2.86,0,0,1,146,11.35a4.77,4.77,0,0,1-3-1.13.34.34,0,0,1-.16-.43C142.77,9.73,142.77,9.73,142.82,9.68ZM155.3,1a5.18,5.18,0,0,1,5.19,5.14,5.16,5.16,0,0,1-10.32,0h0A5.15,5.15,0,0,1,155.3,1Zm0,9.3a4.17,4.17,0,1,0,0-8.33,4.13,4.13,0,0,0-4.16,4.17h0A4.21,4.21,0,0,0,155.3,10.33Zm7.19-9.08a.26.26,0,0,1,.27-.27h.38l6.48,8h0V1.41a.26.26,0,0,1,.27-.27h.49a.26.26,0,0,1,.27.27v9.67a.26.26,0,0,1-.27.27h-.27l-6.59-8.21h0v7.78a.26.26,0,0,1-.27.27h-.49a.26.26,0,0,1-.27-.27Zm10.27,8.43c.05-.11.16-.16.22-.27s.27-.33.48-.11a3.71,3.71,0,0,0,2.43,1.08,1.79,1.79,0,0,0,2-1.57c0-1-.87-1.56-2.49-2.27s-2.54-1.35-2.54-3c0-1,.76-2.54,3.08-2.54a4.27,4.27,0,0,1,2.43.76.28.28,0,0,1,.11.43,0,0,0,0,1-.05,0c-.06.11-.11.17-.16.27a.3.3,0,0,1-.44.17c-.05,0-.05-.06-.05-.06A3.82,3.82,0,0,0,175.84,2c-1.51,0-2,1-2,1.57,0,1,.76,1.51,1.95,2,1.94.81,3.18,1.51,3.18,3.19a2.83,2.83,0,0,1-3.08,2.59,4.76,4.76,0,0,1-3-1.13.34.34,0,0,1-.17-.43c0-.06,0-.06.06-.11Zm12.32-8.27a.26.26,0,0,1,.27-.27h.59a.25.25,0,0,1,.27.27v9.51a.25.25,0,0,1-.27.27h-.59a.26.26,0,0,1-.27-.27Zm3.84-.16a.25.25,0,0,1,.27-.27h.37l6.49,8h0V1.41a.26.26,0,0,1,.27-.27h.49a.26.26,0,0,1,.27.27v9.67a.26.26,0,0,1-.27.27h-.27l-6.6-8.21h0v7.78a.26.26,0,0,1-.27.27h-.54a.26.26,0,0,1-.27-.27ZM122.67,23.73a1,1,0,0,0,1,1.08h.06a.86.86,0,0,0,1-.76v-.11c0-.75-1-1-1.84-1.24-1.67-.59-2.65-1.4-2.65-3.13a3.35,3.35,0,0,1,3.46-3.25,3.18,3.18,0,0,1,3.41,3.3h-2.33a1,1,0,0,0-1.08-1,1.05,1.05,0,0,0-1,1c0,.75.91.92,1.78,1.13,1.78.54,2.65,1.57,2.65,3.14a3.33,3.33,0,0,1-3.41,3.24,3.2,3.2,0,0,1-3.46-3.3Zm6.1-7.14h6.65v2.17H131.2v1.83h3.89v2.17H131.2v1.83h4.38V26.7h-6.86Zm11,4.87-3.24-4.87h2.86l1.89,3,1.79-3h2.86l-3.24,5L146,26.7h-2.76l-2.1-3.19-2,3.19h-2.81Zm7.51-4.87h2.43v6.33c0,1.35.65,1.83,1.52,1.83s1.51-.48,1.51-1.83V16.59h2.49V23.3a3.68,3.68,0,0,1-4,3.72c-2.33,0-3.95-1.4-3.95-3.72Zm13.94-.32h.44l4.91,10.43H163.9l-.49-1h-4l-.48,1h-2.65Zm1.41,7.62-1.13-2.54h-.06l-1.19,2.54Zm5.08-7.3h2.49v8h4.37v2.11h-6.86Zm11.73,0H182l2.05,4.76,1.25-3.13-.65-1.63h2.54l2,4.76L191,16.59h2.6L189.4,27h-.32l-2.49-5.83L184.16,27h-.32Zm15.18,0h6.65v2.17H197v1.83h3.89v2.17H197v1.83h4.38V26.7h-6.81Zm8,0h2.49v8h4.37v2.11h-6.86Zm8.05,0h2.49v8h4.38v2.11h-6.87Zm8.06,0h2.59l3.89,6v-6h2.43V26.7h-2.59l-3.95-6v6h-2.48V16.59Zm10.53,0H236v2.17h-4.21v1.83h3.89v2.17h-3.89v1.83h4.38V26.7h-6.87Zm10.43,7.14a1,1,0,0,0,1,1.08h0a.87.87,0,0,0,1-.76v-.11c0-.75-1-1-1.84-1.24-1.68-.59-2.65-1.4-2.65-3.13a3.34,3.34,0,0,1,3.46-3.25,3.18,3.18,0,0,1,3.4,3.3h-2.32a1,1,0,0,0-1.08-1,1.07,1.07,0,0,0-1,1c0,.75.92.92,1.79,1.13,1.78.54,2.64,1.57,2.64,3.14a3.32,3.32,0,0,1-3.4,3.24,3.19,3.19,0,0,1-3.46-3.3Zm8.49,0a1,1,0,0,0,1,1.08h.06a.94.94,0,0,0,1-.76v-.16c0-.76-1-1-1.83-1.24-1.68-.6-2.65-1.41-2.65-3.14a3.34,3.34,0,0,1,3.46-3.24,3.18,3.18,0,0,1,3.4,3.3h-2.32a1,1,0,0,0-1.08-1,1.05,1.05,0,0,0-1,1c0,.76.92.92,1.78,1.14,1.79.54,2.65,1.56,2.65,3.13a3.31,3.31,0,0,1-3.4,3.24,3.19,3.19,0,0,1-3.46-3.29ZM263,16.27h.43L268.3,26.7h-2.65l-.49-1h-4l-.48,1H258Zm1.35,7.62-1.14-2.54h-.05l-1.19,2.54Zm5.08-7.3H272l3.89,6v-6h2.43V26.7H275.7l-3.84-6v6h-2.48Zm10.59,0h3.51a5.06,5.06,0,1,1,.27,10.11H280Zm3.46,7.84a2.72,2.72,0,0,0,2.65-2.92,2.78,2.78,0,0,0-2.65-2.65h-1v5.57Zm16.7-8.16a5.49,5.49,0,0,1,4.21,1.78l-1.73,1.57a4,4,0,0,0-2.48-1,2.91,2.91,0,0,0-3,2.81v.22a2.88,2.88,0,0,0,2.76,3h.27c1.78,0,2.59-1,2.7-1.95H300V20.54h5.56v1c0,3-1.73,5.46-5.4,5.46a5.4,5.4,0,1,1-1-10.75,6.44,6.44,0,0,1,1,.05Zm7,.32h4.22c2.16,0,3.56,1.3,3.56,3.19a2.89,2.89,0,0,1-2.38,3.14l2.71,3.73h-3.08l-2.6-3.79v3.79H307.1ZM311.64,21a1.15,1.15,0,0,0,.91-1.35,1.14,1.14,0,0,0-1-.92h-1.89V21Zm10.05-4.7a5.41,5.41,0,1,1-5.41,5.4,5.27,5.27,0,0,1,5.14-5.4Zm0,8.43a2.86,2.86,0,0,0,2.92-2.81v-.22a2.92,2.92,0,0,0-5.84,0,2.85,2.85,0,0,0,2.7,3Zm6.48-8.11h2.6l2.05,4.76,1.24-3.13-.65-1.63H336l2,4.76,1.84-4.76h2.59L338.22,27h-.32l-2.49-5.83L333,27h-.32Zm17,2.17h-2.27V16.59h7v2.17h-2.26V26.7h-2.49Zm5.94-2.17h2.49v3.95h3.94V16.59H360V26.7h-2.43v-4h-3.95v4h-2.48ZM6.16,19a2.7,2.7,0,0,0,2.65,2.7,2.3,2.3,0,0,0,2.59-2.22c0-1.94-2.54-2.48-4.65-3.24C2.43,14.76,0,12.76,0,8.33A8.64,8.64,0,0,1,8.81,0c5.67,0,8.37,3.62,8.75,8.37H11.62A2.52,2.52,0,0,0,9.29,5.73H9a2.49,2.49,0,0,0-2.7,2.49c0,1.94,2.38,2.27,4.54,2.92,4.59,1.35,6.75,3.94,6.75,8a8.52,8.52,0,0,1-8.7,8.33c-5.62,0-8.81-3.79-8.81-8.38ZM20.16.87h6.59L31.94,13l3.13-8-1.62-4h6.48L45.12,13,49.82.87h6.54L45.66,27.46H44.8L38.47,12.6,32.31,27.46H31.5ZM65.06,0H66.2L78.79,26.59H72l-1.29-2.65H60.58l-1.25,2.65H52.58ZM68.57,19.4l-3-6.48h-.11l-3,6.48ZM93.43,0a14.15,14.15,0,0,1,10.75,4.48l-4.37,4A9.62,9.62,0,0,0,93.43,6a7.36,7.36,0,0,0-7.56,7.73,7.43,7.43,0,0,0,7.67,7.78c4.48,0,6.7-2.49,6.86-5H93.11V11.08h14.16v2.43c0,7.57-4.44,14-13.78,14A13.51,13.51,0,0,1,79.54,13.73,13.45,13.45,0,0,1,93.43,0ZM111.8,11.68a1.14,1.14,0,1,1,2.27,0,1.1,1.1,0,0,1-1.13,1.13h0a1.14,1.14,0,0,1-1.14-1.13Zm1.09,2.54a1.14,1.14,0,1,1-1.14,1.13A1.22,1.22,0,0,1,112.89,14.22Z"/></g></g></g></svg>