<svg xmlns="http://www.w3.org/2000/svg" xmlns:xlink="http://www.w3.org/1999/xlink" viewBox="0 0 106.38 27.03"><defs><style>.cls-1{fill:url(#linear-gradient);}</style><linearGradient id="linear-gradient" x1="-3.01" y1="-7.92" x2="158.58" y2="55.92" gradientUnits="userSpaceOnUse"><stop offset="0" stop-color="#f1b446"/><stop offset="0.22" stop-color="#f1b446"/><stop offset="0.43" stop-color="#a2b070"/><stop offset="0.67" stop-color="#4cac9e"/><stop offset="0.84" stop-color="#15aabb"/><stop offset="0.92" stop-color="#00a9c6"/><stop offset="1" stop-color="#00a9c6"/></linearGradient></defs><g id="Layer_2" data-name="Layer 2"><g id="Everything_Else" data-name="Everything Else"><path class="cls-1" d="M54.58.84,44,27h-.85L36.93,12.41,30.89,27h-.8L18.9.84h6.5l5.11,12L33.6,4.86,32,.84h6.42l5.07,11.91L48.12.84ZM8.78,5.66A2.46,2.46,0,0,1,11.4,8.28h5.83C16.89,3.59,14.23,0,8.61,0A8.43,8.43,0,0,0,0,8.19c0,4.35,2.36,6.34,6.63,7.86,2.07.71,4.56,1.26,4.56,3.16a2.23,2.23,0,0,1-2.53,2.2A2.64,2.64,0,0,1,6,18.75H0C0,23.31,3.12,27,8.66,27a8.4,8.4,0,0,0,8.57-8.2c0-4-2.11-6.5-6.63-7.85-2.15-.63-4.48-1-4.48-2.87A2.45,2.45,0,0,1,8.78,5.66Zm83.67,5.23v5.37h7.22c-.17,2.45-2.32,4.9-6.76,4.9a7.3,7.3,0,0,1-7.56-7.65c0-4.26,2.92-7.64,7.44-7.64A9.34,9.34,0,0,1,99.08,8.4l4.3-4A14,14,0,0,0,92.79,0,13.29,13.29,0,0,0,79.06,13.51,13.29,13.29,0,0,0,92.79,27c9.2,0,13.59-6.25,13.59-13.73V10.89ZM66,0,78.44,26.18H71.77L70.5,23.56h-10l-1.22,2.62H52.6L64.93,0Zm2.36,19.13-2.91-6.42h-.09l-3,6.42Z"/></g></g></svg>