<svg xmlns="http://www.w3.org/2000/svg" xmlns:xlink="http://www.w3.org/1999/xlink" viewBox="0 0 281.95 464"><defs><style>.cls-1,.cls-10,.cls-9{fill:none;}.cls-2{isolation:isolate;}.cls-3{fill:#fff;}.cls-4{fill:#e8e8e8;}.cls-5{fill:#f16268;}.cls-6{clip-path:url(#clip-path);}.cls-7{opacity:0.35;mix-blend-mode:multiply;}.cls-8{fill:#404040;}.cls-9{stroke:#404040;}.cls-10,.cls-9{stroke-width:0.25px;}.cls-10{stroke:#000;}.cls-11{fill:#f7d549;}.cls-12,.cls-13,.cls-17{font-size:15px;}.cls-12,.cls-13{font-family:BrandonGrotesque-Black, Brandon Grotesque;font-weight:800;}.cls-12,.cls-14{letter-spacing:0.05em;}.cls-13{letter-spacing:0.05em;}.cls-15{letter-spacing:0.05em;}.cls-16{letter-spacing:0.08em;}.cls-17{font-family:BrandonGrotesque-Regular, Brandon Grotesque;}.cls-18{letter-spacing:-0.08em;}.cls-19{letter-spacing:-0.01em;}.cls-20{letter-spacing:0em;}.cls-21{letter-spacing:-0.03em;}.cls-22{letter-spacing:0em;}.cls-23{letter-spacing:-0.07em;}.cls-24{fill:url(#linear-gradient);}</style><clipPath id="clip-path"><circle class="cls-1" cx="140" cy="149" r="90"/></clipPath><linearGradient id="linear-gradient" x1="139.07" y1="186.5" x2="139.07" y2="112.2" gradientUnits="userSpaceOnUse"><stop offset="0.26" stop-color="#f1b446"/><stop offset="0.45" stop-color="#adb16a"/><stop offset="0.72" stop-color="#51ad9b"/><stop offset="0.91" stop-color="#17aaba"/><stop offset="1" stop-color="#00a9c6"/></linearGradient></defs><g class="cls-2"><g id="Layer_2" data-name="Layer 2"><g id="tour_cards" data-name="tour cards"><rect class="cls-3" width="280" height="464"/><ellipse class="cls-4" cx="199.63" cy="27" rx="2.98" ry="3"/><ellipse class="cls-4" cx="219.5" cy="27" rx="2.98" ry="3"/><ellipse class="cls-4" cx="179.75" cy="27" rx="2.98" ry="3"/><ellipse class="cls-4" cx="159.88" cy="27" rx="2.98" ry="3"/><ellipse class="cls-4" cx="140" cy="27" rx="2.98" ry="3"/><ellipse class="cls-4" cx="120.12" cy="27" rx="2.98" ry="3"/><ellipse class="cls-4" cx="100.25" cy="27" rx="2.98" ry="3"/><ellipse class="cls-4" cx="80.37" cy="27" rx="2.98" ry="3"/><ellipse class="cls-5" cx="60.5" cy="27" rx="2.98" ry="3"/><circle class="cls-4" cx="140" cy="149" r="90"/><g class="cls-6"><g class="cls-7"><rect class="cls-8" x="207.47" y="28.45" width="38.48" height="49.8" transform="translate(-6.01 62.45) rotate(-15.48)"/><rect class="cls-9" x="207.47" y="28.45" width="38.48" height="49.8" transform="translate(-6.01 62.45) rotate(-15.48)"/></g><rect class="cls-3" x="206.47" y="27.45" width="38.48" height="49.8" transform="translate(-5.78 62.14) rotate(-15.48)"/><rect class="cls-10" x="206.47" y="27.45" width="38.48" height="49.8" transform="translate(-5.78 62.14) rotate(-15.48)"/><g class="cls-7"><rect class="cls-8" x="237.37" y="136.38" width="38.48" height="49.8" transform="translate(-33.74 74.34) rotate(-15.48)"/><rect class="cls-9" x="237.37" y="136.38" width="38.48" height="49.8" transform="translate(-33.74 74.34) rotate(-15.48)"/></g><rect class="cls-3" x="236.37" y="135.38" width="38.48" height="49.8" transform="translate(-33.51 74.04) rotate(-15.48)"/><rect class="cls-10" x="236.37" y="135.38" width="38.48" height="49.8" transform="translate(-33.51 74.04) rotate(-15.48)"/></g><rect class="cls-11" y="420" width="280" height="44"/><text class="cls-12" transform="translate(128.44 445.79)">GO</text><text class="cls-13" transform="translate(56.14 287.14)">T<tspan class="cls-14" x="8.34" y="0">OUR A LESSON </tspan><tspan class="cls-15" x="126.99" y="0">P</tspan><tspan class="cls-16" x="136.53" y="0">L</tspan><tspan class="cls-14" x="145.44" y="0">AN</tspan></text><text class="cls-17" transform="translate(46.81 315.14)"><tspan class="cls-18">T</tspan><tspan x="5.97" y="0">a</tspan><tspan class="cls-19" x="12.27" y="0">k</tspan><tspan x="18.87" y="0">e a quick look at wha</tspan><tspan class="cls-20" x="138.28" y="0">t</tspan><tspan x="143.34" y="0">’s in the </tspan><tspan x="50.43" y="19">S</tspan><tspan class="cls-21" x="58.42" y="19">W</tspan><tspan class="cls-22" x="71.58" y="19">A</tspan><tspan x="81.46" y="19">G </tspan><tspan class="cls-23" x="95.77" y="19">T</tspan><tspan x="101.89" y="19">oolkit.</tspan></text><path class="cls-4" d="M258.93,257.3a.81.81,0,0,0,.57.24.83.83,0,0,0,.57-.24l7.69-7.69a.8.8,0,0,0,0-1.14l-7.69-7.69a.81.81,0,0,0-1.14,1.14l7.13,7.12-7.13,7.08A.85.85,0,0,0,258.93,257.3Z"/><path class="cls-24" d="M196.56,160.46c0-.32-.08-.64-.13-1s-.1-.78-.18-1.17-.17-.81-.26-1.22l-.21-.81c-.13-.46-.27-.92-.43-1.38-.06-.18-.13-.36-.2-.55-.19-.5-.39-1-.61-1.49l-.16-.33c-.25-.54-.51-1.06-.81-1.57l-.12-.19c-.31-.54-.63-1.07-1-1.59s-.82-1.15-1.27-1.7l-11.11-13.78A18.59,18.59,0,0,0,172,127L163,116.47l-.22-.24a10.56,10.56,0,0,0-8.32-4,10.71,10.71,0,0,0-10.7,10.7,6.54,6.54,0,0,0,.06.89h0l2.52,17.14a18.59,18.59,0,0,0-.26,2.49H132.17a18.57,18.57,0,0,0-.26-2.5l2.39-16.3.1-.86h0a8.49,8.49,0,0,0,0-.88,10.71,10.71,0,0,0-10.69-10.7,10.53,10.53,0,0,0-8,3.65h0L106.15,127a18.46,18.46,0,0,0-8.07,6.68L86.85,147.65c-.45.55-.87,1.12-1.26,1.7l-.2.31c-.32.5-.63,1-.91,1.51-.16.29-.3.59-.45.88s-.34.67-.5,1-.29.71-.43,1.07-.24.62-.34.94-.24.74-.35,1.13-.18.66-.26,1-.17.72-.24,1.09-.13.83-.19,1.24-.09.61-.12.91c-.07.74-.11,1.48-.11,2.23a23.85,23.85,0,0,0,23.82,23.82c.75,0,1.49,0,2.23-.11l.66-.08c.52-.07,1-.14,1.55-.24l.69-.14c.54-.12,1.06-.25,1.58-.41l.5-.14a23.82,23.82,0,0,0,4.09-1.74l.13-.07q.92-.51,1.77-1.08l.2-.14c.58-.39,1.14-.81,1.68-1.25l.08-.07a23.89,23.89,0,0,0,3.18-3.18l.1-.12c.4-.49.77-1,1.13-1.52.14-.2.27-.4.4-.61s.45-.71.66-1.08.34-.61.5-.92.24-.49.36-.74a23.3,23.3,0,0,0,1.61-4.54l.06-.21s0,0,0-.06c.1-.42.18-.85.26-1.28s.1-.61.14-.92.06-.37.08-.56c3.32-2.54,8.41-5.89,10.1-5.89s6.8,3.35,10.11,5.89a23.47,23.47,0,0,0,2.17,7.59l.35.72q.24.47.51.93c.21.36.42.71.64,1.05l.42.64a17.57,17.57,0,0,0,1.1,1.47l.13.17a23.74,23.74,0,0,0,3.17,3.17l.1.08q.8.64,1.65,1.23a1.88,1.88,0,0,0,.23.16c.56.37,1.14.73,1.74,1.06l.15.08a23.68,23.68,0,0,0,4.08,1.73l.5.15c.52.15,1,.29,1.58.4.23.06.46.1.7.15.51.09,1,.17,1.54.23l.67.08c.73.07,1.48.12,2.23.12a23.84,23.84,0,0,0,23.81-23.82,16.49,16.49,0,0,0-.09-2.22Zm-50.35-35.31,0,0-.14-.84a8,8,0,0,1-.15-1.39,8.46,8.46,0,0,1,8.45-8.44,8.35,8.35,0,0,1,6.75,3.43l.57.72.06,0,6.22,7.25a18.32,18.32,0,0,0-3.4-.35,18.65,18.65,0,0,0-16.8,10.6Zm.08,20.54,2.75,8.09c-2.9-1.08-7.74-2.75-10-2.75s-7,1.67-10,2.75l2.75-8.1Zm-29.91-27.13.09,0,.53-.71a8.35,8.35,0,0,1,6.75-3.43,8.46,8.46,0,0,1,8.45,8.44,8.84,8.84,0,0,1-.14,1.38l-.12.88h0l-1.61,10.92a18.64,18.64,0,0,0-16.8-10.6,19.12,19.12,0,0,0-3.4.34Zm10.4,46.09c0,.29-.07.57-.1.86s-.08.53-.13.8-.12.69-.2,1.06l-.09.36,0,.18q-.23.89-.51,1.74a20.77,20.77,0,0,1-1.82,3.94c-.2.34-.4.69-.62,1l-.33.46c-.28.4-.57.8-.88,1.18l-.3.35c-.34.4-.7.8-1.08,1.19l-.25.25c-.42.41-.85.81-1.3,1.19l-.16.13a21.82,21.82,0,0,1-5.17,3.15l-.36.14q-.72.3-1.47.54c-.19.07-.39.12-.58.18-.44.13-.89.24-1.34.34l-.67.14c-.45.09-.92.16-1.39.21l-.62.08a20,20,0,0,1-2.05.1,21.6,21.6,0,0,1-21.57-21.57c0-.68,0-1.35.1-2,0-.3.08-.58.12-.88s.09-.7.16-1,.16-.76.25-1.14.11-.46.18-.69c.12-.43.25-.87.4-1.29.05-.15.11-.29.16-.44.18-.47.37-.95.58-1.41l.1-.2c.24-.52.5-1,.78-1.52,0,0,0,0,0,0,.31-.54.63-1.06,1-1.58a21.56,21.56,0,0,1,39.32,12.22c0,.67,0,1.32-.11,2Zm-21.46-25.78a23.52,23.52,0,0,0-10.49,2.47l5-6.29A16.41,16.41,0,0,1,130,144.14h.11s0,0-.05.06L127,153a23.82,23.82,0,0,0-21.71-14.09Zm43.73,23.5c-2.78-2-7.55-5.22-10-5.22s-7.19,3.2-10,5.22a23.68,23.68,0,0,0-.82-5.86c2.75-1.07,8.71-3.23,10.78-3.23s8.05,2.16,10.79,3.23a24.65,24.65,0,0,0-.81,5.86Zm-.89-18.17s0,0,0-.06h.1a16.41,16.41,0,0,1,30.07-9.09l.44.66.08,0,4.54,5.64A23.74,23.74,0,0,0,151.14,153Zm24.69,40.05a19.63,19.63,0,0,1-2-.1l-.63-.08c-.47-.06-.93-.12-1.39-.21l-.67-.14c-.45-.1-.89-.21-1.33-.35l-.59-.17c-.5-.17-1-.35-1.46-.54l-.37-.14a21.85,21.85,0,0,1-5.16-3.14,1.39,1.39,0,0,0-.19-.15c-.44-.38-.86-.76-1.27-1.17l-.28-.27c-.36-.37-.71-.76-1-1.16-.11-.12-.22-.25-.32-.38-.3-.36-.57-.73-.85-1.12l-.36-.51c-.2-.3-.38-.62-.56-.92a21.42,21.42,0,0,1-2.39-5.81l-.08-.27h0a22.52,22.52,0,0,1-.49-3c-.06-.65-.1-1.3-.1-2a21.57,21.57,0,0,1,39.43-12.08c.08.13.15.26.24.39.26.41.52.83.76,1.25s.29.56.43.85.3.58.43.88.27.66.4,1l.3.83c.12.34.22.68.32,1s.16.6.23.9.16.66.22,1,.13.74.17,1.11.09.56.11.83a19.38,19.38,0,0,1,.1,2,21.6,21.6,0,0,1-21.57,21.56Zm-50.19-21.57a17.35,17.35,0,1,1-17.34-17.34A17.36,17.36,0,0,1,122.66,162.68Zm67.54,0a17.35,17.35,0,1,1-17.35-17.34A17.37,17.37,0,0,1,190.2,162.68Z"/></g></g></g></svg>